<svg width="280" height="229" viewBox="0 0 280 229" fill="none" xmlns="http://www.w3.org/2000/svg">
<path fill-rule="evenodd" clip-rule="evenodd" d="M117.387 89.7231C114.169 89.9474 110.925 89.8559 107.705 89.7442C107.388 89.733 106.629 89.5721 106.436 89.7789C106.214 90.0172 106.261 91.3304 106.224 91.6555C105.946 94.119 105.668 96.5832 105.39 99.0466C105.262 100.178 105.134 101.31 105.006 102.441C104.97 102.762 104.609 104.153 104.781 104.432C105.095 104.94 107.338 105.056 107.929 105.18L114.97 106.66C115.633 106.8 117.325 106.832 117.632 107.404C117.827 107.767 117.708 108.749 117.731 109.161L117.923 112.557C118.174 117.005 118.425 121.453 118.675 125.9C123.658 125.463 128.641 125.026 133.623 124.589C134.836 124.482 136.048 124.376 137.26 124.27C137.549 124.244 138.154 124.311 138.39 124.137C138.904 123.756 139.343 122.129 139.621 121.544C140.328 120.053 141.036 118.563 141.744 117.072C142.426 115.635 143.108 114.199 143.79 112.762C143.964 112.394 144.4 111.781 144.389 111.379C144.377 110.926 143.758 110.114 143.564 109.727C142.998 108.592 142.431 107.457 141.864 106.322C139.058 100.702 136.252 95.0816 133.446 89.4617C133.304 89.1768 132.986 88.1409 132.708 87.9836C132.168 87.6783 130.277 88.2926 129.695 88.3653C125.602 88.8751 121.499 89.4369 117.387 89.7231Z" fill="#70CDFF"/>
<path fill-rule="evenodd" clip-rule="evenodd" d="M69.9243 80.0684C70.919 81.3568 71.9137 82.6452 72.9087 83.9336C75.5461 80.3797 78.1839 76.8257 80.8216 73.2717C79.4991 72.6267 78.1769 71.9817 76.8547 71.3363C75.6811 70.764 75.831 71.0363 75.0884 72.171C73.3673 74.8037 71.6455 77.4361 69.9243 80.0684Z" fill="black"/>
<path fill-rule="evenodd" clip-rule="evenodd" d="M120.791 163.902C120.787 165.774 120.783 167.647 120.778 169.52C126.025 169.237 131.272 168.955 136.519 168.673C136.281 167.888 136.042 167.102 135.804 166.317C135.618 165.703 135.382 163.848 134.93 163.436C134.435 162.987 132.261 163.451 131.597 163.477C127.995 163.618 124.393 163.76 120.791 163.902Z" fill="black"/>
<path fill-rule="evenodd" clip-rule="evenodd" d="M108.291 22.14C102.162 26.3671 96.0324 30.5945 89.9027 34.8219C91.2561 36.5498 92.6092 38.2774 93.9622 40.0053C94.2864 40.4194 94.3439 40.6814 94.7148 40.6411C95.1461 40.5942 95.872 39.855 96.2313 39.6104C100.577 36.6579 104.922 33.7057 109.267 30.7535C110.581 29.8599 111.896 28.9664 113.211 28.0732C111.571 26.0955 109.931 24.1177 108.291 22.14Z" fill="black"/>
<path fill-rule="evenodd" clip-rule="evenodd" d="M250.706 88.211C250.484 86.2458 249.577 84.2483 248.913 82.4285C248.13 80.2839 247.306 78.1575 246.462 76.0413C245.927 74.7013 245.734 75.0308 244.336 75.0906C242.703 75.16 241.07 75.23 239.438 75.2997C240.695 80.2826 241.952 85.2654 243.209 90.2482C243.427 91.1107 243.779 94.3444 244.465 94.7809C244.702 94.9323 245.522 94.7377 245.792 94.7267C246.562 94.695 247.332 94.6636 248.102 94.6322C249.149 94.5893 250.196 94.5467 251.243 94.5037C251.097 92.404 250.941 90.3014 250.706 88.211Z" fill="black"/>
<path fill-rule="evenodd" clip-rule="evenodd" d="M147.003 214.378C144.194 213.604 141.138 214.338 138.307 214.36C136.639 214.372 134.975 214.251 133.308 214.345C132.75 214.376 130.195 214.295 130.109 214.662C130.042 214.943 130.55 215.652 130.746 215.769C131.298 216.098 131.686 215.676 132.242 215.52C133.75 215.095 135.514 215.357 137.064 215.276C138.685 215.192 140.306 215.086 141.927 215.005C143.543 214.924 145.603 215.29 147.003 214.378ZM9.36102 55.4085C9.14544 54.8692 9.05686 54.0136 8.56164 53.6759C8.10296 53.363 7.14173 53.5917 6.61163 53.5834C5.4844 53.5669 3.03699 53.6145 2.30057 54.7347C1.40527 56.0964 4.03911 57.0673 4.91753 57.0415C6.44375 56.9963 7.83234 55.7164 9.36102 55.4085ZM37.4198 38.3154C37.536 37.9704 37.1283 37.7424 36.8338 37.6327C36.0843 37.3531 35.5912 37.8181 34.9316 38.168C33.2661 39.0513 31.4554 39.6352 29.7033 40.2733C28.178 40.8288 26.7632 41.6073 25.2672 42.2328C24.2068 42.6763 21.9686 42.5901 21.3581 43.709C20.1521 45.9193 23.3108 44.2615 23.8672 44.047C25.4643 43.4324 27.1642 43.0534 28.7295 42.3508C30.2364 41.6747 31.7726 40.9871 33.2637 40.2548C33.9439 39.9207 34.6204 39.6372 35.3139 39.3454C35.9629 39.0725 36.7296 38.3874 37.4198 38.3154ZM82.9981 76.6252C82.6 76.3588 80.969 74.8721 80.4211 75.0681C79.9931 75.2218 79.5142 76.9295 79.2476 77.3779C77.9117 79.6233 76.4712 81.7758 75.0391 83.9475C75.6745 84.321 76.3101 84.6937 76.9458 85.0668C78.242 81.714 80.7408 79.205 82.9981 76.6252ZM107.729 88.6085C109.775 88.6138 111.801 88.3339 113.845 88.365C116.134 88.3997 118.384 88.4674 120.671 88.2635C122.922 88.0623 125.164 88.0524 127.415 87.903C128.123 87.8561 132.065 87.5276 129.756 86.297C128.979 85.883 128.044 86.3988 127.201 86.5848C126.223 86.8003 125.236 86.8809 124.248 87.0108C123.306 87.1347 122.306 87.4767 121.355 87.4516C120.359 87.4248 119.61 87.2305 118.608 87.3878C116.531 87.7143 114.463 87.5316 112.387 87.3214C110.956 87.1764 107.814 86.2977 107.729 88.6085ZM163.399 215.767C164.715 214.608 166.798 215.11 168.362 214.74C170.09 214.332 168.729 212.333 168.067 211.269C167.376 210.16 166.337 207.942 165.176 209.584C163.963 211.3 163.82 213.719 163.399 215.767ZM121.954 165.403C121.91 166.445 121.438 167.517 122.43 167.875C123.383 168.218 125.018 167.696 126.005 167.603C127.292 167.482 128.558 167.25 129.841 167.105C130.413 167.041 130.989 166.993 131.564 167.05C131.961 167.09 132.916 167.56 133.271 167.365C133.706 167.126 133.917 165.837 133.562 165.34C133.176 164.802 130.848 165.336 130.015 165.405C127.301 165.629 124.656 165.27 121.954 165.403ZM121.788 162.06C123.037 161.499 124.522 161.762 125.837 161.754C127.385 161.745 128.915 161.837 130.459 161.947C131.143 161.996 133.136 162.548 133.709 162.071C134.01 161.82 134.119 159.67 133.863 159.34C133.446 158.801 132.137 159.45 131.601 159.537C130.165 159.77 128.7 159.764 127.251 159.749C125.895 159.736 124.535 159.67 123.18 159.667C121.574 159.663 121.791 160.558 121.788 162.06ZM78.809 73.8924C78.2986 73.5692 76.6231 72.0848 75.9974 72.3102C75.465 72.5018 74.8995 74.2737 74.5817 74.8302C73.9757 75.8909 73.3358 76.9308 72.708 77.9764C72.3066 78.6449 71.2365 79.8526 71.4194 80.7561C71.5165 81.2372 72.4077 82.0683 72.8578 81.9222C73.3222 81.7719 74.0871 79.886 74.3447 79.5143C75.7395 77.5028 77.4922 75.9894 78.809 73.8924ZM241.263 76.0703C243.051 79.8959 243.281 84.2215 244.25 88.3273C244.476 89.2829 244.823 90.226 245.014 91.1873C245.121 91.723 244.925 92.6406 245.199 93.0963C245.887 94.2377 249.067 93.8752 249.754 92.8706C250.157 92.2804 249.844 91.6685 249.672 91.0558C249.44 90.2284 249.551 89.5077 249.417 88.6819C249.148 87.0267 247.782 85.3562 247.134 83.8286C246.426 82.1595 246.1 80.1517 245.086 78.6611C244.407 77.6638 242.503 75.6054 241.263 76.0703ZM124.683 225.3C127.076 224.957 130.839 224.181 130.713 220.671C130.589 217.182 126.399 216.562 124.067 216.256C123.383 216.167 123.309 216.124 122.615 216.576C122.138 216.887 121.663 217.219 121.218 217.582C120.352 218.288 119.371 219.249 119.186 220.481C118.717 223.609 122.584 225.023 124.683 225.3ZM111.009 27.1188C112.094 27.2444 110.651 26.0928 110.377 25.9534C109.546 25.5304 108.624 25.607 107.742 25.768C105.608 26.1572 103.72 28.1125 101.897 29.3216C99.9667 30.6014 98.0611 32.0488 96.0482 33.1657C95.128 33.6769 94.367 34.1105 93.6023 34.8728C93.2124 35.2614 93.0774 35.531 92.5535 35.5307C92.2629 35.5307 91.6151 34.7895 91.3057 35.2184C90.4424 36.4153 94.7926 36.8026 95.2466 36.7216C97.5148 36.3165 99.4826 35.3771 101.429 34.1029C103.416 32.8025 105.526 31.7468 107.523 30.4808C108.386 29.9333 109.126 29.2076 109.913 28.5573C110.025 28.4641 110.229 28.1502 110.343 28.0309C110.526 28.0897 110.68 28.0378 110.803 27.8756C110.867 27.6218 110.935 27.3693 111.009 27.1188ZM154.887 214.411C152.681 215.266 149.075 215.932 148.039 218.757C146.867 221.957 152.137 224.239 154.205 224.413C156.378 224.595 160.239 223.635 160.542 220.685C160.716 218.988 159.483 217.904 158.331 217.058C157.154 216.192 155.473 216.006 154.887 214.411ZM13.7222 36.1698C12.1627 36.3654 11.1028 36.5333 9.86057 37.638C8.82984 38.555 7.98061 39.4812 7.5606 40.8959C6.58953 44.165 8.98954 46.9718 12.0725 46.5911C12.4124 46.5492 12.7443 46.412 13.0894 46.4497C13.4063 46.4847 13.6279 46.7329 13.8958 46.7828C14.5273 46.8998 14.6497 46.7788 15.1678 46.2425C16.2246 45.1477 17.2855 43.9452 17.871 42.4681C19.2806 38.9109 17.1605 36.2336 13.7222 36.1698ZM49.1774 29.3566C49.3287 25.6751 44.1949 25.0701 41.8278 25.35C39.1398 25.6682 34.7303 28.6472 35.7537 32.3022C36.6549 35.5192 41.7379 35.274 43.9346 34.62C44.4047 34.4802 45.1351 34.1765 45.5976 34.2793C46.2923 34.433 46.3259 35.0572 46.9807 34.4921C47.392 34.1369 47.7638 33.1023 48.0541 32.5927C48.6331 31.5776 48.9322 30.5188 49.1774 29.3566ZM121.335 180.549C121.265 181.337 120.989 182.351 121.766 182.726C122.246 182.958 123.579 182.704 124.062 182.723C126.076 182.801 128.143 182.626 130.145 182.801C130.737 182.852 132.506 183.508 133.032 183.069C133.547 182.639 133.145 181.294 133.111 180.693C132.971 178.237 133.272 175.85 133.369 173.408C133.395 172.752 133.643 171.159 133.183 170.673C132.622 170.082 131.377 170.424 130.709 170.498C128.624 170.728 126.479 171.066 124.382 171.071C123.807 171.072 122.533 170.626 122.034 170.861C121.268 171.222 121.448 172.481 121.406 173.285C121.278 175.71 121.192 178.123 121.335 180.549ZM74.4564 70.6226C71.7224 68.4116 68.8885 66.3152 66.1548 64.1653C65.1813 63.4 64.4575 62.3072 63.5455 61.5604C62.9734 61.0912 62.799 60.8873 62.0168 61.34C61.1133 61.8634 60.2733 62.6852 59.4396 63.3346C58.7395 63.8798 58.036 64.4204 57.3349 64.9633C56.6853 65.4663 56.4677 65.5806 56.9281 66.416C57.7381 67.8862 59.4202 69.2126 60.52 70.4217C63.234 73.405 65.8848 76.4917 68.9342 79.0688C69.9821 75.7306 72.1507 73.016 74.4564 70.6226ZM105.104 19.0923C100.357 17.0453 99.9975 10.1138 98.3375 5.69557C97.8235 8.72019 99.1872 13.6358 96.8848 16.0112C95.4691 17.4718 94.6488 15.4104 93.8887 14.2884C92.7309 12.5799 91.4883 10.9466 90.3831 9.19465C90.7224 11.3082 91.6947 13.6802 91.5131 15.8294C91.3702 17.5167 90.3822 19.828 88.9443 17.9147C87.9569 16.6006 86.6928 15.3714 85.5414 14.2059C84.1571 12.8048 82.5776 11.8997 81.0729 10.7047C81.6556 13.8655 82.7662 16.6712 84.4038 19.3461C85.2438 20.7187 86.1631 22.0369 86.9562 23.4433C87.6043 24.5929 87.91 26.0228 88.7688 26.9996C89.5709 27.9119 90.7506 28.6402 91.711 29.3411C93.079 30.3391 93.4068 30.0552 94.6645 29.1068C97.0992 27.2715 99.7427 25.802 102.193 23.9898C101.74 23.3352 101.015 22.6885 101.039 21.7973C101.058 21.076 101.564 20.4193 102.241 20.5056C102.771 20.5733 103.016 21.18 103.607 20.9752C104.106 20.802 104.788 19.5013 105.104 19.0923ZM268.529 74.2919C266.33 74.5751 264.277 75.4306 262.022 75.2746C261.11 75.2115 260.429 75.3952 260.029 74.3956C259.709 73.5973 260.036 72.3839 259.031 72.1664C258.286 72.0055 257.364 72.7609 256.813 73.1882C255.824 73.9565 254.947 74.6382 253.827 75.1808C251.84 76.1427 249.824 76.9791 247.653 77.0842C248.178 78.8253 248.731 80.5691 249.459 82.2239C250.156 83.8104 250.842 85.16 251.049 86.9269C251.138 87.6833 251.138 88.5074 251.818 88.8398C252.485 89.1663 253.674 88.8973 254.396 88.9112C256.05 88.9436 257.704 88.9859 259.358 88.9902C260.619 88.9928 261.872 89.3206 263.1 89.3018C264.625 89.2777 266.351 88.5537 267.839 88.21C270.658 87.559 274.603 87.1552 276.85 85.0559C274.77 84.6987 272.652 84.9419 270.609 85.4309C269.674 85.6553 267.529 86.8218 266.902 85.6536C266.155 84.2621 267.616 82.3409 268.648 81.6946C269.811 80.9643 271.548 81.0432 272.368 79.7277C270.819 79.8705 269.187 79.9329 267.689 80.4303C266.542 80.8113 265.061 81.8968 264.607 80.0169C263.871 76.9715 266.611 75.5271 268.529 74.2919ZM104.393 100.365C104.781 96.3337 105.495 92.2596 105.558 88.2007C105.585 86.4474 103.77 86.761 102.5 86.2627C100.653 85.5387 98.8433 84.6815 97.0301 83.8646C95.223 83.05 93.4059 82.2649 91.5924 81.4672C89.946 80.7435 88.3659 79.6488 86.7059 79.0054C85.8023 78.6551 85.7321 78.9971 85.2078 79.9022C84.6977 80.7829 84.1619 81.6447 83.6074 82.4923C82.4426 84.273 81.1955 85.9874 79.9208 87.675C83.756 90.196 87.7596 92.5253 91.7171 94.8097C95.7558 97.1413 100.149 98.5527 104.393 100.365ZM186.322 85.0717C188.35 85.077 190.326 84.7585 192.346 84.6907C194.342 84.624 196.273 84.7195 198.254 84.7763C200.155 84.8305 202.02 85.2515 203.917 85.3496C204.378 85.3734 204.858 85.3714 205.316 85.4273C205.778 85.4835 206.051 85.6705 206.479 85.7498C207.531 85.9448 208.556 85.6688 209.617 85.731C213.531 85.959 217.387 86.8366 221.302 87.059C225.327 87.288 229.255 87.6291 233.261 88.1558C235.378 88.4344 237.499 88.5979 239.626 88.7608C240.062 88.7942 240.996 89.0939 241.235 88.5507C241.525 87.8911 240.541 85.6371 240.359 84.9389C240.124 84.0311 239.93 83.1033 239.614 82.2229C239.428 81.7088 239.038 80.0294 238.662 79.7029C238.138 79.2479 237.356 79.6851 236.744 79.7816C235.505 79.9769 234.246 80.0935 233 80.2274C231.156 80.4266 229.31 80.9021 227.467 80.9626C225.387 81.0304 223.317 80.9332 221.239 80.8486C217.077 80.6784 212.815 80.7663 208.675 80.3024C203.891 79.7657 199.085 79.548 194.289 79.1541C193.152 79.0606 192.012 79.0371 190.874 78.9624C190.061 78.9092 188.399 78.2857 187.638 78.5748C186.866 78.8689 187.012 79.8672 186.925 80.6431C186.758 82.1235 186.542 83.5996 186.322 85.0717ZM136.504 126.157C133.617 126.641 130.785 126.831 127.866 126.922C126.579 126.963 125.3 127.03 124.018 127.171C122.946 127.288 122.345 127.34 122.306 128.621C122.131 134.241 121.851 139.8 121.693 145.422C121.603 148.596 121.706 151.774 121.696 154.949C121.692 156.154 121.466 157.023 122.679 157.164C124.154 157.335 125.7 157.11 127.183 157.125C128.548 157.14 129.914 157.176 131.279 157.209C132.155 157.23 133.78 157.706 134.075 156.547C134.168 156.176 133.999 155.526 134.008 155.116C134.024 154.353 134.111 153.583 134.153 152.821C134.249 151.072 134.319 149.322 134.417 147.573C134.815 140.408 135.885 133.303 136.504 126.157ZM103.448 36.9602C105.352 38.555 107.518 39.6524 109.554 41.0472C110.53 41.716 111.472 42.4334 112.428 43.1343C113.412 43.8557 114.554 44.2929 115.484 45.0939C117.282 46.645 119.508 47.633 121.483 48.9786C123.491 50.3463 125.492 51.716 127.546 53.0008C128.454 53.5695 129.448 53.9112 130.38 54.4241C131.496 55.039 132.51 55.8446 133.642 56.4322C136.066 57.6909 138.486 58.9505 140.9 60.2333C145.638 62.751 150.494 65.0773 155.331 67.3588C156.362 67.8448 157.445 68.0583 158.531 68.3455C159.045 68.481 159.695 68.5513 160.158 68.8207C160.301 68.9046 160.453 68.9165 160.568 69.0573C160.786 69.3276 160.601 69.7059 160.735 69.9068C161.488 71.0323 163.58 67.8696 164.066 67.1033C164.817 65.919 164.513 65.7273 163.353 65.236C162.183 64.7403 161.002 64.273 159.844 63.7437C157.713 62.7682 155.532 61.6645 153.495 60.4696C151.377 59.2264 149.171 58.2001 147.074 56.9034C144.723 55.4494 142.391 53.9657 140.013 52.563C136.002 50.1966 132.316 47.213 128.419 44.6445C126.267 43.2265 124.244 41.5389 122.162 39.9775C120.13 38.4539 118.204 36.7524 116.129 35.3288C114.988 34.5457 113.801 33.894 112.734 32.9896C111.937 32.3138 111.142 31.6202 110.142 32.1876C109.062 32.8006 108.043 33.8312 106.994 34.543C105.811 35.3467 104.63 36.1543 103.448 36.9602ZM191.848 63.3342C191.231 62.981 188.961 62.0386 190.026 60.8836C190.785 60.0618 192.577 61.1539 193.312 61.4256C193.297 60.2895 193.298 59.5057 192.964 58.4225C192.627 57.334 192.72 56.5108 193.541 55.6857C193.916 55.3083 195.276 54.9828 195.434 54.4878C195.679 53.7185 194.459 53.9627 194.042 53.855C191.841 53.2867 191.973 50.7673 191.919 48.8385C191.854 46.5706 191.368 44.39 189.763 42.9162C189.038 42.2504 188.776 42.2494 187.883 42.6866C187.553 42.8475 187.257 43.1069 186.894 43.1783C186.38 43.2791 186.036 42.9136 185.579 42.9384C184.87 42.9767 184.147 44.2559 183.458 44.6646C182.565 45.194 181.685 45.036 180.803 45.4147C180.018 45.7515 179.26 46.6655 178.528 47.1516C177.531 47.8135 177.758 48.4628 177.821 49.7634C177.874 50.8483 177.843 51.5601 176.865 51.9625C176.55 52.0924 175.996 52.0339 175.728 52.2428C175.331 52.5511 175.546 52.7827 175.419 53.2986C175.095 54.6028 174.41 53.8068 173.535 53.6326C172.469 53.4202 171.296 54.241 171.852 55.4894C172.051 55.9362 172.479 56.343 172.907 56.4821C173.413 56.6463 174.045 56.1939 174.511 56.3981C175.702 56.9189 174.75 58.1528 174.807 58.9935C175.53 58.5656 175.775 57.3386 176.522 58.6987C177.062 59.6815 176.847 61.1748 176.713 62.2477C176.402 64.7307 175.705 67.7721 174.225 69.7638C174.012 70.0506 173.694 70.5895 173.294 70.5215C172.96 70.4653 172.92 69.9934 172.633 69.8728C172.015 69.6131 171.068 69.9977 170.832 70.6223C170.432 71.6777 170.474 73.2265 170.442 74.3434C170.406 75.6295 170.267 77.0842 170.553 78.3455C171.041 80.4997 172.877 81.2498 174.662 81.7256C175.658 81.9903 176.749 82.2996 177.756 81.9272C178.855 81.5211 179.61 80.4313 180.385 79.5516C180.967 78.8904 182.097 78.138 182.173 77.1813C182.209 76.7339 181.917 76.1166 181.851 75.6583C181.745 74.9306 181.715 74.1954 181.733 73.4588C181.766 72.1066 182.112 70.7316 182.007 69.3791C181.898 67.9955 180.956 67.8961 180.443 66.8304C180.137 66.1946 180.065 65.2046 180.809 64.9881C181.241 64.8626 182.05 65.2204 182.518 65.2568C183.232 65.3123 183.955 65.3245 184.671 65.3321C185.991 65.347 186.985 65.273 188.179 64.6458C189.408 64.0007 190.506 63.5983 191.848 63.3342ZM161.256 214.91C161.306 213.731 161.456 212.552 161.791 211.426C162.075 210.469 162.686 209.631 162.789 208.643C163.003 206.579 162.376 204.641 160.554 203.896C158.788 203.174 156.874 203.186 155.029 203.321C153.958 203.4 153.05 203 151.999 203.053C150.893 203.109 149.917 202.943 148.818 202.816C146.778 202.579 145.038 201.598 143.057 201.183C142.087 200.98 141.751 201.432 141.158 202.177C140.504 202.998 139.768 203.688 138.94 204.291C137.666 205.217 135.388 206.919 135.267 204.047C135.165 201.636 137.377 199.85 138.743 198.289C137.359 197.647 137.477 195.263 135.87 196.222C135.172 196.639 134.621 197.254 133.977 197.754C133.434 198.174 132.19 199.344 131.476 199.253C130.469 199.124 130.362 197.562 130.513 196.696C130.787 195.121 132.294 194.215 133.364 193.291C134.01 192.732 134.977 192.292 135.527 191.636C136.111 190.939 135.981 190.157 135.961 189.281C135.952 188.882 136.226 187.38 136.077 187.035C135.848 186.504 135.054 186.645 134.489 186.59C133.439 186.487 132.397 186.286 131.351 186.178C130.531 186.094 129.744 186.296 128.923 186.328C126.851 186.411 124.755 186.293 122.681 186.287C122.304 186.286 120.727 185.992 120.464 186.347C120.238 186.654 120.454 188.074 120.452 188.441C120.445 190.721 120.452 192.997 120.515 195.276C120.637 199.772 120.5 204.388 119.654 208.807C119.501 209.608 119.018 210.495 119.762 210.889C120.334 211.192 121.86 210.721 122.483 210.677C124.506 210.532 126.55 210.674 128.561 210.514C132.062 210.235 135.683 210.491 139.255 210.582C144.006 210.703 148.73 211.264 153.48 211.397C155.544 211.454 157.644 211.043 159.682 211.111C160.483 211.138 160.71 211.359 160.755 212.296C160.808 213.41 160.365 214.007 161.256 214.91ZM61.5622 55.921C59.7372 52.5557 58.0169 49.1237 56.1937 45.7574C55.3704 44.2373 54.4456 42.7923 53.5263 41.3406C53.0553 40.5968 52.5347 39.8454 52.1747 39.0262C51.8448 38.2764 51.7464 37.4139 51.3581 36.6942C50.6234 38.4674 49.0463 39.4402 47.3957 40.075C46.1131 40.5681 44.8617 41.2746 43.5238 41.5789C40.024 42.3759 36.5619 44.0929 33.1278 45.3377C25.8354 47.9807 18.0405 49.432 11.0197 52.866C13.4153 55.4547 12.671 60.9745 16.6683 61.8092C18.2587 62.1417 19.9197 61.6073 21.4416 61.1496C23.3635 60.5714 25.2869 59.9977 27.2109 59.426C29.2983 58.8051 31.4066 58.323 33.511 57.7811C34.568 57.5088 35.6317 57.3198 36.6909 57.0746C37.573 56.87 37.5836 56.6701 38.0458 55.7627C38.8277 54.2291 40.2776 52.6605 41.5042 54.6838C42.0036 55.5079 41.8977 56.5422 42.3354 57.3591C42.7092 58.0567 43.5087 58.4185 44.0708 58.8897C44.4607 57.6879 44.9265 56.0598 45.7883 55.1365C46.7285 54.129 47.6627 54.9396 48.0011 56.1235C48.4076 57.5461 47.8083 59.2777 47.5461 60.6774C47.4181 61.3618 47.175 62.1479 47.3221 62.8498C47.5177 63.7823 48.262 64.7436 48.7055 65.5529C52.8504 62.1803 57.0846 58.7364 61.5622 55.921ZM142.592 112.58C141.378 110.784 140.095 109.193 139.185 107.181C138.211 105.03 137.423 102.714 136.385 100.619C135.353 98.5375 134.404 96.417 133.463 94.2803C132.805 92.789 132.057 89.2086 130.175 89.2982C129.236 89.3431 128.277 89.7129 127.331 89.814C126.222 89.9333 125.109 89.9263 124.002 90.074C121.574 90.3982 119.209 90.9781 116.758 91.1351C114.652 91.2703 112.519 91.3393 110.41 91.2392C109.835 91.2121 108.339 90.7234 107.807 91.0033C107.186 91.3297 107.393 92.603 107.341 93.2546C107.143 95.7055 106.839 98.1588 106.498 100.59C106.44 101.005 105.853 103.076 106.115 103.427C106.52 103.967 108.261 103.606 108.829 103.654C111.069 103.842 113.27 104.4 115.501 104.671C116.632 104.807 117.765 104.839 118.903 104.843C120.009 104.848 121.621 104.515 122.67 104.928C123.344 105.194 123.727 105.82 123.509 106.616C123.269 107.495 122.489 107.691 121.765 107.855C121.235 107.976 119.695 107.909 119.361 108.441C118.999 109.018 119.633 110.104 119.812 110.651C120.154 111.7 119.96 112.15 119.934 113.175C119.907 114.254 120.48 115.204 120.403 116.295C120.329 117.361 120.288 118.213 120.383 119.3C120.467 120.256 120.409 121.302 120.532 122.23C120.816 124.378 125.07 123.079 126.39 123.047C129.119 122.98 131.859 123.462 134.577 123.319C135.377 123.277 137.231 123.436 137.795 122.694C138.367 121.943 138.458 120.23 138.827 119.301C139.789 116.873 141.224 114.744 142.592 112.58ZM166.89 64.7756C166.691 67.2676 166.58 69.1871 165.213 71.2841C163.754 73.5233 162.075 73.3227 159.771 73.5689C157.703 73.7899 156.08 74.5361 154.418 75.8711C152.464 77.441 150.357 78.7447 148.275 80.0958C144.314 82.6667 139.589 83.3775 135.091 84.1415C133.96 84.3338 131.872 84.8863 133.203 86.3496C134.634 87.9228 135.435 90.2442 136.396 92.2124C138.6 96.7253 140.289 101.573 142.803 105.895C143.818 107.641 145.033 109.748 146.592 110.98C148.072 112.15 151.042 109.978 152.548 109.259C154.506 108.325 156.56 107.616 158.404 106.463C160.124 105.388 161.875 104.46 163.683 103.575C165.459 102.706 167.178 101.841 169.037 101.206C171.225 100.46 173.537 100.195 175.76 99.5443C178.04 98.8775 179.84 98.1703 181.682 96.5204C182.539 95.7541 183.582 94.9875 183.927 93.776C184.28 92.5369 184.02 90.9563 183.966 89.6854C183.91 88.3574 183.721 86.9969 183.746 85.6682C183.771 84.3289 184.373 83.2777 184.736 82.0329C185.309 80.0691 185.962 76.5082 184.146 75.1857C184.018 77.2837 183.34 79.1666 182.705 81.1348C182.094 83.0306 181.09 84.1901 179.589 85.2954C179.017 85.7158 178.4 86.3013 177.723 86.4923C177.007 86.6952 176.003 86.5911 175.258 86.6C173.581 86.6192 171.765 86.1397 170.473 84.9062C167.86 82.4083 167.289 77.9318 167.541 74.3808C167.687 72.3386 167.995 70.2809 168.853 68.4383C169.148 67.8045 169.734 67.1284 169.407 66.3866C169.064 65.6097 167.531 65.1395 166.89 64.7756ZM115.317 108.291C112.234 107.852 109.024 107.494 106.029 106.544C104.939 106.199 103.625 105.761 103.614 104.335C103.61 103.897 103.91 103.106 103.737 102.694C103.56 102.272 102.456 102.244 101.945 102.133C96.0061 100.847 90.4893 98.3336 85.1872 95.1861C79.8248 92.0025 74.8714 88.246 69.8114 84.5361C64.8746 80.9167 60.7727 76.4963 56.6693 71.8479C56.0993 71.2022 55.5145 70.573 54.9257 69.9475C54.4962 69.4908 53.8995 68.5609 53.335 68.3131C52.32 67.8676 50.901 69.5552 50.0038 70.0575C48.8362 70.7111 47.4438 70.81 46.6734 69.4326C46.1646 68.5229 46.6377 68.3567 46.7107 67.5005C46.7706 66.7967 46.3293 66.3978 45.9412 65.9078C45.6418 66.679 45.2438 68.0904 44.2249 67.9149C43.3092 67.7576 43.2087 66.3796 43.1436 65.5942C43.0673 64.6782 43.3289 63.5147 42.761 62.7735C42.3145 62.1902 41.4418 61.764 40.87 62.2923C39.7197 63.3551 40.4659 66.5204 38.8425 67.3095C36.5538 68.4215 36.7769 63.3465 36.7284 62.332C31.6043 62.9506 26.7883 65.3939 21.6587 66.1936C19.5709 66.5191 17.1596 66.4124 15.3376 65.1114C13.6622 63.9155 11.9223 61.2838 11.2061 59.2644C9.48773 60.655 7.69116 61.721 5.48467 61.1007C3.24167 60.4699 1.26848 59.1114 0.444307 56.6503C-0.38313 54.1802 -0.143844 52.2989 1.92174 50.9048C2.76688 50.3341 3.43516 50.0545 4.36534 49.779C5.39528 49.474 6.69993 49.2532 7.67236 48.7701C6.66969 47.1707 5.52911 45.6041 5.07342 43.6931C4.5594 41.5379 4.81585 39.1131 5.61305 37.0752C7.05397 33.3921 11.1045 30.9279 14.753 31.7696C17.937 32.5041 20.1903 35.5132 21.0944 38.8045C21.5055 40.3007 21.1447 41.226 22.8214 40.4167C24.7254 39.4971 26.3914 38.1442 28.3581 37.333C30.0644 36.6288 31.9248 36.0373 33.5056 35.0265C34.3238 34.5034 34.2853 34.4584 33.9517 33.4985C33.5376 32.3062 33.2816 31.1962 33.3739 29.9006C33.6381 26.1909 36.4509 23.5612 39.4606 22.3406C42.873 20.957 47.1042 21.5036 49.6611 24.4938C50.9034 25.9467 51.7513 27.8561 51.8596 29.8553C51.9081 30.7415 51.424 32.0884 51.6941 32.9056C51.9289 33.6164 53.0405 34.1617 53.4694 34.8411C54.1499 35.92 54.465 37.211 55.1403 38.3085C55.7258 39.2585 56.3187 40.2009 56.8812 41.1681C58.2479 43.516 59.5286 45.9216 60.6456 48.4231C61.1565 49.5675 61.6363 50.7283 62.1043 51.8945C62.4261 52.6942 62.6912 54.1551 63.2694 54.7922C63.8536 55.4362 64.7245 55.23 65.2258 56.0452C65.8575 57.0716 65.2576 57.979 64.7569 58.8732C68.5637 60.0906 70.9011 63.6092 73.9475 66.188C77.0227 68.7906 80.3981 71.0446 83.704 73.2764C87.1451 75.5995 90.5235 77.8138 94.2701 79.502C97.7609 81.0753 101.135 82.9294 104.617 84.5225C105.104 84.7459 105.485 85.042 105.967 84.6953C106.414 84.3742 106.504 83.3392 106.97 82.9199C108.152 81.8571 110.933 82.4467 112.339 82.4225C114.368 82.3882 116.427 82.2629 118.454 82.3773C119.14 82.4159 119.804 82.7146 120.476 82.6155C121.507 82.4642 122.469 82.2345 123.541 82.1869C124.434 82.1473 125.325 82.0752 126.219 82.1103C126.644 82.1268 127.36 82.3254 127.741 82.0105C128.215 81.6182 127.929 80.6765 128.253 80.1054C128.463 79.7353 128.878 79.6342 129.082 79.3424C129.056 79.3794 129.406 78.7209 129.309 78.8045C129.934 78.2662 131.682 78.1033 132.42 78.2953C132.633 78.3504 132.668 78.7423 132.937 78.7433C133.204 78.7443 133.225 78.4492 133.413 78.3789C133.61 78.3052 133.662 78.0087 133.924 77.9638C134.214 77.9139 134.586 78.2698 134.899 78.2896C135.253 78.3118 135.591 78.056 135.919 77.9562C136.357 77.824 136.694 77.9208 137.058 77.8739C137.722 77.788 138.436 77.7064 139.126 77.6182C140.13 77.4899 141.107 77.1479 142.086 76.8882C142.515 76.7739 142.944 76.641 143.386 76.6047C143.897 76.5621 144.562 76.8248 145.045 76.7005C145.457 76.5944 145.121 76.4335 145.479 76.2984C145.865 76.152 146.283 76.112 146.675 75.9639C147.575 75.6236 148.406 75.0585 149.215 74.5195C151.099 73.2642 152.784 71.6998 154.647 70.4108C154.221 69.7353 152.638 69.621 151.969 69.3821C151.047 69.0533 150.143 68.668 149.241 68.2797C147.192 67.3964 145.157 66.4702 143.123 65.5453C139.265 63.7906 135.385 62.0977 131.698 59.9448C128.234 57.9228 124.535 56.3469 121.1 54.2525C119.353 53.1869 117.604 52.0653 115.905 50.9097C114.323 49.8331 112.62 49.0992 110.981 48.1148C107.779 46.1916 104.837 43.7988 101.622 41.9166C100.863 41.4722 100.02 40.531 99.2011 40.2892C98.4967 40.0813 97.7823 40.5102 97.1461 40.8109C96.4719 41.1295 95.8393 41.6526 95.0825 41.6704C94.2495 41.6903 93.296 41.2002 92.5099 40.9031C91.049 40.3516 89.7801 38.8226 89.2489 37.2302C88.9894 36.4517 88.8693 35.5869 88.7733 34.7677C88.6598 33.7969 88.9601 32.6555 88.7434 31.7322C88.3314 29.9762 86.428 28.3273 85.3637 27.0676C84.0421 25.5036 82.8966 23.7532 81.8532 21.9592C79.5212 17.948 77.903 13.1903 79.2031 8.46908C79.4013 7.7495 79.7546 6.56049 80.3379 6.08157C81.1476 5.41618 81.4942 6.19266 82.1947 6.57836C83.0646 7.05761 83.8901 7.33667 84.7056 7.98779C85.6942 8.77676 86.5076 9.73909 87.4187 10.6216C87.4236 8.58375 87.133 6.79728 87.5359 4.75644C87.7426 3.70892 88.2054 1.52989 89.4262 1.34315C90.6925 1.14924 91.6006 3.65473 92.1515 4.56881C93.1761 6.26741 94.3213 7.86119 95.4612 9.46746C95.6093 6.9754 95.3062 1.05097 98.1762 0.0707291C100.748 -0.807898 102.077 6.75766 102.7 8.45061C103.281 10.0301 104.097 11.5905 104.979 12.9937C105.904 14.4638 106.912 13.7147 108.345 13.7838C109.67 13.8479 110.266 14.8483 110.251 16.2667C110.233 18.0612 108.926 19.372 108.023 20.726C109.979 21.7583 112.511 23.1009 113.68 25.2267C113.939 25.6976 114.117 26.2382 114.133 26.794C114.149 27.3435 113.688 28.3498 113.927 28.8577C114.102 29.2291 114.692 29.3636 115.006 29.5658C115.655 29.9842 116.232 30.5254 116.874 30.959C121.08 33.8018 125.035 37.1985 129.093 40.1996C132.757 42.9096 136.638 45.3235 140.344 48.0319C145.057 51.4755 150.012 54.4055 155.056 57.2365C156.22 57.8898 157.299 58.6151 158.416 59.3461C159.562 60.0962 160.929 60.6028 162.152 61.2101C163.009 61.6354 163.944 62.445 164.844 62.71C165.914 63.0256 166.365 61.7858 167.612 62.1073C168.688 62.3845 169.861 62.5071 170.508 63.5646C171.074 64.4918 171.022 65.9101 171.934 66.5095C172.992 67.2038 173.289 66.4593 173.533 65.4947C173.811 64.397 174.597 63.1419 173.633 62.3518C172.722 61.6053 171.431 61.5231 170.366 61.2471C169.826 61.1073 169.109 60.5971 168.595 60.5509C167.953 60.493 167.802 61.1467 167.256 61.1477C166.966 61.148 166.711 60.8413 166.434 60.7439C166.372 60.722 166.208 60.9719 166.133 60.9487C165.862 60.8661 165.841 60.7677 165.577 60.6494C164.637 60.2277 163.394 59.5632 163.677 58.2824C163.829 57.595 164.861 56.4897 164.141 55.8595C163.465 55.267 162.556 56.5026 162.184 55.266C161.919 54.3877 162.565 54.1521 161.743 53.4291C161.14 52.8974 160.584 52.753 160.918 51.7782C161.133 51.1503 162.25 50.1956 161.93 49.4386C161.476 48.3673 159.75 49.4505 159.917 47.5147C160.035 46.1285 161.632 45.1276 161.643 43.7635C161.651 42.787 160.802 42.7939 160.582 42.1595C160.364 41.5326 160.563 41.5349 160.881 41.0948C161.117 40.7676 161.271 40.6589 161.447 40.2736C161.661 39.8051 162.032 39.1984 161.892 38.6534C161.767 38.1634 161.242 37.8723 161.11 37.3293C160.612 35.2849 164.568 30.6394 165.576 33.4545C166.324 32.5094 167.305 30.5307 168.628 30.6893C169.428 30.7852 169.085 31.0343 169.363 31.5386C169.565 31.9044 170.123 32.0904 170.282 32.4863C170.595 31.4236 170.263 29.4541 171.134 28.6743C171.983 27.9142 172.517 29.2516 172.878 29.9957C173.111 29.2935 173.26 27.976 174.061 27.7242C174.919 27.4552 175.454 28.6267 175.872 29.2231C176.322 28.5252 177.166 26.4675 178.138 26.7183C178.867 26.9064 179.228 28.2351 179.568 28.8484C180.366 28.2764 181.623 26.8991 182.656 27.0448C183.662 27.1863 183.573 28.2156 184.749 27.7946C185.602 27.4889 186.488 26.6774 187.394 26.6166C188.348 26.5525 188.853 27.2827 189.913 27.1056C191.038 26.9176 191.21 26.6318 191.943 27.6347C192.306 28.1297 192.21 28.3468 192.838 28.4502C193.369 28.5381 193.834 28.1548 194.391 28.3964C194.804 28.5748 195.092 28.9915 195.264 29.4198C195.468 29.9257 195.232 30.802 195.435 31.2002C195.827 31.9655 197.306 31.2901 197.97 31.8218C198.866 32.5392 198.022 33.6283 198.499 34.4234C198.882 35.0615 199.961 34.8989 200.391 35.7604C200.78 36.5406 200.689 37.5716 200.237 38.2946C200.047 38.5983 199.514 38.8501 199.389 39.125C199.132 39.692 199.348 39.626 199.498 40.2056C199.784 41.3139 199.555 41.7322 198.772 42.4906C198.32 42.9291 198.225 42.8032 198.195 43.4697C198.172 43.9842 198.573 44.4611 198.498 45.0367C198.377 45.9719 197.534 46.5597 197.281 47.479C196.954 48.6624 196.061 49.31 195.388 50.2839C196.184 50.808 197.229 51.2422 197.615 52.2256C198.037 53.2985 197.958 54.8255 197.66 55.9137C197.373 56.9569 196.76 57.6225 196.17 58.4502C195.453 59.4581 195.514 60.2574 195.469 61.4874C195.376 64.088 194.353 66.4494 192.017 67.2755C191.09 67.603 190.253 68.0851 189.313 68.3904C188.163 68.7645 187.322 68.7949 186.129 68.7209C185.382 68.6749 184.509 68.4991 184.25 69.3619C184.12 69.7932 184.168 71.4718 184.345 71.8548C184.648 72.5108 185.507 72.4235 186.024 72.9909C186.957 74.0136 186.693 74.8854 188.268 74.9092C193.371 74.9868 198.457 74.5569 203.559 74.96C206.075 75.159 208.538 75.6338 211.064 75.7736C213.844 75.9269 216.632 75.9781 219.41 76.1625C222.032 76.3364 224.598 76.7114 227.235 76.563C229.697 76.4246 232.062 76.2402 234.514 75.9435C235.353 75.8417 236.652 75.9877 237.245 75.2875C237.573 74.8992 237.649 74.2337 237.977 73.8061C238.28 73.4116 238.69 73.1261 239.062 72.8181C239.963 72.0713 240.813 71.3998 242.002 71.4243C243.044 71.4461 243.874 72.2675 244.724 72.8716C245.709 73.5731 246.117 73.8953 247.285 73.6234C248.45 73.3527 249.518 72.8505 250.654 72.481C253.051 71.7022 255.297 70.5819 257.481 69.2532C258.556 68.5986 259.314 68.1584 260.553 68.5527C261.822 68.9565 262.183 69.354 262.199 70.7934C262.203 71.2504 262.044 72.0627 262.525 72.3267C262.874 72.518 263.643 71.9837 263.939 71.8433C265.249 71.2227 266.535 70.5763 267.905 70.1233C269.154 69.7096 270.42 69.3428 271.674 68.9479C272.725 68.6171 274.124 68.1386 275.17 68.7539C277.812 70.308 273.924 74.2572 272.915 75.571C274.174 75.2416 276.876 75.4296 277.538 76.9047C278.322 78.6508 276.751 80.382 275.864 81.6513C277.106 82.2685 279.614 81.7375 279.964 83.6815C280.258 85.3136 278.703 86.9573 277.689 87.9119C275.066 90.383 270.997 92.1129 267.533 92.1456C266.653 92.1539 265.797 91.9668 264.922 91.9212C264.282 91.8882 263.705 92.1298 263.083 92.1307C262.207 92.1317 261.43 91.9437 260.527 92.0789C259.485 92.2342 258.452 92.4252 257.405 92.5537C256.435 92.673 255.463 92.7817 254.489 92.8643C253.847 92.9195 252.879 92.7649 252.283 93.0002C251.511 93.3045 251.736 93.6088 251.673 94.4191C251.596 95.4144 251.134 96.3139 250.463 96.9774C248.023 99.3884 243.868 98.8094 242.641 95.2707C242.343 94.4102 242.739 93.9604 242.627 93.1845C242.514 92.4037 241.848 92.4301 241.197 92.3776C239.214 92.2173 237.206 92.2025 235.215 92.0524C231.36 91.7626 227.39 91.1724 223.538 91.2729C219.517 91.3773 215.471 91.1133 211.454 90.875C209.58 90.7637 207.639 90.0463 205.795 90.2013C203.835 90.3652 201.754 89.9045 199.785 89.6811C195.382 89.1815 190.467 89.0364 186.398 87.0395C186.72 91.8545 187.254 96.7428 183.675 100.334C182.176 101.839 180.291 103.562 178.325 104.204C175.79 105.031 173.361 105.716 170.781 106.33C165.985 107.471 161.219 110.202 156.892 112.655C154.857 113.808 152.469 114.258 150.262 114.905C149.212 115.213 148.027 115.619 146.925 115.576C145.839 115.534 145.085 114.728 144.127 114.247C143.21 116.606 141.971 118.766 141.048 121.094C140.59 122.249 140.229 123.477 139.696 124.595C139.289 125.446 138.631 125.904 138.569 126.891C138.418 129.288 138.819 131.789 138.712 134.213C138.594 136.857 138.218 139.54 137.996 142.187C137.516 147.908 137.74 153.667 137.351 159.395C136.995 164.628 137.218 169.821 136.686 175.059C136.538 176.512 136.375 177.964 136.268 179.423C136.198 180.38 135.713 182.583 136.17 183.441C136.37 183.816 136.85 183.857 137.171 184.044C137.672 184.338 138.127 184.787 138.502 185.253C139.292 186.239 139.481 187.413 139.661 188.669C140.684 188.069 144.973 184.986 144.331 188.362C144.132 189.409 143.262 189.974 142.575 190.642C142.072 191.131 141.592 191.651 141.056 192.1C140.695 192.402 139.93 192.778 139.756 193.272C139.445 194.156 141.052 195.417 141.811 195.407C142.877 195.394 144.208 193.648 145.111 193.092C147.508 191.614 147.291 194.805 146.388 196.193C145.706 197.239 146.282 197.159 147.22 197.371C148.686 197.704 150.04 197.987 151.531 198.19C154.378 198.578 157.181 198.077 160.007 198.795C162.821 199.51 164.494 201.427 164.904 204.588C165.121 206.257 165.324 205.419 166.608 205.811C167.795 206.173 168.465 207.653 169.147 208.657C170.51 210.66 173.058 215.707 170.971 218.068C170.084 219.071 167.932 218.816 166.766 218.988C166.015 219.098 165.111 219.48 164.354 219.282C163.634 219.094 163.155 218.391 162.636 217.875C162.629 221.046 162.611 223.8 160.31 226.089C158.453 227.936 155.97 228.784 153.48 228.597C151.04 228.414 148.534 227.33 146.988 225.189C146.172 224.059 145.591 222.673 145.381 221.249C145.284 220.594 145.256 219.904 145.35 219.245C145.406 218.853 145.747 218.143 145.53 217.765C145.15 217.103 143.29 217.654 142.676 217.721C141.055 217.9 139.439 218.123 137.824 218.359C136.489 218.554 135.127 218.762 133.788 218.485C132.636 218.248 132.196 218.113 132.404 219.6C132.82 222.591 132.126 225.245 129.873 227.085C127.617 228.925 125.536 229.29 122.778 228.805C120.258 228.362 117.953 225.765 117.219 223.181C116.242 219.741 117.249 216.608 119.602 214.26C118.175 213.47 117.229 213.004 116.725 211.181C116.199 209.275 116.691 207.271 116.939 205.36C117.474 201.256 117.266 197.262 117.45 193.145C117.53 191.329 117.874 189.48 117.879 187.668C117.882 186.635 117.83 186.672 116.856 186.664C116.252 186.659 115.611 186.704 115.357 185.936C114.743 184.082 117.624 184.238 118.349 183.5C119.213 182.62 118.616 179.148 118.591 177.926C118.509 173.958 118.868 170.081 118.939 166.123C118.971 164.335 119.071 162.455 118.935 160.673C118.881 159.962 118.508 159.388 118.533 158.68C118.565 157.774 118.725 156.927 118.682 155.984C118.306 147.69 118.224 139.242 119.199 131.002C119.257 130.509 119.576 129.398 119.405 128.903C119.147 128.152 118.325 128.418 117.75 128.143C116.144 127.375 115.747 126.154 115.659 124.368C115.607 123.309 115.556 122.25 115.506 121.191C115.48 120.647 115.454 120.102 115.427 119.558C115.396 118.928 115.633 118.219 115.62 117.689C115.615 117.519 115.548 117.265 115.547 117.164C115.361 117.065 115.288 116.918 115.329 116.725C115.32 116.543 115.347 116.365 115.409 116.193C115.418 116.296 115.297 115.609 115.286 115.669C115.303 115.575 115.618 115.018 115.587 114.95C115.44 114.635 115.128 115.018 115.024 114.43C114.937 113.937 115.231 113.356 115.132 112.778C114.868 111.236 115.118 109.852 115.317 108.291Z" fill="black"/>
<path fill-rule="evenodd" clip-rule="evenodd" d="M37.1286 132.509C54.9756 132.554 72.8645 133.035 90.6664 133.61C92.6282 133.674 94.5964 133.855 96.5591 133.947C96.9006 133.962 98.0236 133.806 98.2767 134.206C98.6883 134.857 97.7457 135.519 97.3017 135.816C95.7736 136.837 93.751 136.659 92.0192 136.723C89.63 136.812 87.2395 136.822 84.8491 136.785C76.5438 136.66 68.2346 135.971 59.9469 135.435C54.8419 135.104 49.7207 134.902 44.6084 134.738C42.0851 134.657 39.5596 134.612 37.0363 134.521C36.3549 134.497 35.1138 134.729 35.1135 133.751C35.1132 132.733 36.4751 132.565 37.1286 132.509Z" fill="black"/>
<path fill-rule="evenodd" clip-rule="evenodd" d="M58.4725 143.468C71.1012 144.062 83.7388 144.469 96.3687 145.019C97.1875 145.056 98.9305 144.792 99.2377 145.889C99.5577 147.029 98.2261 148.173 97.3449 148.468C96.2007 148.852 94.7438 148.637 93.5497 148.674C91.9426 148.723 90.4155 148.708 88.8139 148.59C82.7111 148.139 76.6183 147.553 70.514 147.101C67.0583 146.845 63.6051 146.542 60.1546 146.217C59.2344 146.13 56.5016 146.399 55.8571 145.581C55.46 145.076 55.8807 144.297 56.273 143.908C56.9193 143.268 57.6621 143.413 58.4725 143.468Z" fill="black"/>
<path fill-rule="evenodd" clip-rule="evenodd" d="M95.7352 158.54C91.6311 158.781 87.4814 158.426 83.4473 157.686C82.8976 157.585 81.6271 157.574 81.276 157.016C80.7393 156.166 81.7476 155.423 82.4256 155.348C84.3048 155.14 86.5391 155.856 88.4352 155.982C90.4185 156.114 92.4291 155.883 94.4172 155.866C95.5538 155.856 96.6902 155.847 97.8271 155.843C98.4937 155.841 99.4524 155.657 100.111 155.822C101.953 156.284 99.6101 157.977 98.7897 158.173C98.5049 158.24 95.7446 158.687 95.7352 158.54Z" fill="black"/>
<path fill-rule="evenodd" clip-rule="evenodd" d="M185.294 51.0611C185.321 50.5354 185.196 49.2066 185.792 48.9575C186.954 48.4717 186.877 51.5862 187.33 52.0247C188.993 53.6323 188.545 47.4384 190.129 49.436C191.416 51.0591 190.382 54.9703 188.571 55.6999C187.238 56.2372 186.33 55.2033 185.812 54.0057C185.8 53.978 185.079 51.0485 185.294 51.0611Z" fill="black"/>
<path fill-rule="evenodd" clip-rule="evenodd" d="M186.799 43.9693C187.601 43.8028 188.646 44.7125 188.155 45.5935C187.795 46.2379 185.36 47.2368 184.701 47.2537C183.891 47.2745 183.96 46.5713 184.218 45.8555C184.623 44.735 185.702 43.9568 186.799 43.9693Z" fill="black"/>
<path fill-rule="evenodd" clip-rule="evenodd" d="M40.5622 29.8566C40.8089 28.7357 41.1724 27.408 42.3878 28.4882C43.2039 29.2142 43.8005 31.0043 43.8825 32.1238C43.9806 33.4644 43.3065 34.1461 42.2167 33.3941C41.111 32.631 40.6893 31.2243 40.5622 29.8566Z" fill="black"/>
<path fill-rule="evenodd" clip-rule="evenodd" d="M14.227 43.9505C13.8317 46.9477 11.3966 44.1584 11.5063 42.33C11.5632 41.3786 12.0624 40.5988 13.0105 41.1695C13.8592 41.6807 14.1547 43.0249 14.227 43.9505Z" fill="black"/>
<path fill-rule="evenodd" clip-rule="evenodd" d="M152.865 219.116C153.046 218.372 153.086 216.84 153.874 216.514C155.04 216.031 155.546 218.147 155.585 218.999C155.628 219.922 155.332 221.884 154.121 221.721C153.129 221.587 153.063 219.924 152.865 219.116Z" fill="black"/>
<path fill-rule="evenodd" clip-rule="evenodd" d="M123.503 220.304C123.726 219.393 123.769 217.747 124.772 217.471C125.875 217.168 126.213 218.81 126.227 219.739C126.239 220.607 125.794 222.855 124.669 222.715C123.803 222.608 123.688 221.04 123.503 220.304Z" fill="black"/>
</svg>
