<svg width="599" height="450" viewBox="0 0 599 450" fill="none" xmlns="http://www.w3.org/2000/svg">
<path d="M0 0H598.84V449.13H0V0Z" fill="white" fill-opacity="0.01"/>
<path fill-rule="evenodd" clip-rule="evenodd" d="M363.641 291.374C362.701 305.16 343.995 312.327 332.649 315.268C334.923 301.744 337.86 287.725 336.033 274.009C335.431 269.492 334.642 264.998 333.794 260.521C333.48 258.865 333.157 257.212 332.822 255.56C332.741 255.158 332.083 253.401 332.292 253C332.667 252.284 335.841 252.396 336.65 252.428C338.733 252.507 340.778 253.034 342.685 253.867C346.692 255.617 350.068 258.629 352.85 261.954C359.41 269.795 364.35 280.979 363.641 291.374ZM341.984 197.664C331.124 204.094 318.043 207.545 305.657 209.227C286.789 211.79 267.523 208.84 249.076 204.752C244.546 203.749 240.026 202.667 235.564 201.397C235.363 214.471 239.04 226.903 246.224 237.805C252.162 246.82 259.913 254.353 266.687 262.703C272.994 270.475 278.08 279.243 278.333 289.503C278.438 293.784 278.086 297.702 274.501 300.476C270.899 303.264 266.033 304.298 261.625 304.933C250.587 306.524 239.027 305.664 228.058 303.913C225.929 303.573 223.803 303.186 221.701 302.702C219.314 302.153 218.478 301.505 216.485 303.296C212.184 307.162 210.211 312.96 209.237 318.506C207.411 328.893 208.03 341.01 210.662 351.259C213.197 361.131 225.164 366.603 234.029 368.989C260.768 376.185 290.27 366.247 310.788 348.555C311.235 348.169 311.678 347.778 312.112 347.376C313.569 350.411 315.16 353.392 316.9 356.274C318.11 358.279 319.383 360.294 320.909 362.079C321.46 362.723 322.107 363.594 322.86 364.016C324.262 364.801 325.688 364.224 327.275 363.948C338.986 361.915 350.669 359.241 361.804 355.029C378.733 348.627 393.915 338.079 401.939 321.418C405.992 313.002 408.105 303.781 409.128 294.534C410.302 283.916 410.555 273.062 407.567 262.713C402.092 243.748 388.123 228.374 372.825 216.516C363.359 209.177 352.953 202.547 341.984 197.664Z" fill="#70CDFF"/>
<path fill-rule="evenodd" clip-rule="evenodd" d="M533.33 72.0783C530.855 73.062 528.19 73.3356 525.557 73.528C523.492 73.6789 521.871 74.507 519.924 74.5538C514.506 74.683 509.063 74.9263 503.671 75.7363C498.254 76.5497 493.266 75.4871 488.989 79.5568C487.467 81.0048 485.559 82.6697 486.473 85.0072C486.893 86.0774 487.485 86.8452 487.833 87.9943C488.227 89.2932 488.717 90.5201 489.287 91.757C490.38 94.1289 495.855 102.963 491.412 104.044C486.596 105.215 480.063 103.846 475.424 102.506C472.717 101.724 470.052 100.807 467.384 99.9045C465.272 99.1898 462.497 98.7846 460.551 97.6653C459.26 96.922 458.992 95.6541 458.139 94.4494C456.587 92.2581 455.137 90.392 453.131 88.5686C448.971 84.7867 443.769 82.2188 438.639 79.9621C438.308 79.8153 437.704 79.4743 437.346 79.4404C436.96 79.4047 436.535 79.8024 436.286 79.7539C435.602 79.6211 435.363 79.1907 434.615 78.7655C433.609 78.1948 429.509 76.2948 428.792 77.7883C429.463 75.8263 429.953 76.3924 431.769 76.6772C432.569 76.8035 433.104 76.4369 433.822 76.4737C434.484 76.507 434.756 76.8842 435.31 76.986C436.323 77.172 437.267 77.0316 438.325 77.024C438.609 76.3965 439.013 76.4012 439.535 77.0374C439.827 77.1322 440.118 77.2263 440.41 77.3217C441.463 77.6106 442.59 77.555 443.668 77.6398C445.289 77.7685 449.51 79.7439 450.323 77.7445C451.19 75.6094 448.557 75.0772 448.118 73.5871C447.69 72.1251 449.696 71.2672 450.5 70.3847C451.417 69.3806 451.978 68.4993 453.054 67.6151C453.684 67.0958 454.51 66.6121 454.978 65.9203C455.408 65.2841 455.389 64.2554 455.947 63.7256C456.612 63.0934 456.714 63.5308 457.319 63.2255C458.504 62.6255 457.981 62.6559 458.682 61.8361C459.281 61.1355 459.724 61.1565 460.509 60.6197C461.657 59.8331 462.061 58.2965 463.177 57.4513C463.994 56.8325 465.294 56.8336 466.011 56.1909C466.433 55.8124 466.302 55.1989 466.667 54.8416C467.367 54.1549 467.847 54.4338 468.722 54.2074C470.196 53.8256 470.673 53.0107 471.759 52.0669C472.75 51.2052 473.38 51.209 474.621 50.8516C476.317 50.3638 477.413 49.086 478.942 48.3352C480.383 47.6289 481.871 47.1337 483.328 46.3813C484.381 45.8379 485.395 45.5006 486.356 44.946C486.681 44.7588 486.709 44.0733 487.127 43.9805C487.608 43.8734 487.992 44.6724 488.504 44.7143C489.575 44.8023 490.795 43.6136 491.499 42.9253C491.805 42.6263 492.219 41.8177 492.613 41.6507C493.436 41.3007 493.927 41.9937 494.661 41.7201C495.691 41.3363 495.281 40.2122 495.912 39.5923C496.464 39.0515 497.636 39.0881 498.616 39.2593C502.563 39.9476 496.419 42.7366 495.264 43.3007C493.321 44.2509 479.182 51.1628 482.489 54.6099C484.24 56.4333 488.512 55.0621 490.414 54.5817C493.75 53.7392 497.227 52.1172 500.648 51.745C501.071 51.6989 502.333 52.0017 502.677 51.8696C503.454 51.5722 503.26 50.9773 503.892 50.6644C504.843 50.1946 506.787 50.2175 507.752 50.323C508.507 50.4057 509.334 50.8564 510.101 50.7954C510.948 50.728 511.765 50.2361 512.604 50.0775C514.039 49.8071 515.525 49.9396 516.975 49.9815C519.059 50.0425 523.227 50.3575 520.198 53.1273C517.746 55.3691 513.505 56.3394 510.413 57.3177C505.838 58.7635 501.344 60.0793 496.828 61.7267C493.751 62.8483 487.187 64.8191 490.85 69.025C491.212 68.6835 491.574 68.3426 491.934 68.0011C492.362 68.4332 492.803 69.2742 493.488 69.2987C494.057 69.3186 493.848 68.7069 494.386 68.5157C496.078 67.9151 498.398 67.9607 500.182 67.8478C504.652 67.5648 509.105 66.9724 513.581 66.7888C517.796 66.6162 522.056 66.8408 526.188 67.725C527.251 67.9525 537.162 70.5555 533.33 72.0783ZM496.778 115.325C497.003 117.202 496.17 118.721 495.939 120.535C495.659 122.727 495.864 124.658 495.243 126.838C494.034 131.075 493.175 135.409 491.879 139.621C489.589 147.059 485.893 153.628 482.092 160.376C480.153 163.816 477.233 166.657 474.565 169.535C471.83 172.484 469.645 175.387 466.376 177.809C459.843 182.648 452.794 186.953 445.06 189.568C436.965 192.305 428.452 193.135 419.949 192.787C416.176 192.632 412.176 193.014 408.462 192.404C404.514 191.754 400.235 190.957 396.354 189.998C389.23 188.24 382.366 185.254 375.409 182.588C367.639 179.609 360.644 175.807 353.559 171.513C351.684 170.376 349.702 169.846 347.945 168.47C346.463 167.312 345.005 166.204 343.446 165.145C341.657 163.931 339.945 162.604 338.117 161.45C337.026 160.76 335.489 160.085 334.916 158.836C334.127 157.119 335.078 154.962 335.569 153.296C336.209 151.127 336.89 148.986 337.659 146.86C338.961 143.261 342.275 137.709 340.453 133.904C336.61 136.285 334.915 140.965 333.272 144.943C331.31 149.696 329.941 154.438 329.645 159.593C329.051 169.963 330.786 180.878 334.548 190.547C335.107 191.982 336.089 193.54 335.367 195.076C334.61 196.688 332.555 198.049 330.975 198.746C325.978 200.95 320.961 201.593 315.742 202.812C314.321 203.143 312.766 204.141 311.432 204.266C310.532 204.351 309.788 204.056 308.757 204.063C307.722 204.07 306.912 204.649 305.986 204.711C305.177 204.766 304.46 204.293 303.688 204.338C301.963 204.438 301.645 207.396 300.789 204.792C300.634 204.899 299.778 205.87 299.67 205.87C299.426 205.871 298.996 205.147 298.764 205.018C298.31 204.767 297.712 204.752 297.205 204.687C296.086 204.541 294.879 204.527 293.778 204.783C291.734 205.259 289.68 205.059 287.932 205.024C287.535 205.017 287.254 205.336 286.759 205.318C286.534 205.308 286.21 204.91 285.971 204.849C284.59 204.493 283.156 204.759 281.749 204.681C278.443 204.498 275.252 204.41 272.024 203.68C265.409 202.182 258.664 201.882 252.023 200.512C248.639 199.814 245.334 199.433 242.002 198.514C240.831 198.19 239.631 198.038 238.594 197.597C237.603 197.175 237.993 196.614 236.455 197.741C235.764 196.048 235.683 196.221 234.015 195.661C233.37 195.444 231.888 194.906 231.408 194.48C231.36 194.437 230.334 191.86 230.246 191.543C229.818 190.003 230.174 188.244 230.353 186.695C230.756 183.202 231.338 179.737 231.373 176.217C231.388 174.664 231.668 174.619 232.151 173.449C232.3 173.086 232.739 173.115 232.775 172.563C232.825 171.827 232.072 171.314 232.153 170.455C232.261 169.298 233.423 168.126 233.83 167.048C234.321 165.751 234.314 164.378 234.607 163.035C234.998 161.248 235.753 159.57 236.134 157.776C236.458 156.256 236.489 155.047 237.298 153.743C238.108 152.441 237.87 151.378 238.515 150.082C239.107 148.893 239.855 148.466 240.26 147.03C241.242 143.557 242.733 140.119 244.845 137.174C246.703 144.557 248.68 152.185 253.853 158.021C255.984 160.424 258.735 162.849 261.948 163.581C265.581 164.408 268.486 162.266 270.852 159.728C276.488 153.679 278.822 146.927 279.163 138.726C279.248 136.687 279.235 134.646 279.208 132.606C279.195 131.699 278.729 129.369 279.352 128.605C280.034 127.769 281.98 128.291 282.993 127.74C284.238 127.06 285.606 125.243 285.051 123.745C288.37 125.248 291.544 127.227 295.235 127.645C296.696 127.811 298.253 127.559 299.56 127.489C299.52 127.491 300.571 127.705 300.634 127.72C300.894 127.421 301.174 127.348 301.476 127.501C301.744 127.53 301.94 127.674 302.063 127.934C307.324 128.46 312.622 125.86 317.125 123.106C319.756 121.497 322.646 119.115 323.385 115.982C323.649 114.864 323.421 113.811 324.576 113.241C325.515 112.777 327.328 113.446 328.318 113.519C331.803 113.774 335.237 113.443 338.64 114.482C340.716 115.116 344.34 119.557 345.788 116.433C346.416 117.022 346.075 118.072 346.744 118.646C347.327 119.146 349.287 119.498 350.092 119.926C351.341 120.588 352.073 121.469 353.166 122.265C354.509 123.243 355.914 123.319 357.214 124.467C361.717 128.442 366.99 131.322 372.017 134.619C377.982 138.53 383.26 143.141 389.66 146.331C396.206 149.593 402.539 152.318 409.692 154.015C412.937 154.785 416.264 155.428 419.595 155.666C421.166 155.777 422.665 155.721 424.18 156.192C425.101 156.478 425.398 156.622 426.302 156.648C426.829 156.663 427.592 156.359 428.241 156.371C429.574 156.395 430.255 156.34 431.457 156.781C432.818 157.28 433.95 157.58 435.5 157.622C437.282 157.673 438.332 156.988 439.951 156.566C441.256 156.225 442.432 156.388 443.6 155.681C448.792 152.54 452.963 147.744 455.686 142.3C458.812 136.051 461.22 128.434 461.709 121.431C461.99 117.423 461.106 113.514 459.575 109.834C459.143 108.796 456.551 104.374 457.35 103.571C458.256 102.658 461.22 104.75 462.056 105.205C464.707 106.646 469.494 107.107 471.353 109.531C471.826 108.623 474.458 109.969 475.303 110.348C476.001 110.661 476.198 111.228 477.077 111.296C477.906 111.36 478.76 110.699 479.521 110.489C478.965 112.04 480.834 112.113 482.116 112.195C483.038 112.254 484.03 112.109 484.851 112.051C486.424 111.939 486.449 111.586 487.886 110.78C487.83 111.37 487.894 111.947 488.077 112.509C489 111.173 490.761 112.101 492.009 111.514C491.107 110.146 494.956 109.771 495.853 110.059C498.109 110.784 496.579 113.662 496.778 115.325ZM320.103 209.342C321.591 208.898 323.09 208.492 324.583 208.068C323.452 209.106 322.277 210.979 320.662 211.272C318.713 211.623 317.946 209.984 320.103 209.342ZM246.601 210.086C249.108 210.386 251.837 210.156 254.034 211.636C252.964 212.868 252.268 214.157 250.482 213.451C248.982 212.858 247.746 211.166 246.601 210.086ZM330.34 277.53C328.694 276.054 328.911 275.394 329.683 273.483C330.016 272.661 330.542 270.106 331.791 270.855C332.234 271.121 332.771 273.904 332.851 274.469C333.027 275.729 332.247 279.241 330.34 277.53ZM339.622 268.958C339.041 266.822 339.061 264.495 338.489 262.306C337.886 259.995 337.144 257.675 336.931 255.286C345.628 256.823 350.566 265.453 354.333 272.656C356.334 276.483 358.297 280.715 359.052 284.994C359.788 289.163 358.51 292.328 357.025 296.044C356.269 297.941 355.018 298.599 353.557 299.852C352.263 300.963 351.778 302.836 350.43 303.834C349.434 304.571 348.139 304.954 347.098 305.698C346.068 306.433 345.039 307.162 343.977 307.849C342.763 308.633 339.124 311.494 337.485 310.884C336.257 310.427 336.804 308.925 337.113 307.984C337.764 305.999 338.222 304.088 338.623 302.019C339.696 296.498 340.278 291.011 340.556 285.396C340.827 279.913 341.081 274.311 339.622 268.958ZM332.349 293.859C332.479 294.131 333.023 296.448 331.81 295.972C330.968 295.641 332.226 294.285 332.349 293.859ZM337.472 201.839C338.499 201.415 338.909 202.67 339.812 202.707C341.01 202.757 341.261 201.425 342.518 201.386C345.591 201.289 350.044 204.259 352.543 205.808C351.319 207.355 350.815 208.938 351.423 210.842C351.959 212.52 354.007 214.396 353.932 216.173C353.855 217.956 351.639 219.104 350.948 220.69C350.313 222.147 350.071 225.06 352.031 225.702C355.403 226.807 356.174 220.491 358.729 220.442C359.822 220.422 361.242 222.475 362.027 223.115C363.787 224.547 365.771 225.594 367.817 226.544C369.199 227.186 371.121 228.451 372.145 226.726C372.967 225.344 372.296 223.155 371.498 221.966C370.583 220.602 362.382 214.36 362.9 213.81C363.176 213.517 365.218 214.326 365.507 214.571C366.161 215.124 366.401 216.026 367.056 216.615C368.057 217.515 369.349 217.871 370.586 218.288C373.168 219.155 374.802 222.206 377.303 223.627C378.747 224.447 379.627 226.02 380.849 227.239C382.447 228.834 384.075 230.506 383.835 232.856C383.668 234.484 383.426 238.276 382.506 239.649C381.506 241.14 379.844 240.569 378.325 240.921C376.617 241.317 375.25 242.649 375.591 244.553C375.944 246.533 377.527 246.675 379.181 246.724C383.845 246.865 382.127 249.827 383.754 253.08C384.637 254.847 386.112 255.541 387.126 253.473C387.943 251.809 386.484 249.186 387.37 247.766C388.45 246.034 394.228 246.506 395.434 247.85C396.347 248.87 396.831 250.272 397.742 251.339C399.125 252.958 399.693 255.228 400.523 257.214C401.404 259.322 402.172 261.461 402.846 263.645C403.321 265.179 404.344 267.609 401.894 266.298C400.182 265.384 398.904 263.319 396.735 263.254C394.59 263.189 393.368 265.418 393.995 267.355C394.601 269.23 397.366 270.056 397.686 271.957C398.038 274.036 394.476 276.158 393.395 277.687C390.904 281.208 392.987 285.172 397.069 282.183C398.516 281.124 400.031 278.987 401.663 278.318C404.245 277.258 404.23 281.183 405.467 282.627C406.133 283.404 406.373 282.614 405.979 283.776C405.834 284.204 405.096 284.338 405.013 284.87C404.954 285.26 405.303 285.466 405.315 285.768C405.356 286.792 405.358 286.942 405.128 288.055C404.873 289.287 404.966 290.82 404.889 292.073C404.713 294.937 404.676 297.672 404.375 300.534C404.208 302.127 403.858 305.373 405.739 306.15C405.069 307.199 404.178 310.117 402.862 309.898C402.969 310.588 402.909 311.471 403.58 311.922C403.741 311.501 403.901 311.08 404.061 310.659C404.43 311.621 404.105 311.732 404.083 312.388C404.111 311.576 403.343 313.519 403.758 313.28C403.405 313.575 402.939 313.743 402.408 314.126C401.667 314.659 401.276 315.396 400.701 316.118C399.659 317.422 399.72 318.739 398.808 320.1C397.514 322.029 395.855 323.934 394.492 325.862C393.383 327.431 391.269 328.336 390.38 330.023C389.814 331.096 389.589 332.344 388.625 333.099C387.243 334.179 385.397 335.198 383.896 336.314C382.952 337.015 382.234 337.989 381.293 338.67C380.816 339.015 379.38 339.364 379.378 340.067C377.572 339.561 376.292 337.715 374.872 336.592C373.923 335.841 371.662 334.867 371.798 333.362C371.91 332.131 373.66 330.604 374.063 329.314C374.405 328.221 374.881 326.181 373.936 325.247C371.952 323.287 369.703 327.493 368.638 328.612C366.441 330.921 365.507 328.593 363.701 326.916C360.817 324.238 359.003 327.017 360.018 330.351C360.533 332.039 362.491 333.544 362.618 335.268C362.758 337.162 360.706 338.115 359.893 339.628C359.127 341.056 358.772 343.563 360.214 344.744C361.804 346.047 363.186 344.506 364.226 343.303C365.034 342.369 365.931 340.313 367.243 340.196C368.886 340.051 371.581 343.036 372.831 343.957C370.932 344.506 369.789 346.097 368.183 347.116C366.111 348.43 363.218 348.742 360.899 349.644C358.714 350.495 356.749 351.187 354.669 352.242C352.2 353.494 349.181 353.807 346.567 354.718C344.233 355.532 342.019 356.673 339.636 357.345C336.949 358.103 334.161 358.558 331.452 359.243C329.135 359.828 326.418 360.39 324.031 360.394C321.617 360.399 321.667 358.904 320.895 356.911C319.977 354.545 318.458 352.468 317.489 350.159C316.567 347.963 317.959 347.129 319.295 345.449C320.553 343.865 320.22 343.618 321.842 344.73C323.978 346.193 325.389 345.203 327.05 343.52C328.528 342.025 329.071 340.781 331.198 341.823C333.327 342.865 335.354 344.561 337.641 345.241C339.443 345.776 340.785 345.387 341.087 343.416C341.412 341.287 340.198 339.776 338.668 338.511C337.503 337.55 334.958 336.408 334.533 334.847C334.084 333.203 336.447 330.804 336.699 328.965C337.017 326.644 336.018 324.937 333.816 326.544C332.218 327.71 331.155 330.238 328.937 330.395C329.552 327.81 330.889 325.514 332.035 323.145C332.996 321.163 333.82 318.912 336.399 318.691C337.235 318.62 337.779 318.707 338.577 318.563C339.63 318.374 341.059 318.223 342.185 317.939C344.835 317.269 347.174 315.224 349.614 314.051C350.173 315.556 351.163 319.843 353.441 317.341C355.125 315.489 353.259 312.302 354.811 310.243C358.013 305.993 364.986 309.113 369.193 306.922C371.024 305.968 372.514 302.926 369.933 302.009C368.424 301.473 364.068 303.451 363.16 301.993C362.513 300.953 365.224 296.889 365.552 295.772C366.572 292.296 366.406 288.687 366.406 285.107C368.453 285.945 371.043 287.905 373.249 288.173C375.517 288.449 375.916 285.786 375.321 284.037C374.502 281.627 371.773 279.652 369.902 278.099C369.077 277.415 366.918 276.314 366.466 275.273C365.999 274.199 366.668 273.678 367.192 272.745C368.01 271.286 369.994 267.515 367.835 266.148C365.85 264.89 364.736 268.415 363.471 269.169C361.325 270.449 360.589 267.518 359.736 266.026C358.187 263.317 356.04 260.9 354.113 258.464C352.359 256.245 351.278 254.744 351.022 251.918C350.828 249.777 350.39 248.12 352.914 247.633C357.389 246.771 363.941 248.896 367.576 245.254C369.482 243.345 368.12 241.37 365.713 241.469C362.551 241.598 359.545 241.754 356.362 241.497C354.67 241.361 351.133 241.772 350.279 240.028C349.18 237.783 351.044 234.175 349.019 232.207C346.435 229.694 345.802 235.373 345.716 236.941C345.653 238.084 345.946 239.823 345.236 240.811C344.572 241.733 343.36 241.719 342.379 242.053C339.909 242.893 338.633 245.928 341.91 246.57C343.012 246.787 344.55 246.472 345.466 247.29C346.425 248.145 346.059 249.666 346.149 250.819C343.853 248.158 339.081 249.337 335.972 248.349C334.334 247.828 334.058 247.135 333.369 245.549C332.535 243.629 330.635 241.203 330.562 239.08C330.501 237.278 332.002 235.922 332.702 234.369C333.303 233.036 333.847 230.867 333.758 229.372C333.543 225.765 327.037 229.447 325.696 230.827C323.264 233.332 320.265 236.571 321.584 240.119C322.76 243.285 323.384 245.08 319.303 244.831C317.81 244.74 314.673 245.036 313.514 244.405C312.653 243.937 312.977 243.097 312.948 241.881C312.924 240.827 313.004 239.23 312.328 238.309C309.947 235.07 309.391 243.13 308.054 244.003C305.966 245.369 301.546 243.938 301.886 247.99C302.185 251.535 306.977 250.087 308.302 253.138C308.94 254.607 308.805 256.318 309.609 257.736C310.754 259.757 312.164 259.65 312.924 257.543C313.457 256.062 312.746 254.541 313.157 253.145C313.749 251.125 316.57 251.313 318.306 251.085C320.415 250.807 322.254 250.276 324.261 249.627C326.736 248.825 326.601 250.141 327.004 252.045C327.472 254.254 328.187 256.384 328.625 258.626C329.034 260.716 330.117 262.966 330.294 265.057C330.428 266.656 329.887 266.51 328.564 267.433C327.116 268.441 325.524 271.062 323.845 271.493C321.319 272.142 318.773 266.367 316.476 269.322C315.488 270.59 315.87 273.291 316.572 274.602C317.499 276.333 319.203 276.774 317.775 278.757C316.701 280.248 315.352 281.402 315.252 283.407C315.157 285.269 316.423 287.03 318.402 286.483C320.001 286.042 320.946 284.404 322.156 283.41C324.246 281.693 325.962 283.283 328.101 284.255C329.785 285.02 332.88 285.518 333.724 287.317C334.797 289.6 333.422 290.482 331.43 289.833C332.206 292.385 331.185 293.868 330.904 296.505C330.678 298.64 330.187 300.593 329.874 302.658C329.459 305.414 329.415 305.115 326.579 305.209C324.169 305.288 321.827 305.224 319.42 305.118C317.3 305.025 315.858 305.217 315.763 302.658C315.721 301.529 316.432 297.7 314.207 298.16C312.247 298.564 312.812 302.063 312.156 303.377C311.208 305.28 309.604 304.698 307.82 305.168C306.005 305.646 304.537 306.987 305.005 309.058C305.506 311.269 307.532 311.115 309.294 311.627C312.006 312.414 311.411 316.405 312.994 318.573C313.64 319.457 314.321 320.351 315.405 319.625C317.394 318.293 315.517 315.04 316.042 313.408C316.595 311.692 318.459 312.043 320.22 311.821C322.821 311.492 325.542 310.238 328.133 310.253C327.637 311.749 326.245 312.618 325.744 314.192C325.475 315.036 325.726 316.612 325.353 317.31C324.952 318.059 323.689 318.284 323.166 319.327C322.482 320.692 322.27 322.155 321.47 323.492C319.577 326.655 317.948 329.888 315.936 333.019C313.859 336.251 311.62 339.328 309.007 342.13C306.472 344.85 305.716 343.533 303.537 341.31C302.651 340.405 300.767 339.358 300.521 338.007C300.277 336.675 301.379 335.588 301.982 334.504C302.782 333.066 304.225 330.593 303.874 328.869C303.213 325.63 300.319 328.612 299.221 329.824C297.304 331.942 296.233 334.169 293.335 332.496C291.481 331.425 289.142 328.493 286.708 329.578C284.493 330.565 285.113 333.416 286.476 334.863C287.24 335.674 288.328 336.137 289.138 336.896C290.882 338.531 289.894 338.975 289.099 340.806C288.447 342.305 288.353 345.252 289.554 346.501C291.917 348.957 293.744 344.002 295.937 343.901C296.976 343.854 301.298 346.69 301.606 347.711C302.146 349.502 297.484 351.641 296.245 352.482C293.364 354.438 290.225 356.431 286.984 357.728C283.16 359.258 286.01 354.436 283.92 352.833C281.2 350.749 280.99 356.459 280.711 357.878C279.969 361.651 275.984 361.749 272.768 362.685C270.722 363.281 268.673 363.914 266.605 364.432C264.85 364.872 262.885 364.861 261.184 365.406C259.692 365.883 258.671 366.852 257.003 366.864C256.46 366.868 255.989 366.683 255.465 366.671C254.41 366.645 253.443 367.249 252.434 367.186C250.757 367.082 251.487 366.553 250.903 365.382C250.355 364.284 248.961 363.88 247.876 363.537C244.765 362.554 242.176 363.416 241.724 359.46C241.585 358.246 241.769 353.259 239.458 353.842C236.76 354.521 239.134 360.449 237.459 361.934C236.644 362.657 235.414 362.296 234.431 362.51C232.818 362.861 232.111 364.079 230.346 363.997C228.856 363.928 227.47 363.267 226.171 362.61C224.236 361.631 221.927 360.982 220.314 359.488C218.102 357.439 217.132 354.249 216.189 351.48C214.802 347.4 214.211 343.335 213.988 339.057C213.91 337.566 213.277 336.515 213.012 335.146C212.731 333.691 213.562 333.399 213.754 332.021C213.94 330.68 213.849 329.249 214.131 327.813C214.537 325.748 214.678 323.635 215.071 321.564C215.721 318.139 216.707 314.737 217.517 311.343C217.768 310.288 218.224 306.908 219.525 306.583C220.485 306.343 222.702 307.773 223.592 308.193C225.351 309.023 226.864 310.169 228.746 310.744C229.718 311.04 230.944 311.011 231.581 311.913C232.589 313.34 231.774 316.136 232.192 317.822C232.703 319.887 234.395 320.766 235.759 318.691C236.486 317.586 236.293 316.267 236.39 315.045C236.529 313.283 236.56 312.856 238.467 312.975C240.399 313.096 242.285 313.825 244.266 313.914C246.052 313.994 247.846 313.945 249.631 313.847C253.964 313.609 257.926 312.905 261.989 311.362C264.742 310.317 267.934 308.032 270.967 308.113C275.249 308.226 274.09 312.191 274.676 315.156C275.033 316.961 278.052 322.502 279.211 318.005C279.784 315.781 277.874 312.538 279.006 310.529C280.343 308.156 285.257 310.125 287.493 309.576C289.302 309.13 292.326 306.565 291.048 304.351C290.443 303.303 289.268 303.502 288.22 303.423C286.233 303.275 284.26 303.003 282.29 302.713C281.169 302.548 279.456 302.452 279.008 301.165C278.628 300.072 280.411 297.24 280.798 296.195C282.078 292.734 282.539 289.92 282.545 286.147C282.546 284.447 282.657 282.653 282.384 280.971C282.283 280.355 281.359 278.342 281.791 277.753C282.374 276.961 283.566 277.967 284.044 278.56C284.994 279.743 284.664 279.649 284.124 280.874C283.328 282.677 281.783 286.459 284.404 287.847C287.146 289.298 288.137 284.393 290.734 284.931C291.945 285.182 293.141 286.774 294.117 287.518C295.259 288.389 296.493 289.313 297.836 289.848C300.038 290.725 302.514 290.068 301.624 287.297C300.922 285.112 298.702 283.284 297.114 281.735C294.585 279.268 294.699 278.231 296.447 275.325C297.178 274.108 299.986 268.943 296.731 268.523C295.009 268.301 293.145 271.094 292.235 272.163C290.673 273.998 289.778 274.785 287.454 273.312C285.183 271.873 284.128 270.669 281.381 270.536C278.22 270.384 276.798 265.634 275.122 263.195C270.57 256.569 263.6 253.292 257.723 248.215C254.859 245.741 252.926 242.504 250.748 239.458C249.711 238.007 248.372 236.802 247.527 235.222C246.995 234.228 245.555 231.832 245.929 230.659C246.396 229.198 248.915 228.297 249.962 227.265C250.842 226.401 251.311 225.322 252.695 225.652C253.926 225.947 255.035 227.613 256.041 228.345C257.029 229.064 258.144 229.73 259.239 230.268C261.22 231.24 263.612 231.759 263.729 228.803C263.83 226.246 261.498 223.508 259.813 221.782C258.586 220.527 256.729 219.436 256.972 217.442C257.092 216.453 257.932 214.693 258.422 213.864C260.112 211.009 265.27 212.751 268.073 212.934C271.45 213.155 275.173 212.587 277.857 214.977C278.733 215.757 280.762 217.288 281.192 218.372C281.692 219.635 280.875 220.203 280.421 221.425C279.834 223.004 279.431 226.123 281.12 227.212C283.94 229.029 285.41 223.639 288.342 224.817C291.121 225.936 293.065 229.15 296.238 229.659C300.391 230.325 298.026 225.177 296.589 223.662C294.725 221.699 291.111 219.668 292.294 216.765C292.632 215.935 293.404 214.204 294.099 213.689C295.459 212.68 297.652 213.234 299.209 213.25C303.14 213.292 306.85 212.969 310.702 212.282C311.864 212.074 312.128 211.91 312.946 212.775C314.08 213.972 314.674 215.532 315.993 216.709C314.088 218.761 311.266 221.184 312.59 224.343C313.729 227.061 316.226 225.727 317.915 224.275C318.709 223.593 319.528 222.15 320.58 221.877C321.945 221.521 323.479 222.761 324.596 223.391C326.273 224.336 329.86 227.139 331.765 225.484C334.285 223.296 331.303 220.003 329.568 218.652C328.518 217.834 327.12 217.251 326.236 216.242C325.061 214.9 325.75 214.703 326.462 213.493C327.766 211.279 327.288 208.427 329.373 206.698C330.53 205.739 332.183 205.136 333.503 204.433C334.803 203.74 336.198 202.366 337.472 201.839ZM358.719 210.449C358.212 210.139 357.705 209.828 357.198 209.517C358.358 208.952 359.122 209.02 358.719 210.449ZM386.699 237.351C386.903 236.318 387.7 234.469 388.797 235.436C389.504 236.057 388.732 238.39 390.412 237.745C390.499 239.231 389.392 239.104 391.025 240.426C388.965 240.188 386.122 240.281 386.699 237.351ZM306.75 362.624C307.268 361.232 307.264 359.074 308.861 360.346C308.944 358.66 308.546 353.316 311.605 353.533C312.853 353.621 312.839 354.722 313.169 355.675C313.743 357.338 314.714 358.852 315.532 360.402C312.496 360.525 309.458 361.22 306.75 362.624ZM307.744 381.833C309.479 383.144 310.349 381.596 311.987 381.031C313.498 380.51 315.067 380.822 316.742 380.452C318.819 379.994 321.266 380.063 323.295 380.045C323.795 380.041 324.841 380.12 325.346 380.178C326.266 380.284 326.184 380.474 327.137 380.73C327.505 380.646 327.876 380.584 328.252 380.546C328.711 380.525 329.074 380.716 329.34 381.116C330.196 381.402 330.508 381.212 331.328 381.412C333.282 381.889 334.741 383.066 336.017 384.627C338.615 387.804 338.692 392.578 338.633 396.51C338.616 397.63 338.53 398.744 338.654 399.861C338.767 400.886 339.491 402.434 339.196 403.452C338.747 404.993 337.36 404.647 335.743 404.716C334.792 404.756 333.842 405.37 333.085 405.425C332.352 405.478 332.057 405.207 331.316 405.041C329.382 404.609 327.1 405.226 325.193 405.752C323.235 406.293 321.519 406.826 319.534 407.208C318.242 407.457 317.08 407.598 315.777 407.761C314.709 407.895 314.248 408.457 313.316 408.689C312.417 408.912 311.54 408.578 310.633 408.753C309.397 408.992 308.536 409.899 307.409 410.351C305.857 410.974 303.375 410.043 302.686 411.963C302.417 410.112 300.641 410.614 299.319 410.451C297.141 410.181 294.994 409.203 292.899 408.58C291.18 408.069 285.24 403.361 284.103 405.272C284.104 405.079 284.311 403.984 284.131 403.858C283.497 403.412 283.503 403.657 282.82 403.378C281.776 402.951 281.336 402.566 280.59 401.846C279.081 400.391 277.05 399.631 275.46 398.311C271.466 394.996 270.099 388.167 269.125 383.414C267.85 385.673 268.319 382.774 268.54 381.805C269.061 379.52 268.391 378.392 268.239 376.185C268.099 374.153 269.025 373.751 270.859 373.539C273.118 373.277 275.293 372.912 277.505 372.348C279.618 371.809 281.689 371.202 283.596 370.13C285.341 369.15 287.172 368.765 288.956 367.907C290.924 366.96 292.854 365.965 294.839 365.043C295.734 364.628 299.674 361.654 300.358 361.835C301.762 362.207 300.437 364.666 300.009 365.312C298.909 366.969 297.102 367.738 295.473 368.781C294.003 369.721 289.546 374.175 294.071 373.729C297.069 373.433 299.1 370.29 301.019 373.871C301.696 375.136 302.692 376.151 301.914 377.458C300.827 379.281 297.691 380.15 296.047 381.377C294.646 382.423 291.779 387.353 294.668 387.882C295.499 388.033 296.779 387.837 297.396 387.191C297.813 386.756 297.783 385.86 298.205 385.563C298.802 385.14 299.961 385.663 300.643 385.432C301.613 385.101 301.841 384.571 302.198 383.639C303.235 384.112 303.25 384.746 304.433 384.136C304.826 383.934 304.97 383.191 305.425 382.993C306.035 382.727 306.217 383.599 306.552 383.471C307.46 383.123 307.456 382.73 307.744 381.833ZM245.513 367.332C243.774 367.462 241.876 367.602 240.392 366.494C242.194 366.603 243.784 367.01 245.591 366.637C246.309 366.489 247.459 365.811 248.194 366.047C250.809 366.886 246.209 367.279 245.513 367.332ZM240.684 214.375C240.659 213.763 240.14 205.535 242.95 208.767C243.72 209.651 242.89 210.835 242.781 211.813C242.596 213.461 243.174 215.113 244.042 216.5C244.852 217.795 246.364 218.928 246.138 220.616C245.939 222.096 244.445 223.361 243.708 224.589C241.898 221.736 240.83 217.809 240.684 214.375ZM234.507 128.02C227.994 128.705 221.513 129.918 215.234 131.79C209.068 133.627 203.321 136.5 197.527 139.253C196.333 134.14 195.083 129.041 193.903 123.924C193.336 121.461 192.794 118.992 192.263 116.521C191.884 114.764 190.509 111.488 191.083 109.76C191.388 108.844 191.789 108.84 192.444 108.274C192.844 107.929 193.542 107.085 193.956 106.904C194.966 106.465 197.56 106.08 198.593 106.143C199.535 106.199 200.028 106.574 200.997 106.303C201.822 106.072 202.515 105.437 203.289 105.089C205.259 104.203 207.719 103.906 209.826 103.437C211.854 102.986 213.948 102.886 215.981 102.439C217.761 102.047 218.607 100.737 220.126 100.784C224.078 100.907 228.448 100.444 232.369 99.4998C236.769 98.4407 241.555 98.6454 246.068 98.5319C247.866 98.4869 249.13 98.0822 249.139 100.085C249.15 102.528 248.174 105.271 247.676 107.657C246.572 112.946 245.637 118.087 245.219 123.457C245.01 126.143 243.909 125.956 241.725 126.78C239.295 127.696 237.091 127.748 234.507 128.02ZM200.263 182.282C201.868 182.519 201.684 178.13 201.801 177.237C205.628 184.453 209.937 191.398 213.308 198.85C214.096 200.593 214.811 202.376 215.644 204.098C216.214 205.277 217.489 206.859 217.458 208.231C217.426 209.662 216.27 210.197 215.052 210.728C213.735 211.301 213.221 211.587 212.293 210.924C211.17 210.121 210.233 207.649 209.539 206.457C208.48 204.637 207.466 202.791 206.429 200.96C204.55 197.639 202.332 194.459 200.788 190.973C199.342 187.707 197.154 184.896 195.595 181.688C194.051 178.511 191.938 175.499 190.163 172.389C191.946 171.647 194.167 169.794 196.192 169.897C198.284 170.003 198.233 172.023 198.324 173.704C198.419 175.49 197.822 181.921 200.263 182.282ZM205.402 214.885C204.448 216.017 202.295 216.682 200.976 217.31C199.147 218.18 197.276 218.954 195.457 219.841C189.488 222.754 183.544 225.42 177.463 228.095C174.32 229.477 171.215 230.947 168.148 232.49C166.541 233.298 163 236.131 161.152 236.203C159.032 236.285 158.983 232.006 158.516 230.401C158.123 229.057 157.395 228.012 156.905 226.739C156.706 226.218 156.861 225.824 156.557 225.309C156.211 224.722 155.24 224.248 154.742 223.743C152.623 221.591 150.868 218.852 149.079 216.429C147.44 214.209 144.645 211.43 143.859 208.709C142.313 203.361 151.293 200.401 154.729 198.252C160.744 194.49 166.789 190.626 172.523 186.446C175.135 184.542 177.692 182.562 180.317 180.675C181.543 179.795 184.937 176.37 186.51 177.59C187.095 178.045 187.106 179.302 187.351 179.961C187.885 181.402 188.695 182.659 189.516 183.951C190.246 185.095 191.282 186.278 191.738 187.554C192.281 189.077 192.256 189.939 193.25 191.304C195.059 193.787 195.912 196.652 197.594 199.184C199.215 201.625 200.772 203.425 201.832 206.153C202.441 207.716 203.4 209.103 204.248 210.54C204.648 211.219 205.065 211.886 205.423 212.589C206.064 213.845 206.29 213.829 205.402 214.885ZM154.094 235.773C152.946 236.594 151.257 235.214 150.144 235.195C149.66 235.187 149.179 235.564 148.856 235.554C147.884 235.525 147.089 234.871 146.193 234.567C142.061 233.161 137.133 233.108 133.603 230.253C126.589 224.58 129.933 213.199 131.21 205.825C131.47 204.322 131.939 202.24 130.724 201.008C129.393 199.659 127.39 200.464 126.171 201.556C124.921 202.676 124.07 204.244 123.031 205.552C121.376 207.634 119.568 209.603 117.743 211.535C111.258 218.403 104.391 226.261 96.3687 231.301C93.0324 233.397 90.0125 236.238 86.3557 237.836C81.9568 239.757 86.4727 232.339 87.2633 231.133C92.4406 223.244 99.9781 216.999 106.308 210.073C107.503 208.766 109.199 207.004 109.22 205.121C109.253 202.293 106.755 202.547 104.781 203.332C102.934 204.066 102.009 205.894 100.523 207.142C98.6729 208.697 96.5114 209.958 94.4523 211.213C90.0113 213.919 85.2972 216.19 80.5971 218.404C78.3989 219.44 76.1901 220.453 73.9812 221.467C73.3748 221.745 69.7514 224.044 69.9245 222.073C69.9479 221.808 72.2596 219 72.545 218.896C73.9684 218.376 74.6742 219.947 75.9409 217.888C76.8409 216.426 76.9655 215.668 78.2363 214.558C78.4527 214.37 78.6012 213.893 78.7766 213.583C78.755 213.7 79.7205 212.761 79.5357 212.924C79.7895 212.7 80.158 212.289 80.3638 212.02C81.3574 210.723 83.2668 210.699 84.1299 209.216C84.4592 208.652 84.2726 207.928 84.6697 207.367C85.2259 206.582 86.4493 206.247 87.1019 205.556C87.6616 204.962 88.123 204.477 88.4704 204.114C88.7095 203.864 89.1294 203.689 89.4125 203.402C90.1172 202.689 90.0616 202.058 91.0476 201.459C91.933 200.921 92.34 201.424 92.6464 200.093C93.7237 200.783 93.5886 199.773 94.026 199.049C94.5944 198.107 95.3167 197.687 96.1003 197.006C97.8243 195.507 99.4407 193.274 100.907 191.387C104.555 186.692 107.506 181.203 108.592 175.314C108.853 173.906 108.996 172.483 109.099 171.055C109.154 170.304 108.909 168.475 109.374 167.739C110.096 166.598 111.467 167.051 112.509 166.552C112.864 166.382 113.213 165.882 113.546 165.768C114.011 165.609 114.58 165.764 115.062 165.611C115.25 165.552 115.293 165 115.603 164.929C116.211 164.79 116.815 165.011 117.416 165.019C118.732 165.037 120.03 164.805 121.291 164.386C122.439 164.005 123.399 163.131 124.544 162.815C124.427 162.848 126.431 163.007 126.323 162.894C126.419 162.401 126.515 161.907 126.611 161.414C127.372 161.945 129.966 162.646 130.77 162.525C132.064 162.329 131.791 161.163 132.888 162.695C133.509 162.153 134.13 161.612 134.75 161.07C135.22 163.043 138.459 162.086 139.927 162.195C141.995 162.349 143.624 161.961 145.509 162.681C147.802 163.558 149.812 164.482 152.281 164.721C154.006 164.888 154.724 165.699 156.414 166.2C158.685 166.872 158.865 167.613 158.154 169.934C157.578 171.816 157.081 173.267 157.922 175.198C159.415 178.622 163.472 180.033 166.088 182.399C159.96 186.699 153.911 190.93 147.988 195.513C145.506 197.432 142.867 199.355 141.453 202.243C140.15 204.908 139.41 208.111 138.626 210.965C136.827 217.506 141.895 221.909 147.102 224.786C148.179 225.381 155.6 234.695 154.094 235.773ZM143.988 243.68C143.621 242.422 143.669 242.086 144.884 241.635C145.344 241.464 147.106 241.241 147.391 241.872C148.037 243.303 144.643 243.285 143.988 243.68ZM195.621 152.509C196.056 155.301 196.484 158.093 196.873 160.891C197.087 162.438 197.573 163.805 196.421 164.971C195.767 165.633 194.18 165.88 193.344 166.233C192.139 166.742 190.965 167.325 189.806 167.932C187.74 169.014 185.581 169.665 183.542 170.641C182.655 171.065 182.129 171.9 181.361 172.476C180.311 173.264 179.033 173.648 177.949 174.397C176.011 175.738 174.236 177.326 172.3 178.675C170.106 180.205 169.649 179.714 168.417 177.454C167.311 175.424 165.983 174.499 164.391 172.908C163.772 172.289 161.555 168.763 163.438 168.46C163.92 168.382 165.587 169.107 165.965 169.339C166.538 169.691 167.455 171.693 167.922 171.727C168.762 171.788 169.838 169.395 170.362 168.765C173.794 164.634 177.57 160.547 181.547 156.933C183.609 155.06 185.774 153.353 188.111 151.84C189.773 150.765 191.223 149.259 192.862 148.239C193.209 147.939 193.601 147.724 194.042 147.596C194.897 147.208 195.218 147.543 195.005 148.601C195.495 149.637 195.442 151.366 195.621 152.509ZM120.545 148.85C121.378 148.001 122.432 147.322 123.16 146.374C123.57 145.84 123.841 144.884 124.311 144.538C125.128 143.936 126.298 144.213 127.249 143.406C128.167 142.625 128.973 141.69 129.87 140.881C131.815 139.126 133.821 137.513 135.729 135.727C136.813 134.712 137.95 133.395 138.913 132.725C139.169 132.547 139.455 132.283 139.726 132.146C140.306 131.853 140.596 132.151 141.443 131.879C142.003 131.699 142.403 130.99 142.852 130.654C143.92 129.856 145.312 129.541 146.34 128.773C147.368 128.005 147.863 126.812 149.278 126.172C150.99 125.398 152.273 126.01 153.511 124.529C154.015 123.925 154.153 123.164 154.946 122.784C155.9 122.325 156.738 122.812 157.65 122.29C158.264 121.938 158.684 121.2 159.319 120.815C160.454 120.128 161.711 120.054 162.773 119.204C163.67 118.486 163.172 118.56 164.233 118.257C164.7 118.123 165.218 118.066 165.716 117.896C167.312 117.352 169.918 116.685 170.863 115.171C171.343 115.871 171.507 116.013 172.286 115.796C172.694 115.463 173.069 115.098 173.411 114.698C173.661 115.015 173.93 115.034 174.217 114.755C175.901 114.176 177.446 113.181 179.105 112.629C179.34 112.756 179.575 112.884 179.81 113.01C180.137 113.028 180.269 112.868 180.207 112.53C180.86 112.411 181.612 112.124 182.213 111.862C183.367 111.36 184.64 110.165 185.999 110.593C188.267 111.306 188.376 115.935 188.767 117.768C189.732 122.288 190.703 126.807 191.672 131.325C192.066 133.165 192.412 135.017 192.931 136.825C193.27 138.006 194.114 139.748 193.809 141.005C193.436 142.544 191.933 143.045 190.677 143.758C188.946 144.739 187.272 145.828 185.633 146.958C178.677 151.757 173.491 158.356 168.559 165.126C167.645 163.798 165.197 161.933 163.671 161.335C162.603 160.916 161.642 161.253 160.578 160.742C159.819 160.377 159.19 159.664 158.472 159.205C154.092 156.4 148.806 154.081 143.73 152.968C133.314 150.684 123.117 154.221 113.017 155.9C115.066 153.082 118.13 151.306 120.545 148.85ZM190.266 72.39C192.049 66.58 195.05 60.9553 199.322 56.5971C201.476 54.3999 204.008 52.4794 206.845 51.2578C209.314 50.1958 212.249 49.1771 212.211 52.5923C212.128 60.0062 210.415 67.3361 210.206 74.762C210.003 82.0387 211.221 87.8797 215.624 93.7436C212.834 94.3915 210.045 95.0488 207.266 95.7383C205.155 96.2617 202.966 96.8489 200.969 97.2085C198.994 97.5629 197.178 97.7945 195.226 98.4618C193.911 98.9115 191.849 100.286 190.425 99.9881C188.058 99.4922 188.619 91.0014 188.497 88.9616C188.156 83.2007 188.566 77.9345 190.266 72.39ZM233.522 83.5761C236.756 79.6509 240.115 75.0719 245.555 74.3433C250.815 73.6386 252.754 79.9469 252.419 84.2007C252.306 85.6399 252.092 89.3774 251.047 90.5435C249.89 91.8336 247.837 90.8611 246.367 90.6622C240.023 89.8031 233.519 91.2371 227.158 91.2371C229.279 88.6827 231.411 86.1382 233.522 83.5761ZM259.552 99.2284C261.758 99.5448 263.52 99.8811 262.455 102.393C260.322 107.424 258.683 112.225 260.553 117.709C261.98 121.898 266.5 126.982 271.016 127.821C272.599 128.115 274.98 127.589 275.953 129.197C276.819 130.629 275.88 134.923 275.779 136.513C275.404 142.437 273.887 148.315 270.053 152.969C266.641 157.111 262.478 160.352 257.517 156.443C253.334 153.148 250.865 147.254 249.627 142.216C248.966 139.527 248.886 136.844 248.76 134.096C248.648 131.666 248.185 130.124 250.933 129.62C251.67 129.486 253.51 129.528 253.513 128.403C253.517 126.892 251.521 127.459 250.758 127.382C247.814 127.089 249.193 123.665 249.468 121.451C249.935 117.681 250.692 113.953 251.386 110.22C251.978 107.041 252.009 102.875 253.293 99.9033C254.043 98.1676 258.079 99.0173 259.552 99.2284ZM264.971 110.393C265.306 108.344 265.484 105.783 267.518 104.65C269.751 103.406 270.87 105.433 271.973 107.09C274.897 111.485 278.133 115.598 278.612 121.055C278.67 121.705 278.949 123.012 278.322 123.462C278.042 123.663 277.373 123.133 276.94 123.164C274.624 123.331 272.949 123.952 270.677 122.644C266.233 120.084 264.163 115.338 264.971 110.393ZM282.445 122.667C281.967 117.895 279.763 113.664 277.302 109.636C276.089 107.65 273.732 105.479 272.895 103.381C272.446 102.257 273.24 100.865 274.872 101.347C275.684 101.587 277.25 103.743 277.793 104.488C279.188 106.405 280.345 108.543 281.449 110.636C282.629 112.873 285.983 121.082 282.445 122.667ZM267.815 75.1561C268.073 70.6672 268.099 65.5121 271.006 61.7869C273.26 58.898 277.385 57.6406 280.732 56.5239C285.24 55.0192 290.655 54.7869 295.371 55.2731C299.52 55.7016 302.653 58.5272 305.213 61.6343C307.818 64.794 309.836 68.8625 311.627 72.5386C312.075 73.4584 315.877 79.3609 313.305 79.2234C312.285 79.1685 311.399 77.1772 310.618 76.5889C310.006 76.1287 309.281 76.1854 308.732 75.817C308.144 75.4222 308.271 75.0567 307.815 74.569C304.674 71.2146 301.785 73.1462 298.398 74.9129C298.239 73.7427 298.517 71.5689 297.538 70.714C296.258 69.5946 294.92 71.3678 294.002 72.2368C293.166 73.0292 292.135 74.4725 291.082 74.9012C289.715 75.4573 290.18 74.8661 288.992 74.3988C286.601 73.4584 284.762 76.2421 283.553 77.8609C283.103 78.4644 282.365 79.989 281.558 80.1521C280.776 80.3094 280.674 79.7533 280.001 79.548C278.097 78.9673 277.57 80.3252 276.964 82.0112C276.281 83.9071 275.701 85.7341 274.69 87.5049C272.903 90.6382 272.135 91.6693 273.549 95.1295C271.484 95.436 271.051 95.6822 270.027 93.85C268.973 91.9617 268.699 90.3956 268.766 88.2253C268.904 83.6867 267.549 79.7661 267.815 75.1561ZM315.739 96.6313C317.9 100.535 319.274 105.967 319.251 110.415C319.239 112.621 319.11 115.335 318.08 117.336C317.092 119.257 315.023 120.218 313.118 121.036C308.524 123.009 303.35 122.987 298.52 122.107C296.014 121.65 293.576 121.945 291.431 120.439C289.817 119.305 287.87 118.204 287.397 116.125C287.199 115.254 287.504 114.525 287.441 113.671C287.52 113.265 287.49 112.869 287.354 112.482C287.072 112.32 286.787 112.162 286.501 112.008C286.276 111.36 286.708 110.637 286.597 109.96C286.463 109.142 285.785 108.477 285.468 107.736C284.594 105.692 285.218 104.55 286.854 103.162C287.245 102.854 287.638 102.549 288.035 102.247C288.39 101.684 288.783 101.682 289.213 102.239C289.992 102.25 289.969 102.49 290.789 102.251C292.583 101.728 294.088 99.8191 295.846 99.1483C296.529 98.8875 297.548 99.1091 298.103 98.6284C298.598 98.1986 298.279 97.2968 298.715 96.8752C300.105 95.5266 302.293 96.805 303.579 94.8447C304.629 93.2453 304.406 90.9763 304.513 89.1604C307.736 89.7762 309.132 92.8646 311.779 94.4178C312.302 92.388 312.379 92.4488 314.4 91.8915C313.484 93.5857 314.965 95.2342 315.739 96.6313ZM318.205 75.083C318.799 75.848 319.252 77.7468 318.205 77.9299V75.083ZM320.956 81.9896C325.876 81.9995 329.02 88.2195 330.457 92.0728C332.018 96.2629 333.663 101.852 330.749 105.933C329.632 107.498 328.261 107.641 326.463 107.438C324.296 107.193 323.186 106.88 324.034 104.565C325.622 100.226 324.427 94.7102 321.612 91.078C325.484 90.33 323.03 86.778 321.086 85.4487C318.816 83.8966 316.982 81.9808 320.956 81.9896ZM208.632 306.854C207.475 309.925 206.298 312.985 205.327 316.149C204.406 319.146 204.939 322.524 203.795 325.407C203.091 325.058 202.889 324.439 202.277 324.063C201.9 323.831 201.242 323.739 200.918 323.483C200.362 323.044 199.011 321.408 198.645 320.774C197.381 318.579 198.224 315.011 198.9 312.756C199.736 309.962 201.166 307.28 203.084 305.078C204.431 303.536 205.173 304.026 206.973 304.787C208.037 305.236 209.133 305.523 208.632 306.854ZM199.863 331.078C198.939 332.948 197.23 334.49 196.215 336.375C195.15 338.355 194.343 340.585 192.985 342.395C191.602 344.241 190.36 343.932 188.456 344.728C187.772 345.013 187.484 345.543 186.934 345.956C185.903 346.729 184.772 347.204 183.688 347.892C182.917 346 180.561 336.502 177.564 336.706C174.958 336.882 176.291 341.855 176.627 343.322C176.911 344.561 177.235 345.82 177.668 347.016C178.104 348.225 179.464 350.035 178.961 351.359C178.321 353.042 176.731 352.932 175.934 351.704C175.268 350.677 174.93 349.281 174.439 348.163C174.007 347.181 172.035 341.803 170.33 342.637C168.687 343.44 171.242 348.654 171.669 349.678C172.702 352.15 174.682 354.527 172.065 356.508C168.093 359.517 163.201 361.781 158.75 363.949C156.153 365.215 153.817 366.88 151.09 367.907C148.558 368.862 145.631 369.024 143.183 370.121C142.581 370.392 142.985 370.728 142.105 370.885C141.366 371.016 140.077 370.664 139.286 370.671C137.975 370.683 136.661 370.783 135.353 370.618C134.616 370.526 132.938 369.718 133.203 371.051C132.161 370.762 131.757 369.709 130.996 369.052C130.318 368.465 129.453 368.148 128.696 367.688C127.132 366.735 125.962 365.651 125.493 363.837C124.391 359.577 126.72 355.143 129.595 352.174C131.245 350.47 133.181 349.053 134.694 347.219C135.225 346.575 135.603 345.827 136.276 345.304C137.102 344.663 138.234 344.584 139.033 343.935C139.627 343.452 139.805 342.683 140.428 342.24C141.35 341.585 142.428 341.857 143.299 340.997C143.796 340.506 145.5 338.195 145.381 337.554C145.848 337.71 146.316 337.867 146.782 338.023C147.066 336.599 149.523 334.841 150.734 334.159C151.347 333.814 152.542 333.831 152.998 333.459C153.604 332.965 153.554 331.929 154.036 331.309C155.416 329.531 158.305 328.733 160.134 327.494C162.46 325.919 164.719 324.134 166.82 322.269C171.067 318.5 174.811 314.121 177.869 309.336C179.102 307.408 180.245 305.443 181.122 303.33C181.662 302.03 182.201 299.719 183.535 298.964C184.913 298.186 188.077 299.24 189.619 299.351C191.885 299.515 195.418 299.413 197.449 300.527C199.62 301.718 197.854 302.702 196.737 304.122C195.101 306.199 194.121 308.743 193.304 311.235C192.675 313.152 192.557 315.008 192.146 316.941C191.711 318.984 191.715 321.742 192.722 323.62C193.719 325.478 200.904 328.975 199.863 331.078ZM114.211 368.748C109.332 362.106 113.371 352.382 118.143 347.014C123.901 340.537 132.096 336.895 138.828 331.628C146.612 325.538 154.606 319.881 161.503 312.738C164.999 309.117 168.043 305.215 170.803 301.008C173.146 297.435 174.847 292.676 179.581 292.159C176.789 295.641 176.626 300.657 174.466 304.532C172.18 308.637 168.81 312.05 165.378 315.205C158.131 321.867 150.304 327.97 142.476 333.924C138.481 336.962 134.596 340.139 130.614 343.192C127.048 345.928 123.302 348.267 121.247 352.435C117.702 359.625 117.49 370.278 125.342 374.708C121.296 373.902 116.746 372.199 114.211 368.748ZM539.564 69.2034C538.12 66.3156 535.415 65.287 532.699 64.1571C530.041 63.0513 527.611 61.6893 524.662 61.3355C523.351 61.1781 519.654 61.5688 519.481 59.6688C519.337 58.0855 523.2 56.4964 524.091 55.2901C525.411 53.5022 526.308 50.5992 525.796 48.341C525.31 46.1994 523.228 45.5229 521.283 45.1347C515.235 43.9285 508.804 44.8156 502.739 45.3113C503.481 44.2732 504.528 43.4216 505.123 42.1782L506.084 44.1772C506.632 43.034 507.225 41.9121 507.907 40.8415C508.367 41.359 508.828 41.8771 509.288 42.3946C508.523 39.7069 511.098 39.7206 510.827 37.455C510.722 36.5738 510.125 36.1878 509.979 35.4794C509.691 34.0711 510.778 33.1904 509.541 31.8845C508.163 30.4301 505.911 31.007 504.308 31.1427C504.107 31.1602 503.815 31.5584 503.554 31.5907C503.194 31.6364 502.987 31.1401 502.541 31.1666C501.346 31.2371 500.292 32.1655 499.104 32.4476C493.598 33.7551 488.09 36.0871 482.806 38.2641C477.427 40.4805 472.145 43.061 467.455 46.5393C462.435 50.262 458.809 55.0478 454.8 59.7629C452.916 61.9787 450.966 64.1068 449.531 66.6595C448.79 67.9788 448.12 72.1228 446.786 72.7251C445.337 73.3789 441.693 71.5292 440.211 71.1877C436.723 70.3847 433.251 70.0496 429.675 70.211C426.83 70.3385 423.829 70.2625 421.008 70.6105C419.371 70.8122 415.29 72.6292 415.028 74.6614C414.912 75.5643 415.947 76.3152 416.178 77.1614C416.529 78.441 415.95 79.7971 416.354 81.0796C417.178 83.6949 421.002 84.6569 423.256 85.4803C429.547 87.7803 435.925 89.564 442.282 91.6225C445.044 92.5178 447.405 93.9424 449.907 95.3728C451.982 96.5582 453.875 97.7448 451.779 99.9711C449.794 102.08 450.041 102.931 450.633 105.837C451.257 108.903 451.473 112.003 452.286 115.04C453.095 118.064 454.607 120.952 454.313 124.152C454.018 127.341 452.699 130.616 451.465 133.539C450.219 136.491 448.843 139.409 447.488 142.313C446.235 145 444.879 147.725 441.981 148.872C436.447 151.061 429.377 150.714 423.61 149.919C417.064 149.016 410.302 147.486 404.111 145.151C398.159 142.905 391.612 139.461 386.69 135.391C384.06 133.217 381.212 131.607 378.421 129.661C375.592 127.69 373.445 125.031 370.967 122.671C366.111 118.045 360.132 114.857 353.979 112.313C347.061 109.454 339.919 109.751 332.588 109.442C333.742 107.175 335.227 105.008 335.772 102.484C336.34 99.8553 335.929 96.9992 335.569 94.3728C334.871 89.261 333.548 84.7621 330.321 80.6334C328.846 78.7457 327.123 77.2737 324.665 76.9994C323.176 76.8328 320.425 77.9766 319.35 76.7152C318.877 76.1591 318.987 74.9895 318.689 74.3047C318.425 73.6965 317.895 73.0842 317.607 72.4239C316.377 69.5999 314.842 67.104 313.308 64.425C312.698 63.3595 312.226 61.7869 311.395 60.8904C310.942 60.4027 310.36 60.1811 310.107 59.8243C309.633 59.1565 309.415 57.9359 309.021 57.1825C308.344 55.893 307.485 54.6947 306.492 53.6305C304.906 51.9296 302.865 50.4285 300.69 49.5812C299.482 49.1104 298.597 48.999 297.336 49.068C296.966 49.0881 296.555 49.3012 296.185 49.2732C295.3 49.2058 295.439 48.8887 294.73 48.7413C289.987 47.7535 283.626 49.1395 279.177 50.841C274.49 52.6332 270.684 54.9964 267.836 59.243C260.84 69.6724 262.47 83.1387 265.437 94.626C263.643 94.1547 261.855 93.5974 260.043 93.1979C258.933 92.9529 257.419 92.9991 256.427 92.4131C254.222 91.1096 256.016 87.7651 256.029 85.6042C256.063 80.1129 253.472 71.5263 247.821 69.2069C241.932 66.7899 234.769 73.5737 231.129 77.4205C228.794 79.8884 226.671 82.5481 224.436 85.1042C222.875 86.8914 220.813 89.74 218.075 89.2733C212.105 88.2552 213.926 76.8959 214.191 73.0567C214.61 66.9876 215.504 60.8208 215.509 54.736C215.511 51.0372 214.872 46.0473 210.33 45.6135C204.079 45.017 198.157 50.7031 194.512 55.078C184.898 66.6139 182.775 81.8621 185.346 96.3383C185.723 98.4606 186.927 101.079 184.63 102.396C181.613 104.127 177.757 105.175 174.514 106.447C167.264 109.288 160.55 113.077 153.725 116.781C146.967 120.449 140.317 124.09 134.22 128.815C128.142 133.525 122.125 138.517 116.588 143.857C113.829 146.519 111.166 149.296 108.654 152.195C106.29 154.921 104.375 158.018 101.805 160.566C100.056 162.301 96.8383 164.627 96.4541 167.274C96.1436 169.41 99.7466 170.892 101.372 171.879C102.487 172.556 103.259 172.535 103.34 173.742C103.44 175.247 101.853 177.659 101.288 179.095C99.8489 182.755 97.9682 185.788 95.495 188.834C90.0178 195.583 83.3989 201.305 77.1164 207.3C71.2795 212.87 65.5595 218.352 61.2805 225.264C60.2319 226.958 57.6229 230.436 60.1027 232.021C60.7442 232.431 62.7132 232.756 63.3665 232.315C64.1764 231.769 63.7659 230.946 64.7226 230.399C64.4829 232.239 72.8397 228.643 73.49 228.31C75.2462 227.41 76.8345 226.355 78.6299 225.548C79.6831 225.075 79.8106 224.416 80.6258 223.888C81.0621 223.605 81.0673 223.984 81.6504 223.809C82.1755 223.65 83.4083 223.589 83.8001 223.084C83.8106 223.069 84.2387 221.844 83.875 222.098C85.2984 221.106 86.1399 222.606 85.2855 224.015C82.7586 228.175 79.5638 231.237 78.5737 236.238C78.2141 238.054 77.6006 241.426 78.7094 243.081C78.7497 243.142 79.1229 242.966 79.1685 243.031C79.2106 243.091 79.6176 243.657 79.7848 243.818C80.7644 244.755 80.7012 245.173 82.3363 245.134C83.0615 245.116 84.5077 245.023 85.1715 244.696C85.6709 244.449 85.9148 243.842 86.299 243.626C86.6873 243.406 86.6417 243.292 87.006 243.165C87.0809 243.138 87.2241 243.776 87.3662 243.749C88.1452 243.603 88.4809 243.137 89.1429 242.762C91.0499 241.683 92.9195 240.495 94.7354 239.408C96.5635 238.314 97.929 236.788 99.7495 235.518C101.684 234.167 103.266 233.132 104.754 231.259C105.783 229.961 107.013 229.488 107.704 228.85C108.524 228.091 109.939 225.164 111.261 224.816C111.864 224.657 112.346 225.19 112.675 224.971C113.047 224.726 112.642 224.255 112.828 223.978C113.176 223.462 113.219 223.376 113.811 222.902C114.568 222.296 115.499 222.134 116.135 221.344C116.842 220.465 116.939 219.481 117.809 218.658C119.901 216.678 121.764 214.592 123.981 212.673C123.125 217.448 122.276 222.189 122.94 227.045C123.583 231.751 125.58 233.859 129.5 236.247C130.363 236.774 131.268 237.539 132.195 237.911C132.758 238.138 133.607 238.003 134.027 238.17C135.448 238.733 134.965 239.887 135.159 241.187C135.462 243.203 137.314 244.753 138.509 246.324C139.514 247.644 141.327 250.648 143.009 251.104C144.528 251.516 145.961 249.739 147.226 248.983C149.133 247.842 151.21 247.025 153.222 246.093C157.15 244.273 160.945 242.101 164.829 240.176C166.604 239.297 168.396 238.939 170.273 238.371C172.529 237.689 174.454 236.384 176.617 235.494C180.506 233.894 184.233 231.984 188.099 230.303C196.101 226.825 204.828 224.435 211.949 219.216C215.17 216.855 219.317 216.604 222.492 214.31C225.801 211.918 223.772 208.261 222.355 205.325C218.485 197.307 216.175 188.98 210.846 181.675C208.077 177.88 205.52 173.958 203.105 169.924C200.969 166.353 201.012 162.308 200.477 158.275C200.118 155.58 199.781 152.873 199.343 150.189C199.065 148.483 198.167 146.334 199.253 144.788C200.42 143.127 203.191 142.42 204.943 141.543C207.12 140.454 209.227 139.282 211.486 138.36C216.647 136.254 222.082 134.796 227.496 133.508C229.111 133.125 236.021 130.38 237.336 131.988C235.721 133.068 235.249 135.029 234.524 136.71C233.445 139.215 232.331 141.602 231.544 144.226C229.917 149.654 228.533 155.168 227.207 160.675C225.889 166.143 224.32 171.654 223.917 177.288C223.71 180.163 223.852 183.04 223.847 185.919C223.841 188.991 223.205 192.004 223.318 195.083C223.394 197.131 223.566 199.591 224.765 201.338C225.877 202.957 227.767 203.138 229.413 204.003C231.587 205.145 232.437 205.632 232.457 208.118C232.481 211.014 232.294 213.859 232.565 216.754C233.509 226.834 236.895 238.796 243.653 246.579C244.103 247.096 257.216 263.638 258.668 261.216C259.668 262.401 261.162 262.833 262.393 263.866C264.327 265.488 266.225 266.785 267.823 268.795C270.734 272.452 273.208 276.737 273.936 281.413C274.562 285.437 274.185 290.248 271.916 293.736C269.64 297.235 264.773 299.53 261.099 301.253C256.27 303.517 251.369 303.771 246.126 303.204C243.539 302.924 240.972 302.487 238.404 302.074C237.335 301.902 236.089 301.901 235.077 301.498C233.992 301.067 233.625 300.59 232.542 300.537C231.733 300.497 231.291 300.676 230.436 300.498C229.378 300.277 228.229 299.874 227.173 299.603C225.999 299.3 225.037 298.871 223.955 298.316C222.954 297.803 221.826 297.703 220.862 297.217C219.202 296.379 218.689 294.977 216.442 295.754C214.071 296.574 214.566 298.626 213.052 300.033C211.707 301.284 210.04 300.127 208.701 299.384C206.73 298.289 204.683 297.379 202.585 296.55C200.318 295.655 198.003 294.877 195.644 294.261C193.064 293.587 190.23 293.454 187.744 292.472C185.56 291.611 184.62 289.944 183.038 288.386C181.374 286.748 179.116 286.124 176.809 286.27C172.607 286.536 169.738 291.079 167.518 294.233C161.318 303.046 154.464 310.554 146.175 317.478C142.215 320.784 137.751 323.597 133.921 327.03C132.306 328.478 131.133 329.835 129.22 330.913C126.707 332.329 124.427 334.106 122.025 335.703C112.629 341.947 105.737 351.045 108.335 362.924C109.505 368.271 111.841 372.024 116.206 375.242C118.188 376.702 120.001 377.917 122.526 377.833C124.91 377.753 127.012 377.67 125.608 374.833C127.387 375.384 128.876 376.744 130.818 377.44C133.056 378.241 135.967 378.741 138.342 378.79C142.147 378.868 146.621 376.862 149.952 376.012C150.883 375.775 152.678 375.385 153.739 374.51C154.582 373.814 154.399 372.99 155.677 372.659C157.35 372.226 157.988 372.733 159.591 371.719C161.916 370.246 164.438 369.372 166.85 368.015C170.1 366.187 173.224 364.125 176.443 362.243C176.872 363.426 179.395 370.457 180.952 367.068C182.308 364.117 177.907 361.591 180.582 358.603C183.135 355.755 183.668 358.75 186.144 360.072C189.582 361.908 189.066 358.479 188.067 356.448C187.667 355.635 186.827 354.41 187.074 353.463C187.551 351.633 189.032 352.707 190.195 352.893C192.028 353.188 193.509 352.683 194.885 351.454C196.033 350.428 197.931 349.543 198.624 348.191C198.971 347.515 199.032 346.585 199.32 345.867C199.701 344.92 199.972 345.15 200.111 343.975C199.978 343.367 199.925 342.753 199.952 342.13C200.253 342.069 200.553 342.008 200.853 341.947C200.863 341.904 200.884 340.719 200.763 340.895C201.043 340.488 201.646 340.315 201.993 339.749C202.312 339.229 202.015 338.231 202.143 337.616C202.403 336.372 203.111 335.368 203.689 334.26C204.912 339.437 204.559 344.836 205.728 350.016C206.688 354.269 208.875 358.082 211.425 361.569C212.608 363.185 214.173 364.332 215.411 365.868C216.458 367.168 216.982 368.312 218.528 369.08C219.557 369.59 220.713 369.854 221.773 370.294C222.451 370.576 223.993 371.874 224.629 371.851C224.075 371.872 225.67 371.921 225.301 371.858C225.328 371.862 225.112 371.164 225.304 371.175C227.616 373.364 230.031 373.369 232.706 374.73C233.932 375.354 234.391 375.315 235.697 375.545C237.39 375.844 238.815 376.81 240.436 376.913C242.931 377.071 245.742 377.407 248.344 377.315C249.051 377.289 250.382 376.833 250.937 377.452C251.303 377.861 250.608 380.816 250.564 381.492C250.107 388.588 251.055 396.038 254.048 402.531C256.531 407.915 259.178 414.284 263.568 418.395C268.435 422.952 275.252 426.164 281.76 427.393C288.967 428.753 296.11 427.735 303.339 427.312C310.674 426.883 317.46 425.842 324.533 423.716C331.111 421.739 337.341 419.161 343.636 416.443C347.916 414.595 353.344 411.934 351.1 406.323C350.557 404.966 348.453 401.194 346.591 403.055C344.944 404.702 347.698 407.819 348.944 408.865C339.55 415.416 328.151 417.583 317.16 419.904C311.123 421.178 305.177 421.125 299.037 421.143C293.834 421.157 288.631 421.307 283.462 420.58C278.786 419.923 273.34 418.689 269.86 415.27C266.22 411.692 262.775 407.421 260.29 402.958C257.564 398.06 256.902 392.764 256.682 387.24C256.566 384.332 256.436 381.388 256.74 378.487C256.961 376.381 258.036 376.131 258.569 374.467C259.801 376.193 260.612 375.555 262.125 374.547C263.103 377.277 262.667 380.115 262.499 382.93C262.336 385.674 262.701 388.455 263.037 391.179C263.606 395.81 265.825 400.64 268.64 404.368C269.912 406.054 271.819 406.766 273.545 407.93C275.744 409.414 278.025 410.796 280.321 412.128C284.644 414.636 289.363 416.781 294.236 417.158C295.943 417.291 297.185 418.181 299.219 418.056C300.426 417.982 301.643 417.569 302.848 417.602C304.056 417.634 305.093 418.021 306.333 417.931C311.488 417.558 316.803 415.869 321.907 414.941C327.433 413.937 332.993 412.855 338.269 410.873C340.555 410.013 342.443 408.905 343.719 406.746C344.63 405.203 344.391 402.437 346.09 401.514C344.977 400.079 345.391 399.826 346.351 398.543C346.8 397.945 348.248 396.361 346.492 396.39C347.026 394.078 346.133 391.842 345.752 389.581C345.588 388.604 345.633 387.125 345.029 386.284C344.676 385.794 344.089 385.785 343.774 385.423C343.449 385.416 343.194 385.281 343.011 385.017C342.989 384.631 343.17 384.395 343.553 384.311C343.464 383.547 344.03 383.821 343.464 382.626C342.693 380.995 341.229 379.574 339.843 378.465C338.662 377.52 337.793 375.841 336.43 375.337C334.656 374.681 332.796 373.968 330.932 373.358C326.706 371.976 322.518 371.448 318.084 372.214C316.053 372.565 314.053 372.996 312.092 373.623C310.945 373.991 309.19 374.983 308.173 373.913C307.824 373.547 307.095 370.43 307.141 370.093C307.323 368.741 310.083 368.195 311.09 367.723C312.629 367.002 315.479 366.231 316.456 364.8C316.866 364.2 316.403 361.652 316.47 361.607C317.116 361.172 319.826 367.359 320.564 367.781C321.631 368.391 324.63 367.585 325.733 367.464C329.025 367.102 332.371 366.896 335.595 366.111C341.778 364.605 347.848 362.276 353.864 360.217C365.31 356.302 376.36 351.141 386.65 344.731C391.455 341.737 396.229 337.91 399.886 333.563C401.535 331.602 402.7 329.277 404.384 327.354C406.327 325.136 405.714 323.135 406.585 320.357C408.348 314.734 410.489 309.626 411.449 303.733C412.437 297.665 412.845 291.471 412.571 285.328C412.03 273.187 411.441 261.677 406.106 250.521C401.217 240.298 394.882 230.31 387.35 221.846C385.599 219.879 383.75 218.005 381.599 216.475C379.284 214.827 376.735 213.535 374.639 211.589C372.919 209.992 371.481 208.11 369.682 206.594C367.473 204.734 364.847 203.912 362.26 202.724C359.78 201.586 357.519 200.105 354.983 199.069C353.441 198.439 351.877 197.857 350.269 197.417C349.08 197.092 347.501 197.071 346.413 196.454C344.694 195.477 342.934 192.633 341.81 191.027C340.171 188.684 339.283 185.957 338.503 183.233C337.554 179.918 336.672 176.583 335.745 173.262C335.427 172.127 334.243 168.178 336.606 169.137C337.297 169.417 337.946 170.663 338.478 171.195C339.488 172.206 340.734 173.109 341.986 173.796C344.006 174.904 346.109 176.238 348.046 177.002C349.753 177.675 351.509 178.995 353.1 179.944C353.342 180.088 353.412 180.584 353.724 180.723C354.457 181.048 354.946 180.15 355.639 180.37C356.585 180.671 356.741 181.562 357.266 182.272C358.027 183.3 358.421 183.382 359.584 183.912C360.878 184.5 361.828 185.664 363.089 186.241C364.621 186.941 367.993 186.398 368.224 188.813C370.604 187.257 373.592 190.278 375.078 191.845C376.574 189.548 379.223 192.237 381.487 191.475C380.234 193.216 380.462 193.043 382.439 193.259C384.107 193.441 385.106 194.549 386.755 195.193C387.897 195.639 389.159 196.388 390.346 196.702C391.469 197 392.319 196.333 393.296 196.5C393.97 196.615 394.611 197.198 395.252 197.357C396.065 197.559 397.222 197.805 398.141 198.023C399.258 198.288 400.37 198.045 401.485 198.256C402.786 198.502 403.909 199.277 405.229 199.528C406.702 199.808 408.233 199.621 409.696 199.979C411.03 200.304 411.841 200.678 413.223 200.691C415.285 200.712 417.585 200.984 419.62 200.752C420.704 200.628 421.305 200.078 422.532 200.615C423.35 200.974 423.84 202.081 424.955 201.574C423.778 201.102 424.811 199.264 426.109 200.672C426.416 199.883 426.614 199.442 427.468 199.183C427.425 199.956 427.299 200.731 428.284 200.893C428.359 200.355 428.435 199.818 428.511 199.28C430.652 200.911 431.159 201.486 433.179 199.497C433.125 200.148 432.85 200.885 433.512 201.346C433.936 200.642 434.36 199.938 434.784 199.233C435.5 201.506 438.917 200.722 440.573 200.319C441.215 200.163 442.99 199.916 443.409 199.389C443.7 199.024 443.664 198.738 443.772 198.514C443.867 198.315 442.778 197.826 443.705 197.541C444.403 197.325 444.947 198.856 445.766 198.795C446.497 198.74 446.792 197.503 447.318 197.252C447.368 197.229 447.725 197.752 447.972 197.637C448.357 197.459 448.575 196.991 449 196.825C449.919 196.465 451.107 196.554 452.136 196.128C453.441 195.588 454.756 195.33 456.088 194.884C457.777 194.32 458.543 193.211 459.914 192.303C460.236 192.09 460.57 192.214 460.886 192.064C461.311 191.861 461.757 191.385 462.263 191.161C463.85 190.457 465.206 189.978 466.712 189.007C468.055 188.14 469.828 187.501 471.023 186.461C472.018 185.595 472.555 184.332 473.555 183.451C474.992 182.187 478.705 180.601 478.103 178.131C480.506 178.499 481.094 176.942 481.976 175.226C482.816 173.593 484.535 173.104 485.66 171.615C486.146 170.972 486.928 170.079 487.197 169.345C487.357 168.908 486.956 168.452 487.064 168.153C487.563 166.782 489.486 166.183 490.377 164.945C491.51 163.371 491.874 161.38 492.819 159.763C493.005 159.445 493.463 159.256 493.64 158.917C493.754 158.699 493.516 158.159 493.654 157.945C493.984 157.436 494.502 157.261 494.833 156.79C495.634 155.65 495.781 154.03 496.501 152.737C496.678 152.419 497.295 151.53 497.373 151.341C497.633 150.705 497.554 150.287 497.689 149.578C497.729 149.365 498.14 148.133 498.225 147.957C498.489 147.408 498.744 147.326 499.149 146.723C500.16 145.212 500.787 142.84 500.87 141.006C500.906 140.228 500.647 139.424 500.929 138.682C501.171 138.04 501.92 137.644 502.202 136.972C502.943 135.21 502.822 132.719 503.026 130.834C503.247 128.78 503.904 126.755 504.085 124.715C504.174 123.728 503.711 122.854 503.745 121.924C503.784 120.859 504.336 120.66 504.549 119.774C504.792 118.763 504.436 117.597 504.653 116.512C504.856 115.503 505.149 114.569 505.233 113.534C505.451 110.838 505.143 108.017 505.026 105.32C504.981 104.274 504.842 103.182 505.118 102.157C505.341 101.333 506.251 100.41 506.221 99.5162C506.128 96.7524 503.918 99.1442 502.647 98.9547C501.17 98.7343 500.898 95.4196 500.509 94.1623C499.558 91.0909 498.607 88.0195 497.656 84.9487C502.19 83.768 506.904 84.1083 511.534 83.7896C516.082 83.4767 520.523 82.4896 524.934 81.3779C528.658 80.4398 532.732 79.8954 536.078 77.8918C538.888 76.2099 541.206 72.4877 539.564 69.2034Z" fill="black"/>
<path fill-rule="evenodd" clip-rule="evenodd" d="M99.2524 128.659C101.066 127.716 100.609 126.413 101.941 125.202C109.395 118.428 118.143 112.513 126.91 107.629C136.147 102.482 146.512 100.303 155.953 95.743C157.223 95.1295 158.873 94.1704 158.399 92.4616C157.845 90.4651 155.944 91.3839 154.589 91.8552C150.073 93.4254 145.267 94.0166 140.687 95.3962C130.91 98.3407 121.754 103.419 113.472 109.362C108.654 112.819 104.038 116.641 99.9237 120.935C98.4085 122.515 96.388 124.359 95.9938 126.635C95.5055 129.453 97.171 129.741 99.2524 128.659Z" fill="black"/>
<path fill-rule="evenodd" clip-rule="evenodd" d="M127.487 305.786C127.443 303.296 124.732 304.202 123.337 304.536C117.666 305.898 112.596 306.94 107.577 310.092C98.2623 315.943 91.2049 324.831 86.6388 334.666C86.0306 335.975 83.5826 340.123 85.5446 341.358C86.8382 342.172 87.623 339.801 88.106 338.92C90.5651 334.44 93.8582 330.473 97.1693 326.579C104.52 317.935 113.357 312.448 123.93 308.442C125.227 307.951 127.519 307.596 127.487 305.786Z" fill="black"/>
<path fill-rule="evenodd" clip-rule="evenodd" d="M440.931 244.629C438.969 240.682 435.797 235.812 431.408 234.186C428.979 233.287 427.542 234.775 428.263 237.262C428.836 239.24 430.75 240.206 432.178 241.518C435.855 244.893 438.12 249.932 439.462 254.612C440.882 259.559 441.165 264.927 441.139 270.048C441.126 272.752 440.404 275.102 440.013 277.733C439.859 278.768 439.596 281.049 440.785 281.694C443.42 283.126 444.637 275.652 444.906 274.214C445.897 268.913 445.801 264.031 444.966 258.739C444.203 253.899 443.131 249.056 440.931 244.629Z" fill="black"/>
<path fill-rule="evenodd" clip-rule="evenodd" d="M433.394 54.9663C434.466 53.521 433.684 51.4976 434.004 49.8497C434.338 48.1225 435.335 46.3752 436.177 44.8643C438 41.6024 440.031 38.3991 442.196 35.3567C444.432 32.2148 447.159 29.5378 449.535 26.5191C450.338 25.4979 451.762 24.0383 451.415 22.8092C450.853 20.8192 449.629 21.7891 448.648 22.6231C443.285 27.1833 438.563 32.8061 434.748 38.7117C432.938 41.5145 431.228 44.584 430.629 47.9089C430.319 49.626 430.316 51.4177 430.826 53.099C431.146 54.1556 432.107 56.7031 433.394 54.9663Z" fill="black"/>
<path fill-rule="evenodd" clip-rule="evenodd" d="M102.917 298.216C105.604 297.967 108.306 297.878 111 297.74C112.994 297.638 115.236 297.761 117.066 296.801C118.908 295.835 118.107 294.388 116.576 294.174C115.696 294.05 114.211 294.644 113.267 294.685C112.246 294.729 111.219 294.698 110.196 294.702C107.209 294.713 103.989 294.69 101.109 295.683C100.168 296.008 98.7425 296.508 98.3553 297.584C97.5278 299.884 101.671 298.331 102.917 298.216Z" fill="black"/>
<path fill-rule="evenodd" clip-rule="evenodd" d="M126.446 87.7206C130.349 87.2528 134.121 86.0831 137.965 85.3375C141.621 84.6293 142.243 81.7474 137.916 81.8766C136.462 81.9199 122.453 84.5779 126.446 87.7206Z" fill="black"/>
<path fill-rule="evenodd" clip-rule="evenodd" d="M448.911 232.263C446.289 231.606 447.645 234.515 448.457 235.414C449.957 237.077 450.777 238.322 451.223 240.539C451.483 241.829 451.239 244.743 452.334 245.731C453.413 246.702 453.488 246.057 453.679 244.858C454.219 241.477 453.14 233.322 448.911 232.263Z" fill="black"/>
<path fill-rule="evenodd" clip-rule="evenodd" d="M420.129 48.2289C420.871 47.4417 420.075 44.0181 420.163 43.0148C420.27 41.7991 420.557 40.7703 420.92 39.6295C421.096 39.0763 421.981 37.1237 421.504 36.5175C420.844 35.6771 419.745 37.0972 419.397 37.6562C418.267 39.4755 418.002 42.5089 418.191 44.5575C418.258 45.2991 418.706 49.735 420.129 48.2289Z" fill="black"/>
<path fill-rule="evenodd" clip-rule="evenodd" d="M265.759 336.926C265.882 334.986 267.75 333.643 267.755 331.58C267.762 329.264 266.203 328.26 264.261 329.766C263.091 330.674 262.179 332.886 260.595 333.176C257.419 333.758 256.174 328.053 253.045 328.713C250.337 329.285 251.76 333.937 252.577 335.507C253.443 337.171 255.016 338.338 254.504 340.385C253.896 342.815 251.81 344.216 252.621 346.991C254.129 352.146 257.402 347.326 259.37 345.706C260.772 344.551 261.62 344.756 262.982 345.888C264.847 347.439 266.273 348.492 268.536 349.537C270.531 350.459 272.456 351.102 272.518 348.01C272.567 345.578 270.73 343.158 269.119 341.508C267.781 340.139 265.622 339.085 265.759 336.926Z" fill="black"/>
<path fill-rule="evenodd" clip-rule="evenodd" d="M230.797 329.235C228.463 326.746 225.514 333.095 223.627 333.797C220.57 334.936 219.865 328.833 217.05 329.025C214.859 329.175 215.032 332.315 215.509 333.747C216.023 335.289 217.56 336.549 217.817 338.13C218.213 340.551 213.632 345.391 216.829 347.73C219.558 349.727 220.574 342.98 223.986 345.733C225.661 347.084 230.347 352.112 232.67 349.61C235.414 346.653 228.887 341.602 227.696 339.353C226.084 336.307 234.218 332.883 230.797 329.235Z" fill="black"/>
<path fill-rule="evenodd" clip-rule="evenodd" d="M287.354 242.756C286.684 242.461 285.602 242.949 284.877 242.918C284.1 242.886 283.29 242.532 282.522 242.401C280.855 242.116 277.924 242.528 276.74 241.042C275.533 239.526 276.451 236.483 275.935 234.639C275.654 233.636 275.33 232.399 273.98 232.846C272.412 233.365 272.45 236.243 272.263 237.505C271.988 239.367 271.766 240.788 269.894 241.45C268.508 241.941 267.05 241.694 265.929 242.832C265.108 243.666 264.554 245.19 265.197 246.28C266.162 247.917 268.252 247.069 269.702 247.587C271.913 248.376 271.387 251.989 271.84 254.063C272.13 255.396 272.768 259.128 274.683 259.068C277.292 258.986 276.278 253.743 276.134 252.213C275.987 250.66 275.638 249.343 277.371 248.86C278.835 248.453 280.879 249.209 282.391 249.2C284.3 249.188 286.55 248.708 287.702 246.997C288.36 246.019 288.777 243.384 287.354 242.756Z" fill="black"/>
<path fill-rule="evenodd" clip-rule="evenodd" d="M383.246 307.288C387.395 307.646 384.881 312.759 387.634 314.791C390.261 316.731 390.614 311.378 390.614 309.85C390.612 306.149 395.114 307.517 397.855 306.904C400.193 306.382 402.747 303.953 399.954 301.884C397.938 300.39 394.595 301.083 392.255 300.688C389.084 300.151 390.026 298.034 389.956 295.593C389.93 294.699 389.622 291.509 388.467 291.258C386.35 290.797 386.225 296.738 386.082 297.869C385.478 302.652 382.193 299.738 379.583 302.136C376.171 305.27 380.774 307.075 383.246 307.288Z" fill="black"/>
<path fill-rule="evenodd" clip-rule="evenodd" d="M185.918 218.112C179.436 223.424 172.075 222.663 166.143 216.944C163.634 214.525 162.118 212.087 162.343 208.548C162.544 205.363 163.479 201.844 166.029 199.693C168.177 197.88 172.227 197.23 174.947 196.976C178.758 196.622 182.168 198.697 184.804 201.29C187.1 203.548 189.784 206.424 190.137 209.776C190.51 213.303 188.501 215.994 185.918 218.112ZM186.904 196.969C181.089 191.37 170.779 191.932 164.776 197.038C158.037 202.77 156.885 213.537 163.361 219.817C170.185 226.434 179.193 225.72 186.417 220.231C190.292 217.287 192.394 213.509 192.934 208.661C193.443 204.08 190.084 200.031 186.904 196.969Z" fill="black"/>
<path fill-rule="evenodd" clip-rule="evenodd" d="M299.335 100.586C298.682 102.707 299.134 104.966 299.25 107.126C297.407 105.973 296.259 103.917 294.28 102.961C293.331 105.583 298.061 113.084 301.037 110.625C303.761 108.375 301.751 102.097 299.335 100.586Z" fill="black"/>
<path fill-rule="evenodd" clip-rule="evenodd" d="M309.006 113.517C307.539 114.064 306.175 113.912 304.728 114.192C303.774 114.377 303.65 113.835 303.526 114.928C303.263 117.26 307.026 118.163 308.722 118.13C310.791 118.09 313.058 116.698 312.858 114.433C312.65 112.074 310.602 112.923 309.006 113.517Z" fill="black"/>
<path fill-rule="evenodd" clip-rule="evenodd" d="M310.209 103.713C309.543 103.108 308.009 100.825 306.884 101.216C306.021 101.515 306.63 102.546 306.884 103.062C307.831 104.996 309.691 106.643 311.176 108.195C310.076 108.585 307.957 108.837 308.516 110.53C309.031 112.086 311.363 111.847 312.48 111.192C316.308 108.948 312.124 105.451 310.209 103.713Z" fill="black"/>
<path fill-rule="evenodd" clip-rule="evenodd" d="M314.073 100.04C314.335 101.109 314.476 102.117 313.898 103.119L310.71 97.4009C308.146 98.4535 312.643 106.691 315.263 105.779C317.075 105.149 316.204 101.277 315.918 100.059C315.765 99.4068 315.401 97.333 314.497 97.1225C312.718 96.7085 313.879 99.2524 314.073 100.04Z" fill="black"/>
<path fill-rule="evenodd" clip-rule="evenodd" d="M182.558 215.364C181.079 214.274 178.629 216.827 177.066 216.836C173.906 216.853 175.627 213.147 173.649 211.946C172.618 211.319 168.301 211.951 168.983 209.357C169.393 207.797 170.997 208.923 171.876 207.97C172.979 206.775 171.407 205.822 170.429 205.331C170.858 204.759 173.332 204.507 173.954 204.903C175.026 205.588 174.964 207.642 175.948 208.699C177.226 207.069 176.533 205.02 177.893 203.556C178.421 202.987 179.966 202.56 179.365 201.545C179.017 200.956 177.491 201.15 176.969 200.682C176.513 200.273 176.536 198.955 175.8 198.846C174.599 198.667 174.628 200.503 174.267 201.033C173.181 202.627 168.41 202.077 170.387 205.31C169.07 204.653 165.476 204.133 166.173 206.428C166.352 207.015 167.031 207.375 167.2 208.044C167.346 208.623 167.024 209.449 166.994 210.031C166.936 211.135 166.848 212.425 167.665 213.313C168.787 214.533 170.286 213.645 171.49 214.176C173.13 214.898 172.539 216.4 173.404 217.714C174.537 219.433 176.278 218.905 177.882 218.385C179.794 217.765 180.096 217.709 181.495 219.302C182.135 218.475 183.888 216.345 182.558 215.364Z" fill="black"/>
<path fill-rule="evenodd" clip-rule="evenodd" d="M185.129 208.653C183.586 208.367 184.194 203.77 182.317 205.768C181.613 206.516 182.334 207.977 181.548 208.779C181.021 209.318 180.352 209 179.824 209.354C179.349 209.671 179.23 210.279 178.95 210.743C179.942 211.19 180.71 211.248 181.769 211.053C181.769 211.851 181.239 214.201 182.601 214.03C183.868 213.869 183.51 211.511 184.155 210.778C184.809 210.032 187.448 210.378 187.693 209.331C187.997 208.034 185.803 208.777 185.129 208.653Z" fill="black"/>
</svg>
