<svg width="413" height="319" viewBox="0 0 413 319" fill="none" xmlns="http://www.w3.org/2000/svg">
<path fill-rule="evenodd" clip-rule="evenodd" d="M104.13 191.59C106.233 190.157 110.533 185.027 112.786 183.841C117.795 181.205 140.112 176.023 140.838 175.717C141.943 175.251 149.123 173.621 153.306 172.592C163.128 170.175 198.328 154.561 207.606 150.557C208.791 153.674 218.569 167.432 216.891 168.842C211.369 173.484 201.47 179.265 195.073 182.591C189.899 185.282 184.418 187.508 178.886 189.326C172.604 191.391 168.293 193.604 162.033 195.715C155.874 197.793 163.235 204.291 166.398 205.633C169.945 207.139 175.44 207.903 179.066 209.209C172.683 219.128 167.323 231.168 166.251 243.05C165.993 245.909 163.813 248.531 160.267 247.675C158.438 247.233 141.556 244.985 138.803 244.357C120.426 240.166 87.4358 218.219 95.9314 195.715C97.8775 196.614 102.321 192.823 104.13 191.59Z" fill="#70CDFF"/>
<path fill-rule="evenodd" clip-rule="evenodd" d="M114.411 72.1908C115.784 72.075 119.334 69.3327 117.471 67.9455C115.592 66.5461 114.242 71.236 114.411 72.1908ZM42.8966 82.7085C43.2556 82.645 43.0989 80.6814 42.5341 80.4305C40.7506 79.6387 40.6001 82.6144 40.5565 83.4107C40.5024 84.4155 40.3763 87.2461 42.5449 86.4701C43.7758 86.0297 43.0119 83.4616 42.8966 82.7085ZM148.176 91.8828C148.127 93.6357 151.669 97.0064 152.989 94.9846C154.1 93.2858 148.267 88.3933 148.176 91.8828ZM22.9695 52.3487C23.9955 54.9664 29.0699 51.3993 29.2586 49.4794C29.6455 45.5475 22.9163 49.7329 22.9695 52.3487ZM65.3049 63.6335C67.6681 63.4394 70.7775 60.4349 73.0565 59.3126C74.5986 58.5532 78.7948 57.6479 79.251 55.9234C79.6483 54.425 72.5286 57.6322 71.9206 57.9173C69.1278 59.2256 66.6097 60.7173 65.3049 63.6335ZM242.709 42.9159C244.593 41.4594 246.883 40.5199 249.297 40.5816C250.503 40.6122 253.018 41.3666 253.113 39.2814C253.267 35.8909 242.618 40.0258 240.954 40.6911C241.539 41.4333 242.124 42.1746 242.709 42.9159ZM125.206 175.052C123.824 172.757 121.339 171.431 119.47 169.473C120.155 172.688 118.61 175.547 117.549 178.481C120.102 177.338 122.653 176.195 125.206 175.052ZM365.172 223.97C365.934 221.421 366.696 218.886 367.586 216.377C368.583 213.567 369.078 213.324 366.693 211.359C364.714 215.099 362.735 218.84 360.755 222.581C362.165 223.18 363.635 223.763 365.172 223.97ZM160.336 39.4773C157.715 36.5237 145.434 36.3381 146.954 42.8569C147.484 45.1332 150.504 42.7151 152.395 42.1845C154.272 41.6576 159.587 41.5878 160.336 39.4773ZM159.885 81.2952C159.568 80.5413 158.933 77.8205 157.992 77.6062C157.075 77.3972 153.457 80.2508 152.777 80.6863C149.384 82.8603 146.077 85.1992 142.771 87.5038C144.037 87.5038 145.186 87.0529 146.444 87.0435C147.94 87.0304 149.012 87.6447 150.47 87.2943C153.602 86.5422 157.238 83.0711 159.885 81.2952ZM163.28 13.8979C163.574 12.5469 178.928 16.6025 180.773 17.3452C181.779 17.7491 186.966 20.4454 185.851 16.3816C185.217 14.067 179.223 12.3025 177.302 11.6682C172.418 10.0563 167.27 8.90977 162.07 9.17567C161.06 9.22693 153.413 9.66821 156.606 12.7419C157.707 13.8004 161.651 13.4668 163.28 13.8979ZM166.641 199.52C169.502 200.927 172.422 202.003 175.413 203.104C176.741 203.593 178.81 204.873 180.275 204.552C181.476 204.288 181.86 202.46 182.491 201.237C184.796 196.761 187.549 193.15 190.961 189.46C189.377 188.304 181.332 193.403 179.341 194.155C177.348 194.909 175.468 195.667 173.518 196.568C171.682 197.415 168.058 198.173 166.641 199.52ZM217.293 161.366C221.462 159.48 225.413 156.134 228.833 153.139C232.759 149.7 236.278 146.095 239.152 141.645C237.423 141.733 233.605 147.296 233.562 141.239C233.54 138.15 237.774 135.106 239.088 132.241C235.819 130.395 232.823 141.423 229.072 138.75C225.459 136.174 231.16 127.318 232.258 124.524C230.139 123.114 218.063 138.898 216.315 140.918C215.222 142.182 212.637 143.865 212.02 145.34C211.652 146.218 211.6 149.003 211.778 149.811C212.147 151.499 214.021 153.522 214.855 155.094C215.91 157.085 216.83 159.153 217.293 161.366ZM389.65 218.273C386.045 213.184 389.769 210.965 392.701 206.741C395.045 203.362 397.202 199.638 398.688 195.865C402.405 186.428 405.759 177.654 407.595 167.672C405.069 168.825 403.49 173.214 402.226 175.527C400.526 178.636 399.031 181.9 397.142 184.912C393.608 190.549 390.138 196.563 385.641 201.449C383.604 203.664 381.88 206.155 379.529 208.15C378.455 209.061 376.401 209.809 375.61 210.949C374.863 212.025 375.699 212.713 375.415 213.998C375.124 215.317 373.79 216.723 373.218 217.993C372.466 219.661 371.766 221.333 370.926 222.963C370.011 224.742 369.761 225.672 369.515 227.41C369.245 229.311 370.072 229.508 368.412 231.259C371.42 232.585 374.427 233.911 377.434 235.237C378.449 235.685 379.464 236.133 380.48 236.58C380.693 236.179 380.907 235.778 381.121 235.377C381.948 234.574 382.708 232.595 383.18 231.534C385.157 227.11 387.388 222.667 389.65 218.273ZM99.2282 196.91C90.6885 219.393 120.697 238.323 139.169 242.51C141.728 243.09 144.225 243.848 146.772 244.471C149.549 245.15 152.015 245.015 154.787 245.299C156.992 245.525 158.043 247.229 160.121 247.698C163.594 248.483 163.381 245.873 163.63 243.077C164.684 231.221 170.735 219.781 177.139 209.888C174.214 208.842 171.315 207.699 168.428 206.554C165.956 205.573 162.173 202.816 159.516 202.67C157.551 202.562 154.557 204.24 152.649 204.976C149.471 206.203 146.284 207.247 142.972 208.084C137.18 209.546 130.735 211.539 124.741 211.69C123.013 211.734 118.273 212.539 117.03 211.471C114.66 209.435 117.95 207.738 119.935 207.011C131.764 202.679 144.324 200.837 156.187 196.396C162.291 194.111 168.333 191.558 174.475 189.306C179.77 187.366 185.316 185.647 190.434 183.26C197.192 180.108 203.978 176.182 209.83 171.556C211.002 170.63 213.456 169.255 214.258 167.914C214.966 166.733 214.877 167.911 214.73 166.479C214.625 165.451 213.367 164.057 212.849 163.086C210.921 159.463 209.178 155.742 207.713 151.908C198.378 155.912 189.497 161.362 180.3 165.641C171.043 169.948 160.601 172.986 150.697 175.409C146.482 176.44 141.637 176.766 137.771 178.804C136.128 179.67 134.505 180.672 132.746 181.172C132.226 182.169 131.715 182.365 131.211 181.758C130.895 181.404 130.487 181.254 129.986 181.309C128.91 181.492 127.813 182 126.806 182.39C121.713 184.365 116.836 186.837 112.001 189.36C109.709 190.555 107.358 191.733 105.164 193.098C103.989 193.829 102.935 194.567 101.973 195.572C100.82 196.777 101.095 197.767 99.2282 196.91ZM291.388 63.4218C293.546 63.457 295.513 62.2878 297.763 62.3531C301.302 62.4553 304.103 65.199 306.157 67.845C310.221 73.0803 309.185 79.396 307.143 85.255C306.166 88.055 304.825 90.7429 303.15 93.1939C301.666 95.3638 299.014 97.4162 297.979 99.8321C296.271 103.817 299.716 102.122 301.826 101.271C304.478 100.2 306.964 98.8696 309.215 97.0766C319.248 89.086 326.88 77.9791 329.437 65.2234C330.684 59 330.588 51.7245 326.253 46.6451C322.29 42.0003 315.448 40.483 309.599 41.3441C303.277 42.2755 297.548 44.9535 292.4 48.4002C290.904 49.4019 289.535 50.4954 288.131 51.6155C286.289 53.0851 285.185 53.1234 285.647 55.4267C285.989 57.139 286.921 58.9135 287.522 60.5565C288.647 63.634 288.237 64.4302 291.388 63.4218ZM298.268 116.477L297.831 117.224C300.842 117.367 303.645 114.711 306.21 113.415C309.542 111.73 312.501 109.432 315.421 107.111C320.569 103.018 325.786 98.4044 329.618 93.0304C338.21 80.984 346.014 65.7111 343.669 50.4378C341.143 33.9768 326.745 27.6403 311.404 29.8194C304.49 30.8013 298.317 33.888 292.13 37.0218C289.011 38.6013 286.379 40.651 283.522 42.6345C282.039 43.6645 280.686 43.7982 280.589 45.5989C280.516 46.9559 282.862 50.0248 283.497 51.2543C291.265 43.3294 299.637 36.7732 311.369 36.3678C325.327 35.8859 333.58 49.12 333.519 61.7928C333.459 74.2211 328.098 86.176 319.553 95.108C315.67 99.1673 311.967 102.424 307.199 105.387C304.822 106.864 303.068 108.19 300.411 109.17C298.531 109.864 298.727 109.499 298.247 111.239C297.839 112.716 298.256 114.944 298.268 116.477ZM222.428 285.33C222.246 287.57 221.791 289.775 221.284 291.959C221.102 292.744 220.078 295.22 220.258 296.102C220.554 297.56 220.159 296.623 221.437 297.383C222.769 298.177 224.32 298.129 225.779 298.37C226.679 298.519 229.978 300.072 230.533 299.827C231.503 299.398 231.472 297.887 232.537 297.288C233.987 296.471 236.124 297.171 237.492 297.81C241.149 299.515 243.662 303.047 247.201 304.98C253.485 308.412 260.943 310.312 267.954 311.096C271.752 311.521 275.639 312.266 279.39 311.376C282.346 310.675 286.187 310.74 287.794 307.568C273.516 303.642 251.724 298.837 246.079 282.452C243.01 285.235 237.881 283.736 234.173 283.352C230.093 282.929 226.447 283.028 222.716 281.168C222.443 282.63 222.359 283.843 222.428 285.33ZM96.0142 183.851C102.735 184.257 109.107 181.076 113.243 175.71C114.261 174.388 115.305 173.039 115.917 171.473C116.049 171.076 116.181 170.679 116.314 170.282C116.956 169.186 116.675 168.669 115.472 168.731C114.794 167.801 113.075 167.489 113.564 165.804C113.932 164.533 115.291 164.512 116.472 164.112C115.884 163.124 115.532 162.628 114.69 161.75C112.503 163.717 108.533 167.58 106.995 163.059C106.257 160.889 107.557 158.814 107.235 156.721C107.102 155.855 106.005 153.643 105.368 153.125C101.98 150.367 97.1001 151.508 93.5052 153.132C91.0276 154.251 90.4944 154.776 90.0904 157.342C89.6801 159.95 89.299 162.558 88.8437 165.159C90.3304 164.384 90.6011 162.711 91.5708 161.506C91.9338 162.167 92.2972 162.829 92.6616 163.49C93.1732 163.203 93.6511 163.218 94.0942 163.536C94.8117 164.639 94.3604 166.275 94.1397 167.431C96.5322 167.208 97.5433 169.877 95.1315 170.958C92.6332 172.077 91.5064 169.025 91.4217 167.048C90.4894 168.161 89.5319 167.565 88.882 168.137C88.233 168.709 87.9772 169.901 87.7461 171.207C87.3665 173.352 86.395 176.447 87.2939 178.599C88.6284 181.795 92.8832 183.459 96.0142 183.851ZM290.771 81.1872C288.548 84.2799 284.756 88.3284 283.963 92.0648C286.412 90.6276 291.591 83.7111 292.925 89.2206C293.691 92.3832 289.763 96.1515 288.798 99.2137C292.661 97.9427 295.412 93.9622 297.823 90.8902C300.896 86.9732 304.034 81.81 304.818 76.8293C305.453 72.7988 302.657 69.0422 298.503 68.6472C296.381 68.4454 294.165 68.7823 292.115 69.2745C291.18 69.4984 289.785 69.7767 288.951 70.2776C287.903 70.9067 287.76 72.3795 286.773 71.1544C285.462 73.6257 284.15 76.0969 282.839 78.5673C284.144 78.0939 286.807 76.0843 288.233 76.292C290.315 76.596 290.743 79.6207 290.771 81.1872ZM82.546 20.6871C76.7158 20.8589 70.6217 22.1005 65.1023 23.946C63.7318 24.4048 57.9493 26.0361 59.1671 28.401C59.972 29.9642 64.3114 27.7553 65.6234 27.387C71.2459 25.808 77.0351 24.7668 82.7942 23.8165C84.1886 23.5865 88.9189 23.6092 89.163 21.7814C89.4621 19.551 84.1926 20.6846 82.546 20.6871ZM241.221 275.073C238.061 275.459 235.027 275.314 231.864 274.927C229.202 274.601 226.491 273.512 223.842 273.512C223.842 276.347 223.65 276.365 226.641 276.971C228.729 277.395 230.847 277.633 232.957 277.928C236.672 278.448 240.796 279.906 244.557 279.157C244.466 278.664 244.178 275.342 243.788 275.013C243.569 274.828 241.54 275.076 241.221 275.073ZM190.147 65.2896C191.03 65.8525 193.062 68.0977 194.114 68.1373C193.739 65.5382 190.839 61.0127 187.508 62.6188C186.692 63.0129 184.978 64.9739 185.754 65.839C186.168 66.3016 189.064 65.2927 190.147 65.2896ZM159.337 88.4122C159.369 87.9591 159.401 87.506 159.435 87.0534C158.213 87.7717 156.7 88.1118 155.832 89.2693C156.874 89.7313 157.916 90.1939 158.959 90.6564C159.085 89.9083 159.211 89.1603 159.337 88.4122ZM255.572 157.419C261.346 159.441 266.639 162.141 270.889 166.725C274.562 170.688 276.288 177.672 277.185 182.868C279.403 195.724 275.122 207.641 272.299 219.94C270.867 226.179 268.729 232.183 266.727 238.261C264.979 243.568 263.48 249.126 261.068 254.173C259.022 258.452 256.408 262.671 254.609 267.11C253.64 269.499 252.071 277.696 248.395 275.122C247.392 277.745 247.148 277.521 248.22 279.343C248.996 280.662 251.629 282.493 252.871 283.567C256.182 286.429 260.375 288.788 264.258 290.793C271.372 294.464 278.997 297.211 286.322 300.557C289.561 302.038 293.073 303.787 292.346 308.024C291.737 311.576 289.683 314.269 286.477 315.849C283.468 317.333 279.163 318.479 275.853 318.944C273.889 319.22 273.438 318.403 271.837 318.12C270.054 317.806 267.975 318.414 266.136 318.398C257.882 318.326 250.656 316.249 243.985 311.463C241.602 309.752 238.094 305.113 234.974 305.113C233.38 305.113 233.716 306.082 232.314 306.65C230.583 307.351 227.601 306.028 225.899 305.717C222.274 305.055 218.587 304.383 216.173 301.261C213.563 297.887 214.491 293.707 215.613 289.959C216.877 285.735 219.004 281.45 219.908 277.162C220.128 276.119 220.331 274.174 220.108 273.113C219.76 271.467 218.097 270.485 218.047 268.701C218.032 268.159 218.808 267.444 218.944 266.884C219.244 265.655 219.197 264.379 219.321 263.128C219.541 260.896 220.05 258.757 220.401 256.551C221.199 251.532 222.773 247.054 224.297 242.218C225.775 237.524 227.182 234.031 230.04 229.967C231.52 227.862 236.469 220.363 234.052 218.205C230.744 224.703 226.876 229.77 221.813 234.944C217.941 238.901 214.155 244.22 209.308 247.038C203.98 250.136 197.468 251.959 191.584 253.597C188.785 254.376 186.463 256.104 183.446 256.424C180.176 256.769 176.848 256.361 173.646 255.632C172.744 255.427 170.144 254.042 169.329 254.13C168.127 254.261 166.399 256.403 165.08 256.796C161.87 257.754 159.678 255.925 157.243 254.234C154.601 252.399 153.801 251.944 150.752 251.722C147.018 251.453 143.386 250.136 139.713 249.33C133.254 247.913 127.764 245.042 121.894 242.035C115.165 238.59 109.409 233.839 104.337 228.227C96.8808 219.975 86.4968 197.111 98.6769 189.105C91.5064 188.131 84.9393 185 84.0651 176.884C83.6085 172.638 84.4682 167.933 85.5361 163.84C86.0234 161.971 86.6044 160.113 87.1611 158.264C87.5804 157.639 87.8024 156.956 87.8254 156.213C88.0826 155.25 87.7119 154.771 86.7125 154.775C84.824 152.567 83.404 150.618 83.0225 147.482C82.9023 146.488 82.7946 144.965 83.5017 144.12C83.8287 143.781 84.2237 143.554 84.6844 143.44C85.7915 143.503 86.104 142.958 85.623 141.805C86.1603 140.171 85.3631 138.897 87.3885 138.215C88.0375 138.353 88.6838 138.505 89.3274 138.668C90.1489 139.043 90.6831 138.771 90.9317 137.856C92.8395 137.11 91.9594 136.006 94.5518 136.967C96.1205 137.548 97.6131 138.549 98.7557 139.769C100.189 138.849 96.9294 133.163 96.8209 131.348C96.5628 127.072 98.331 123.537 100.631 120.024C105.102 113.198 111.343 107.329 117.497 102.047C129.284 91.9337 141.667 82.3055 154.977 74.2477C149.486 70.4343 143.071 69.4007 136.538 71.1729C130.515 72.8069 125.633 75.7745 120.089 78.37C114.953 80.7737 109.501 81.7614 107.863 75.2016C106.028 67.8536 111.883 65.1256 117.134 61.8306C115.822 60.8529 111.506 61.5518 109.873 61.6676C106.237 61.9248 102.759 62.7458 99.2255 63.4718C97.5307 63.8195 95.9737 63.7412 94.2947 64.0821C91.7987 64.5888 89.1923 65.1563 86.667 65.8782C80.6589 67.5964 74.6954 70.2041 69.5039 73.718C65.0167 76.7536 61.9037 81.0399 58.2884 84.9875C54.1656 89.4886 50.2149 93.9177 44.1028 95.5651C41.2406 96.3371 37.883 97.0374 35.854 94.4811C33.966 92.104 33.8606 89.2391 33.9228 86.3328C34.0592 79.9126 37.1606 72.9753 40.7681 67.7293C44.6842 62.0347 49.9294 58.7734 54.8849 54.1899C47.722 54.702 40.7997 58.4775 34.2124 61.0875C32.8261 61.637 31.4268 62.2544 30.0328 62.7625C28.5466 63.3047 27.562 62.9728 26.1379 63.221C22.8884 63.788 20.0969 65.1576 16.9359 62.9742C10.9555 58.8437 16.9472 50.4409 21.0648 47.8625C26.8 44.2716 32.6347 41.2482 38.9531 38.6869C35.5324 34.9766 38.4536 29.6817 41.6067 27.0497C45.5958 23.719 50.6756 21.8105 55.4826 20.0276C59.2838 18.6175 63.0175 17.2636 66.9664 16.415C71.118 15.5232 75.9722 14.1606 80.1847 14.2913C84.1354 14.4139 87.6385 13.7179 91.6397 13.6065C94.9689 13.514 98.3058 13.5941 101.635 13.5078C110.591 13.2764 119.58 13.8805 128.333 14.5245C121.398 -5.75548 167.079 0.507396 176.825 3.15636C185.682 5.56397 195.83 8.35674 203.269 14.0693C206.421 16.4888 209.414 19.2397 212.211 22.0625C216.336 26.2273 218.62 31.6816 220.802 37.065C226.337 34.3537 231.629 31.399 237.685 30.0544C243.448 28.7756 249.351 27.0421 255.148 26.076C259.555 25.3412 265.951 24.8428 269.66 27.9545C273.689 31.3345 275.787 36.5944 278.192 41.0987C289.74 30.1414 302.62 22.1475 319.085 22.6791C335.196 23.1994 345.79 37.1123 347.743 52.1884C349.895 68.8012 342.495 86.1598 332.464 99.0245C327.966 104.794 323.312 110.366 317.258 114.67C314.255 116.804 311.088 119.141 307.796 120.807C306.155 121.638 304.36 122.388 302.637 123.027C301.859 123.316 301.058 123.605 300.249 123.801C297.94 124.361 298.388 123.613 297.53 125.635C296.833 127.277 296.918 130.101 296.62 131.902C296.279 133.962 296.076 136.049 295.578 138.08C294.716 141.601 293.817 145.035 292.737 148.473C290.691 154.98 287.939 161.538 284.567 167.474C287.427 168.715 291.431 168.84 294.487 169.217C297.794 169.624 301.106 170.479 304.542 171.44C311.425 173.365 317.576 174.99 324.122 177.871C330.918 180.863 336.975 185.329 343.518 188.885C349.536 192.154 355.618 196.249 361.206 200.174C362.536 201.107 363.359 201.919 364.418 203.101C365.5 204.309 365.845 204.546 367.139 205.593C367.722 206.064 369.419 208.444 370.085 208.532C371.278 208.69 371.095 207.799 372.031 206.556C373.987 203.961 376.714 201.951 378.656 199.29C380.276 197.071 381.965 194.824 383.696 192.916C387.885 188.299 391.356 183.181 394.335 177.645C395.885 174.763 397.517 172.021 399.201 169.301C400.876 166.594 403.856 163.02 407.193 163.18C406.925 161.801 406.072 161.571 407.544 160.728C408.491 160.185 410.336 161.061 411.067 161.612C413.002 163.073 413.085 165.907 412.964 168.036C412.649 173.522 411.502 178.937 409.902 184.125C407.978 190.361 405.568 195.862 402.937 201.814C400.843 206.555 398.243 212.825 393.031 214.988C396.531 219.986 394.85 224.058 392.511 229.363C390.801 233.242 388.543 237.249 385.104 239.816C381.227 242.709 377.021 240.255 372.967 238.343C370.518 237.187 363.028 234.461 364.551 230.906C362.68 230.657 361.504 229.298 359.801 228.88C357.998 228.437 358.308 229.169 356.4 229.443C354.937 229.654 352.75 228.344 351.373 227.875C349.073 227.093 346.779 226.29 344.482 225.499C338.017 223.272 331.661 221.08 325.132 219.296C312.983 215.977 300.685 214.094 288.58 211.13C286.153 210.536 283.741 209.962 281.214 209.486C280.692 209.388 277.985 209.237 277.656 208.679C277.08 207.7 278.851 202.223 279.003 201.107C280.001 193.78 279.675 185.76 278.269 178.517C277.686 175.505 275.078 171.606 275.101 168.667C275.117 166.695 276.864 164.543 277.89 162.756C280.427 158.34 283.086 153.569 284.966 148.973C287.843 141.943 289.606 134.007 290.877 126.478C291.539 122.552 292.31 118.297 292.49 114.326C292.628 111.299 292.379 108.124 292.819 105.024C291.143 105.183 288.773 106.051 287.264 105.122C285.358 103.949 284.847 100.602 285.09 98.6025C278.566 99.7411 278.782 93.5542 279.186 88.7157C267.395 88.7157 282.496 71.1941 284.382 67.4316C285.249 65.7017 285.224 67.6446 284.841 64.9694C284.673 63.7934 283.869 62.49 283.414 61.4086C282.423 59.0482 281.352 56.7238 280.207 54.4336C277.79 49.5965 275.051 44.9228 272.062 40.4163C269.371 42.2913 266.946 44.5107 264.699 46.8919C266.14 43.1222 270.544 38.4522 268.661 34.1718C266.915 30.2039 261.084 30.4791 257.64 31.2044C248.282 33.1773 239.308 36.0508 230.394 39.3777C233.155 40.9613 237.383 39.738 240.127 38.5274C243.524 37.0277 247.177 35.4545 250.839 34.66C254.032 33.9673 258.226 34.2038 257.303 38.5049C256.555 41.99 253.147 45.3462 250.897 47.9521C245.942 53.6931 239.728 58.1375 233.624 62.5783C227.063 67.3519 220.741 72.5385 214.097 77.1738C202.087 85.5536 189.173 92.8363 176.764 100.658C170.316 104.722 163.009 107.993 156.016 111.005C148.324 114.319 140.948 117.866 132.968 120.483C128.535 121.937 124.142 123.133 119.787 124.788C117.057 125.824 112.304 127.901 110.5 124.823C106.837 118.573 120.093 110.353 123.726 106.531C126.232 108.965 113.874 118.035 114.841 121.578C115.601 124.363 118.541 120.767 119.96 120.008C122.254 118.781 124.971 118.165 127.276 116.765C132.005 113.894 137.611 110.584 138.691 104.649C137.939 103.856 137.949 103.124 138.719 102.453C139.062 102.046 139.334 101.598 139.534 101.11C139.871 100.177 140.006 99.0092 140.186 98.0202C140.718 95.0977 139.382 92.3611 140.631 89.5008C133.343 95.0224 126.338 101.26 119.421 107.237C113.216 112.599 106.741 119.62 104.461 127.621C104.169 128.646 103.683 129.809 103.736 130.89C103.84 133.014 104.052 132.556 105.763 133.239C107.475 133.922 109.967 133.863 111.807 133.936C112.856 133.976 117.541 132.866 116.609 135.168C116.072 136.495 112.825 136.445 111.662 136.567C108.743 136.876 107.161 136.559 108.543 139.723C109.163 141.141 110.419 142.101 111.404 143.198C114.145 146.252 115.634 150.934 117.791 154.521C120.247 158.607 122.948 162.493 125.818 166.299C127.002 167.869 128.585 170.82 130.226 171.941C131.759 172.987 129.955 172.901 132.501 172.476C133.611 172.291 134.617 171.569 135.678 171.31C142.026 169.764 148.55 168.021 155.114 166.113C163.51 163.671 172.321 161.589 180.331 158.074C187.507 154.923 194.63 151.173 201.881 147.982C203.999 147.051 206.114 146.434 207.759 144.72C209.746 142.652 211.391 139.944 213.223 137.721C216.339 133.939 219.211 130.093 222.565 126.51C225.062 123.843 229.487 118.886 233.009 117.821C239.702 115.799 236.119 125.994 235.254 128.57C236.828 128.928 237.655 126.909 239.501 127.49C241.712 128.185 241.941 131.126 242.218 132.968C242.291 133.459 241.627 134.376 241.829 134.814C241.897 134.963 243.34 135.816 243.618 136.212C244.629 137.648 244.43 139.395 244.047 140.943C242.066 148.967 235.026 154.826 229.848 160.744C232.165 160.306 233.882 158.986 236.069 158.331C238.121 157.717 240.184 157.749 242.253 157.573C244.419 157.389 246.499 156.578 248.715 156.537C251.04 156.494 253.266 157.156 255.572 157.419Z" fill="black"/>
<path fill-rule="evenodd" clip-rule="evenodd" d="M10.6905 85.2518C9.41371 86.0864 9.05381 86.9052 9.00972 88.8306C8.99206 89.6201 9.04651 92.566 10.1501 92.4548C11.1858 92.3508 10.6905 86.2648 10.6905 85.2518ZM4.09479 90.0498C4.68974 83.8791 6.94733 77.6048 12.2582 73.7599C13.5716 72.8091 15.0574 72.8429 16.4968 72.243C17.3619 71.8827 18.7287 70.2073 19.7108 70.4054C23.3262 71.1369 19.1493 75.9406 18.5377 77.2044C16.6422 81.1196 16.7702 84.5596 16.8268 88.7833C16.8699 91.9932 17.5368 97.4045 15.9186 100.31C14.1936 103.404 10.4521 101.394 8.36364 99.5636C5.72787 97.2518 3.73719 93.5708 4.09479 90.0498Z" fill="black"/>
<path fill-rule="evenodd" clip-rule="evenodd" d="M67.5618 108.285C67.5618 111.728 70.3564 109.397 70.2569 106.948C70.1105 103.342 67.4312 105.563 67.5618 108.285ZM82.4195 89.2494C79.3609 92.0003 77.0014 93.5438 76.4118 97.7738C75.9655 100.978 76.4091 104.151 76.428 107.379C76.46 112.789 72.0913 118.476 67.3902 112.275C63.961 107.752 65.191 100.639 67.9874 96.0929C69.4548 93.7082 71.5495 91.3486 73.9694 89.8624C75.7894 88.7436 80.9093 86.5426 82.4195 89.2494Z" fill="black"/>
<path fill-rule="evenodd" clip-rule="evenodd" d="M39.7016 172.626C39.3472 173.465 38.5144 176.891 40.2132 176.116C41.7126 175.431 40.7411 173.161 39.7016 172.626ZM30.7268 162.05C30.4647 160.762 30.5715 152.686 32.7959 153.292C34.5429 153.767 34.8316 157.9 35.5432 159.339C38.1937 164.696 44.277 168.032 46.3749 173.561C48.7165 179.736 41.6369 179.928 37.8803 177.427C33.4323 174.467 30.8588 167.217 30.7268 162.05Z" fill="black"/>
<path fill-rule="evenodd" clip-rule="evenodd" d="M25.2741 128.939C26.2393 127.635 26.337 126.939 25.7866 125.786C25.0831 126.551 25.2079 127.645 25.2741 128.939ZM25.9726 134.769C20.9401 135.333 20.6882 126.059 21.5499 122.874C22.2363 120.338 23.7117 117.614 25.2309 115.547C25.5376 115.13 28.447 111.383 29.0172 111.374C31.2061 111.34 30.6048 113.813 30.3684 114.733C29.6248 117.634 29.3302 120.058 29.5302 123.274C29.745 126.714 31.3745 134.883 25.9726 134.769Z" fill="black"/>
<path fill-rule="evenodd" clip-rule="evenodd" d="M254.466 54.4538C247.27 60.4884 240.439 67.0217 232.614 72.3002C228.785 74.8835 224.783 77.1688 220.962 79.7941C219.017 81.1313 217.031 82.3284 214.873 83.3111C212.966 84.1794 211.719 84.2925 213.301 82.2315C214.359 80.8547 216.729 79.8954 218.17 78.9167C220.387 77.4093 222.481 75.7375 224.813 74.4003C228.924 72.0416 233.01 70.1374 236.8 67.2451C240.163 64.6783 243.634 62.1724 246.844 59.4445C248.221 58.2748 252.785 52.9045 254.466 54.4538Z" fill="black"/>
<path fill-rule="evenodd" clip-rule="evenodd" d="M254.611 76.2442C257.847 79.0122 249.751 86.5958 247.904 88.3144C245.957 90.1272 243.813 91.7441 241.695 93.3497C240.95 93.9154 236.883 97.6999 235.851 97.3946C233.814 96.7915 236.488 94.336 237.183 93.696C239.432 91.6225 241.729 89.6102 243.928 87.4808C245.911 85.5622 248.058 83.7854 249.976 81.8046C251.529 80.1999 252.835 77.481 254.611 76.2442Z" fill="black"/>
<path fill-rule="evenodd" clip-rule="evenodd" d="M14.8623 187.829C14.0174 185.871 12.5042 188.045 13.2714 189.023C13.9969 189.948 14.7543 188.205 14.8623 187.829ZM9.90814 183.963C10.3611 181.084 11.4079 179.484 14.1086 181.942C15.9644 183.63 19.6968 188.432 19.3426 191.049C18.8777 194.483 15.0962 193.508 13.136 191.713C11.1267 189.873 10.2397 186.516 9.90814 183.963Z" fill="black"/>
<path fill-rule="evenodd" clip-rule="evenodd" d="M15.8264 240.622C12.518 240.371 9.69542 237.83 8.29045 234.854C7.10833 232.351 5.98945 228.316 10.1425 229.631C12.8492 230.489 23.2834 241.026 15.8264 240.622Z" fill="black"/>
<path fill-rule="evenodd" clip-rule="evenodd" d="M55.9212 224.303C53.3644 224.885 50.8355 223.201 49.2632 221.302C48.285 220.12 46.0083 215.974 47.1554 214.267C48.7543 211.887 51.1683 216.671 52.0011 217.619C53.3072 219.102 57.5786 221.938 55.9212 224.303Z" fill="black"/>
<path fill-rule="evenodd" clip-rule="evenodd" d="M58.224 159.565C56.2198 158.635 54.3593 157.515 53.5531 155.294C53.0406 153.879 52.61 149.637 54.8862 149.656C57.5192 149.68 63.548 159.14 58.224 159.565Z" fill="black"/>
<path fill-rule="evenodd" clip-rule="evenodd" d="M44.173 115.429C46.8564 115.38 47.4919 116.86 47.8648 118.986C48.1184 120.429 49.3475 125.328 48.0711 126.332C46.247 127.766 43.3452 124.48 42.7588 123.19C41.55 120.535 43.2214 117.923 44.173 115.429Z" fill="black"/>
<path fill-rule="evenodd" clip-rule="evenodd" d="M90.2827 262.314C91.5892 262.909 94.5617 264.227 93.4259 266.272C92.2382 268.412 88.8284 266.333 87.5547 265.398C87.0214 265.006 83.6337 262.445 83.7755 261.586C84.0741 259.76 88.7442 262.142 90.2827 262.314Z" fill="black"/>
<path fill-rule="evenodd" clip-rule="evenodd" d="M4.20044 128.717C5.09328 130.953 6.09831 138.634 1.39668 134.486C-0.0381017 133.22 -0.254646 131.639 0.239693 129.901C0.954495 127.383 1.99474 127.882 4.20044 128.717Z" fill="black"/>
<path fill-rule="evenodd" clip-rule="evenodd" d="M253.357 100.114C252.316 97.9873 254.886 96.6154 256.26 95.2445C257.156 94.3491 260.927 89.4926 262.164 89.7669C264.707 90.3312 254.607 99.1659 253.357 100.114Z" fill="black"/>
<path fill-rule="evenodd" clip-rule="evenodd" d="M44.1392 254.184C46.5925 253.79 47.1649 256.515 48.7453 257.703C49.4231 258.212 51.7498 258.66 51.2818 259.742C50.0523 262.582 44.019 256.093 44.1392 254.184Z" fill="black"/>
<path fill-rule="evenodd" clip-rule="evenodd" d="M64.855 189.827C66.5412 189.121 71.4081 192.913 70.0105 194.551C67.9217 197.001 64.9739 191.168 64.855 189.827Z" fill="black"/>
<path fill-rule="evenodd" clip-rule="evenodd" d="M100.398 244.681C99.1687 244.803 93.9817 243.172 95.9034 240.989C97.2528 239.456 100.839 243.293 100.398 244.681Z" fill="black"/>
<path fill-rule="evenodd" clip-rule="evenodd" d="M38.2825 234.206C37.0624 234.693 32.6612 233.69 34.0448 231.779C35.3631 229.959 38.2843 232.695 38.2825 234.206Z" fill="black"/>
<path fill-rule="evenodd" clip-rule="evenodd" d="M74.313 242.452C75.7398 242.304 76.7703 243.164 77.0153 244.62C75.2309 244.875 74.6805 244.451 74.313 242.452Z" fill="black"/>
<path fill-rule="evenodd" clip-rule="evenodd" d="M259.87 30.9765C260.473 30.9792 261.075 30.9824 261.672 30.9851C261.068 30.9819 260.47 30.9792 259.87 30.9765Z" fill="black"/>
<path fill-rule="evenodd" clip-rule="evenodd" d="M250.412 156.41C249.511 156.411 248.61 156.413 247.71 156.414C248.611 156.412 249.512 156.411 250.412 156.41Z" fill="black"/>
<path fill-rule="evenodd" clip-rule="evenodd" d="M127.521 9.58765C127.479 10.4894 127.438 11.3912 127.395 12.2899C127.436 11.3874 127.478 10.4871 127.521 9.58765Z" fill="black"/>
<path fill-rule="evenodd" clip-rule="evenodd" d="M406.608 162.718C406.895 163.72 406.474 163.886 405.344 163.216C405.764 163.049 406.186 162.884 406.608 162.718Z" fill="black"/>
<path fill-rule="evenodd" clip-rule="evenodd" d="M381.023 241.305C381.475 241.308 381.927 241.311 382.374 241.314C381.921 241.311 381.472 241.308 381.023 241.305Z" fill="black"/>
<path fill-rule="evenodd" clip-rule="evenodd" d="M295.451 168.809C294.695 169.385 293.944 169.466 293.199 168.778C293.949 168.789 294.7 168.799 295.451 168.809Z" fill="black"/>
<path fill-rule="evenodd" clip-rule="evenodd" d="M278.59 92.0076C278.571 92.7593 278.552 93.5105 278.532 94.2595C278.551 93.5069 278.571 92.757 278.59 92.0076Z" fill="black"/>
<path fill-rule="evenodd" clip-rule="evenodd" d="M317.519 22.5135C316.768 22.513 316.017 22.5121 315.267 22.5112C316.019 22.2302 316.769 22.3225 317.519 22.5135Z" fill="black"/>
<path fill-rule="evenodd" clip-rule="evenodd" d="M97.2825 13.3497C96.5322 13.3938 95.7809 13.4379 95.0306 13.4821C95.7809 13.4379 96.5322 13.3938 97.2825 13.3497Z" fill="black"/>
<path fill-rule="evenodd" clip-rule="evenodd" d="M115.748 13.4925C115.148 13.4416 114.547 13.3902 113.947 13.3394C114.547 13.3902 115.147 13.4416 115.748 13.4925Z" fill="black"/>
<path fill-rule="evenodd" clip-rule="evenodd" d="M125.657 14.2062C125.056 14.4301 124.456 14.5625 123.855 14.2094C124.456 14.2085 125.056 14.2071 125.657 14.2062Z" fill="black"/>
<path fill-rule="evenodd" clip-rule="evenodd" d="M72.0611 15.4395C71.3099 15.5921 70.5595 15.7448 69.8092 15.8961C70.5604 15.7448 71.3108 15.5921 72.0611 15.4395Z" fill="black"/>
<path fill-rule="evenodd" clip-rule="evenodd" d="M279.042 198.748C279.021 199.199 279.001 199.65 278.981 200.099C279.002 199.647 279.022 199.198 279.042 198.748Z" fill="black"/>
<path fill-rule="evenodd" clip-rule="evenodd" d="M30.8386 162.267C30.8476 162.568 30.8561 162.869 30.8642 163.168C30.8543 162.866 30.8471 162.567 30.8386 162.267Z" fill="black"/>
<path fill-rule="evenodd" clip-rule="evenodd" d="M409.397 160.651L407.145 160.663C407.894 160.104 408.645 160.175 409.397 160.651Z" fill="black"/>
<path fill-rule="evenodd" clip-rule="evenodd" d="M255.367 157.462C254.765 157.362 254.165 157.263 253.565 157.164C254.165 157.263 254.766 157.362 255.367 157.462Z" fill="black"/>
<path fill-rule="evenodd" clip-rule="evenodd" d="M90.5268 262.246C89.776 262.1 89.0257 261.953 88.2749 261.807L90.5268 262.246Z" fill="black"/>
<path fill-rule="evenodd" clip-rule="evenodd" d="M242.101 132.992C242.087 132.541 242.073 132.091 242.06 131.641C242.073 132.092 242.087 132.542 242.101 132.992Z" fill="black"/>
<path fill-rule="evenodd" clip-rule="evenodd" d="M99.5344 13.499C99.084 13.4436 98.6332 13.3882 98.1833 13.3328C98.6332 13.3882 99.084 13.4436 99.5344 13.499Z" fill="black"/>
<path fill-rule="evenodd" clip-rule="evenodd" d="M173.397 2.36106C172.947 2.22459 172.496 2.08813 172.046 1.95166C172.496 2.08813 172.947 2.22459 173.397 2.36106Z" fill="black"/>
<path fill-rule="evenodd" clip-rule="evenodd" d="M226.992 306.137C227.294 306.155 227.596 306.174 227.893 306.192C227.591 306.173 227.291 306.155 226.992 306.137Z" fill="black"/>
<path fill-rule="evenodd" clip-rule="evenodd" d="M20.2672 64.2911C20.7194 64.3028 21.1715 64.3149 21.6183 64.3271C21.1639 64.3149 20.7155 64.3028 20.2672 64.2911Z" fill="black"/>
<path fill-rule="evenodd" clip-rule="evenodd" d="M322.473 22.9532C321.723 22.9005 320.972 22.8478 320.222 22.7947C320.973 22.8478 321.723 22.9005 322.473 22.9532Z" fill="black"/>
<path fill-rule="evenodd" clip-rule="evenodd" d="M85.1222 20.8445C84.0687 20.8463 83.0167 20.8481 81.9695 20.8499C83.0252 20.8481 84.0737 20.8463 85.1222 20.8445Z" fill="black"/>
<path fill-rule="evenodd" clip-rule="evenodd" d="M297.906 113.626C297.92 114.378 297.934 115.129 297.949 115.878C297.936 115.126 297.922 114.375 297.906 113.626Z" fill="black"/>
<path fill-rule="evenodd" clip-rule="evenodd" d="M242.756 274.877C242.153 274.868 241.552 274.858 240.954 274.848C241.558 274.856 242.157 274.867 242.756 274.877Z" fill="black"/>
<path fill-rule="evenodd" clip-rule="evenodd" d="M306.71 36.2476C307.611 36.1476 308.511 36.0476 309.412 35.9476C308.548 36.7124 307.614 36.2034 306.71 36.2476Z" fill="black"/>
<path fill-rule="evenodd" clip-rule="evenodd" d="M237.802 275.113C237.35 275.096 236.899 275.079 236.451 275.063C236.904 275.08 237.353 275.096 237.802 275.113Z" fill="black"/>
<path fill-rule="evenodd" clip-rule="evenodd" d="M222.229 282.969C222.252 283.722 222.275 284.473 222.298 285.221C222.276 284.468 222.252 283.719 222.229 282.969Z" fill="black"/>
<path fill-rule="evenodd" clip-rule="evenodd" d="M290.947 63.9028C291.548 63.847 292.148 63.7911 292.748 63.7357C292.2 64.1582 291.557 63.9109 290.947 63.9028Z" fill="black"/>
<path fill-rule="evenodd" clip-rule="evenodd" d="M94.1298 183.72C94.7302 183.831 95.3314 183.941 95.9313 184.051C95.331 183.941 94.7302 183.831 94.1298 183.72Z" fill="black"/>
<path fill-rule="evenodd" clip-rule="evenodd" d="M187.809 65.2116C188.559 64.573 189.309 64.6423 190.061 65.2044C189.31 65.2062 188.56 65.2089 187.809 65.2116Z" fill="black"/>
<path fill-rule="evenodd" clip-rule="evenodd" d="M159.628 87.9541C159.649 87.6537 159.67 87.3533 159.693 87.0533C159.673 87.3542 159.65 87.6542 159.628 87.9541Z" fill="black"/>
<path fill-rule="evenodd" clip-rule="evenodd" d="M290.712 79.3969C290.718 79.9986 290.724 80.5998 290.731 81.1984C290.725 80.5953 290.719 79.9963 290.712 79.3969Z" fill="black"/>
<path fill-rule="evenodd" clip-rule="evenodd" d="M92.0058 173.541C92.994 173.876 94.9815 174.888 96.1331 174.754C97.0551 174.646 97.8149 173.525 98.7039 173.527C101.098 173.53 100.654 176.297 99.497 177.782C96.3691 181.801 89.3797 177.444 92.0058 173.541Z" fill="black"/>
<path fill-rule="evenodd" clip-rule="evenodd" d="M101.776 159.115C105.04 159.957 103.414 167.138 100.67 167.631C97.4393 168.213 96.8763 162.374 97.5145 160.264C99.1773 161.252 98.1477 164.777 100.243 163.803C101.576 163.182 101.373 160.315 101.776 159.115Z" fill="black"/>
</svg>
