<svg width="271" height="309" viewBox="0 0 271 309" fill="none" xmlns="http://www.w3.org/2000/svg">
<path fill-rule="evenodd" clip-rule="evenodd" d="M257.307 207.458C258.582 209.401 259.857 211.344 261.196 213.241C261.393 213.52 261.594 213.801 261.797 214.084C263.693 216.73 265.725 219.565 265.694 222.931C265.679 224.587 265.439 226.416 263.843 227.305C263.807 226.66 262.884 227.298 262.573 227.512C262.555 227.525 262.539 227.536 262.525 227.545C261.972 227.922 261.862 228.081 261.724 228.112C261.595 228.141 261.443 228.059 260.89 227.937C260.194 227.783 259.535 227.764 258.894 227.746C257.817 227.716 256.789 227.687 255.707 227.022C254.661 226.379 253.618 225.731 252.576 225.083C249.976 223.465 247.377 221.849 244.717 220.317C236.667 215.681 228.697 210.934 221.228 205.393C217.089 202.321 212.835 199.351 208.574 196.375C199.398 189.967 190.184 183.533 181.991 176.008C170.002 164.998 157.42 154.074 143.194 146.022C142.98 145.901 142.678 145.767 142.339 145.616C141.166 145.096 139.563 144.384 139.759 143.385C139.923 142.544 141.33 141.451 142.393 140.626C142.757 140.344 143.08 140.092 143.3 139.894C144.36 138.933 145.435 137.991 146.511 137.049C148.471 135.332 150.431 133.615 152.294 131.789C157.623 126.569 162.912 120.808 167.186 114.683C169.056 112.003 170.103 109.052 171.178 106.019C171.298 105.681 171.417 105.343 171.539 105.003C172.611 102.012 173.601 98.3311 171.862 95.373C171.057 94.0026 169.946 93.4469 168.391 93.5508C168.186 93.5645 168.015 93.5826 167.87 93.5981C167.109 93.6794 167.081 93.6821 166.653 92.5353C166.585 92.3545 166.519 92.1701 166.452 91.9844C165.978 90.6595 165.476 89.2572 164.184 88.5114C162.787 87.7046 161.798 88.4243 160.693 89.2285C160.591 89.3027 160.488 89.3774 160.384 89.4517C160.152 89.1166 159.911 88.7413 159.658 88.3469C158.363 86.3288 156.751 83.816 154.353 83.6515C151.379 83.4477 149.683 87.0989 148.647 89.3262L148.629 89.3659C145.574 95.9398 141.599 102.08 137.324 107.935C132.69 114.28 127.952 120.735 122.846 126.71C122.613 126.983 122.373 127.283 122.125 127.594C121.222 128.722 120.21 129.987 119.015 130.589C117.453 131.377 116.156 130.637 114.836 129.731C114.112 129.234 113.392 128.734 112.674 128.235C110.304 126.588 107.943 124.949 105.456 123.449C102.709 121.791 99.9021 120.241 97.0944 118.689C96.235 118.214 95.3756 117.739 94.5175 117.261C93.8769 116.905 93.2491 116.519 92.6213 116.132C91.6664 115.545 90.7106 114.958 89.7066 114.47C88.8211 114.04 87.8906 113.734 86.9595 113.427C86.2606 113.198 85.5612 112.968 84.8808 112.685C90.3384 111.058 96.0687 112.951 101.305 114.68C101.66 114.798 102.014 114.914 102.364 115.029C105.227 115.966 108.221 116.942 111.277 116.69C113.921 116.472 116.32 115.057 118.411 113.511C122.191 110.716 122.488 106.518 121.255 102.275C120.422 99.4036 119.327 96.5967 118.235 93.7917C117.469 91.8271 116.704 89.8633 116.029 87.8792C115.283 85.6882 114.77 83.3615 116.467 81.4685C117.985 79.7744 119.95 79.5662 122.023 80.2328C122.229 80.2992 122.434 80.365 122.638 80.4309C127.415 81.9716 131.727 83.3619 136.894 83.2147C141.106 83.0949 146.463 81.8995 149.301 78.4769C150.856 76.6006 150.915 74.0211 150.921 71.6939C150.929 68.9357 150.755 66.1621 150.369 63.4317C150.221 62.3835 150.022 61.3345 149.823 60.2871C149.098 56.4671 148.376 52.6638 150.134 48.9516C150.66 47.8424 152.122 45.2583 153.569 45.1036C155.132 44.9365 155.5 46.8092 155.731 47.9843C155.759 48.1266 155.785 48.2588 155.81 48.3755C156.05 48.2248 156.279 48.1783 156.483 48.1372C156.855 48.0621 157.141 48.0046 157.239 47.3618C158.733 48.9272 160.019 50.6545 161.307 52.3835C161.859 53.1262 162.412 53.8689 162.982 54.5997C163.794 55.6395 164.808 56.5842 165.823 57.5298C167.085 58.7049 168.347 59.8804 169.218 61.2394C170.106 62.6227 169.431 64.4821 168.798 66.2257C168.478 67.1064 168.17 67.9569 168.078 68.7019C167.771 71.2036 168.424 74.0666 170.133 75.9742C170.932 76.8659 171.909 77.4857 173.091 77.7253C173.719 77.8526 174.332 77.7147 174.923 77.5812C175.437 77.4654 175.936 77.3531 176.417 77.4212C177.146 77.5242 177.283 77.9481 177.49 78.5892C177.528 78.7037 177.567 78.8252 177.612 78.953C178.023 80.1095 178.546 81.2015 179.515 82.014C179.92 82.3535 180.337 82.6024 180.743 82.8456C181.421 83.2514 182.07 83.6396 182.587 84.4022C182.765 84.6657 182.925 84.9269 183.081 85.182C183.554 85.9583 183.993 86.6794 184.835 87.2351C185.219 87.4888 185.663 87.6971 186.108 87.9057C187.39 88.507 188.679 89.1109 188.559 90.8195L189.328 90.2081C189.923 92.1193 190.741 93.9699 191.615 95.7669C192.024 96.6091 192.235 97.0565 192.214 97.9933C192.209 98.1953 192.17 98.381 192.132 98.5609C192.054 98.9301 191.981 99.2731 192.227 99.675C192.545 100.194 193.153 100.393 193.756 100.591C194.262 100.757 194.766 100.922 195.092 101.274C195.444 101.656 195.451 102.103 195.458 102.542C195.465 103.014 195.472 103.476 195.911 103.834C195.554 103.943 194.566 104.742 194.937 105.227C195.26 105.648 195.403 105.466 195.547 105.282C195.643 105.16 195.738 105.038 195.887 105.084C196.351 105.226 196.512 105.603 196.667 105.967C196.799 106.278 196.927 106.578 197.237 106.713C197.376 106.774 197.364 106.113 197.357 105.958C199.374 109.934 201.571 113.813 203.768 117.693C206.628 122.741 209.486 127.788 211.945 133.043C219.682 149.584 228.881 165.689 239.054 180.861C239.853 182.052 240.677 183.239 241.503 184.43C243.16 186.819 244.825 189.219 246.306 191.676C247.712 194.008 249.336 196.174 250.962 198.342C251.915 199.613 252.869 200.885 253.78 202.192C254.988 203.925 256.148 205.692 257.307 207.458ZM197.355 105.954C197.353 105.912 197.355 105.919 197.357 105.958C197.356 105.956 197.355 105.955 197.355 105.954ZM32.7038 92.6728C32.6799 92.9769 32.6556 93.2882 32.759 93.6409C32.8643 94.0017 33.1649 94.2727 33.4628 94.541C33.6759 94.7333 33.8877 94.9239 34.0252 95.1454C35.1317 93.5163 35.0933 90.0273 34.4182 88.2855C34.0995 87.4628 33.4964 86.3916 33.019 85.6692C32.9443 85.5565 32.8218 85.4336 32.7033 85.3146C32.5725 85.1833 32.4469 85.0574 32.3952 84.9548C32.313 84.7912 32.2754 84.5688 32.2374 84.3434C32.1967 84.1042 32.156 83.8619 32.0601 83.6847C31.5234 82.6873 30.3488 82.4411 29.3165 82.5591C29.2055 82.5719 29.0932 82.5843 28.9792 82.5967C28.0331 82.7001 26.9991 82.8133 26.1547 83.224C25.8921 83.3518 25.6688 83.5083 25.4549 83.6581C24.9571 84.0069 24.5119 84.3191 23.7497 84.144C24.0229 84.6148 23.8129 84.9597 23.5941 85.3195C23.4677 85.5277 23.3377 85.7408 23.297 85.9866C23.1538 86.8469 23.4314 87.6179 23.9995 88.2709C25.0526 89.4813 26.5707 89.5874 28.0504 89.6909C28.2241 89.7028 28.3974 89.7152 28.5694 89.7289C29.9518 89.8403 31.6525 90.0693 32.4651 91.3646C32.7683 91.8487 32.7365 92.2541 32.7038 92.6728ZM39.0345 88.8385C39.7073 89.9919 41.2237 93.0715 41.1079 94.5141V98.1962C40.9845 99.4818 38.8121 101.679 37.6905 102.814C37.5637 102.942 37.4505 103.057 37.355 103.155C35.019 105.56 32.4819 105.867 29.0199 105.561C26.0875 105.301 22.2891 104.323 20.3041 101.992C18.3987 99.7555 18.4257 96.2895 18.7077 93.5353C19.1012 89.6887 20.7886 86.1847 23.0371 83.0741C24.3541 81.2523 27.9575 77.0105 30.7086 77.9384C31.1145 78.0755 31.4253 78.4388 31.7029 78.7629C31.7537 78.8226 31.8037 78.8809 31.8528 78.9366C32.0773 79.228 32.2997 79.5206 32.5208 79.8151C32.6578 80.2019 32.9045 80.316 33.2599 80.1577C33.5827 80.6046 33.9496 81.0149 34.3161 81.4243C35.0451 82.2395 35.7719 83.0516 36.141 84.144C36.4916 85.182 37.2197 86.2001 37.9262 87.1891C38.3267 87.7488 38.7202 88.2992 39.0345 88.8385Z" fill="#70CDFF"/>
<path fill-rule="evenodd" clip-rule="evenodd" d="M161.057 300.935C163.058 300.152 165.527 300.518 167.625 300.555C170.26 300.603 172.903 300.803 175.53 301.008C180.576 301.404 185.596 301.237 190.646 301.709C193.153 301.943 195.662 302.159 198.17 302.373C200.367 302.56 202.918 303.142 205.111 302.723C206.017 302.55 208.46 301.698 208.007 300.372C207.658 299.349 204.907 298.718 204.011 298.427C201.903 297.742 199.726 297.25 197.594 296.64C196.5 296.326 195.41 295.988 194.257 296.098C193.279 296.19 192.248 296.92 191.257 296.836C189.792 296.712 189.036 294.871 187.961 294.06C186.249 292.766 184.98 293.457 183.668 294.882C182.697 295.935 181.773 297.529 180.181 297.624C178.156 297.743 177.761 296.007 178.655 294.534C179.478 293.178 181.72 291.787 181.84 290.096C181.916 289.027 180.207 286.167 179.223 285.761C177.569 285.077 175.23 286.888 173.734 287.443C171.122 288.413 168.455 289.272 165.81 290.148C164.001 290.747 161.317 290.8 160.975 292.92C160.548 295.575 161.069 298.27 161.057 300.935ZM57.5235 260.133C58.0496 258.968 58.6018 258.305 57.5505 257.224C56.9625 256.619 56.1332 256.322 55.5545 255.694C54.6849 254.751 53.3224 252.174 55.1862 251.525C56.9678 250.904 58.4687 253.384 59.9024 253.929C61.722 254.62 62.8494 253.461 63.1098 251.722C63.444 249.488 63.0762 247.153 63.3432 244.892C63.604 242.674 64.3785 240.833 64.9727 238.71C65.3759 237.271 65.8688 235.821 64.0408 235.502C62.3644 235.21 60.4201 235.906 58.7203 235.999C56.0691 236.145 53.386 236.279 50.7569 236.676C47.8215 237.12 47.875 240.122 47.138 242.576C45.3511 248.525 42.955 254.362 41.8391 260.495C41.3581 263.14 42.6331 264.951 44.1176 267.031C45.9757 269.634 47.909 272.231 50.0138 274.643C51.4192 276.254 53.0027 277.754 55.0492 278.494C57.3675 279.333 58.2534 278.402 57.7189 276.116C57.0125 273.1 55.947 270.186 56.0726 267.045C56.1186 265.901 56.451 264.672 55.6261 263.714C55.054 263.05 54.0739 262.826 53.3272 262.422C52.0965 261.756 50.1897 259.611 52.5876 259.149C54.2163 258.835 55.947 259.931 57.5235 260.133ZM112.9 141.974C114.364 143.608 115.954 145.171 117.342 146.868C118.137 147.842 118.701 149.012 119.554 149.935C121.424 151.955 123.287 149.716 124.942 148.407C131.454 143.26 137.581 137.681 143.785 132.172C146.74 129.546 149.885 127.126 152.794 124.451C155.74 121.741 158.193 118.569 160.954 115.682C162.279 114.295 163.867 112.92 164.685 111.149C165.383 109.639 165.537 107.996 166.333 106.503C167.711 103.916 170.237 100.914 169.657 97.7864C167.951 99.5747 165.111 105.983 162.134 102.977C160.01 100.832 162.18 97.6617 162.085 95.1609C160.068 96.0167 160.592 99.4871 158.442 100.101C157.279 100.434 156.284 99.3806 155.742 98.4575C154.804 96.8616 155.148 95.1914 155.574 93.4982C155.864 92.3443 157.717 88.5393 155.885 88.0698C154.297 87.6626 152.966 90.5826 152.44 91.6171C151.476 93.5145 150.729 95.4765 149.671 97.3328C147.845 100.533 145.742 103.591 143.736 106.681C139.607 113.045 134.898 119.018 130.054 124.852C124.88 131.082 119.279 136.957 112.9 141.974ZM158.774 162.216C158.565 167.822 153.748 172.073 149.58 175.19C144.254 179.174 139.34 183.701 132.988 185.968C130.542 186.842 127.488 186.59 126.509 189.342C126.126 190.419 126.473 190.814 126.889 191.897C127.537 193.592 127.928 195.43 128.236 197.214C129.284 203.283 128.265 209.463 124.618 214.516C122.68 217.202 120.203 219.485 117.642 221.567C115.087 223.644 112.671 226.067 109.854 227.785C103.847 231.449 97.1735 233.553 90.2469 234.565C86.6443 235.092 83.0272 235.561 79.3888 235.748C77.5019 235.844 75.6116 235.862 73.7239 235.779C72.8803 235.742 69.7437 235.029 69.1341 235.512C68.665 235.885 68.4559 238.137 68.3622 238.759C68.1628 240.073 68.0059 241.368 67.7344 242.671C67.1893 245.286 66.455 248.244 67.2583 250.882C67.4909 251.645 67.6792 252.266 68.3856 252.523C68.8335 252.685 69.627 252.399 70.0797 252.353C71.104 252.248 72.0709 252.207 73.101 252.316C76.4816 252.673 79.8012 253.537 83.2177 253.302C90.5015 252.8 97.7925 252.287 105.01 251.148C108.52 250.593 111.888 249.544 115.341 248.734C118.631 247.962 121.92 247.182 124.991 245.732C131.008 242.889 136.569 239.129 141.536 234.725C146.84 230.022 150.35 224.448 153.668 218.228C156.582 212.764 159.039 207.233 158.911 200.934C158.83 196.948 158.259 192.009 160.564 188.493C161.617 186.887 163.741 185.399 165.719 186.248C169.31 187.789 165.918 190.842 164.548 192.514C162.575 194.923 162.84 198.591 162.636 201.537C162.394 205.013 161.613 208.062 160.851 211.424C160.106 214.714 161.609 218.618 161.758 221.975C161.919 225.615 161.813 229.258 161.772 232.9C161.691 240.142 162.028 247.365 162.003 254.606C161.99 258.362 162.086 262.136 161.848 265.886C161.632 269.306 160.932 272.578 160.318 275.935C159.717 279.231 158.84 283.177 159.042 286.528C167.271 283.395 175.281 279.696 183.636 276.898C181.03 274.625 180.914 271.414 180.704 268.209C180.427 263.983 179.731 259.793 179.428 255.567C178.829 247.221 178.997 238.441 179.707 230.104C180.469 221.154 181.821 212.233 182.099 203.245C182.233 198.915 181.898 194.575 181.193 190.302C180.599 186.702 180.083 182.173 178.206 178.983C176.412 175.936 173.115 174 170.363 171.924C166.34 168.888 162.613 165.475 158.774 162.216ZM159.272 45.1474C160.302 46.5404 161.466 47.826 162.698 49.0431C163.969 50.299 164.51 50.0214 166.031 49.3685C169.055 48.0687 168.997 46.5656 167.309 43.9604C163.394 37.917 161.908 30.7198 157.765 24.8003C153.683 18.9675 147.746 14.255 141.512 10.8917C134.823 7.28252 127.574 6.13411 120.034 6.2418C116.181 6.29698 112.304 6.56289 108.475 6.99464C104.75 7.41431 101.437 8.63664 97.8309 9.55954C96.0157 10.024 94.1439 10.4093 92.3791 11.0476C90.8309 11.6073 89.4388 12.4718 87.8747 12.9949C84.4502 14.139 81.0042 15.4178 77.9144 17.2891C74.8936 19.1191 72.1721 21.0707 69.4285 23.3172C66.5872 25.6438 64.1195 28.3476 61.047 30.3905C58.2499 32.2503 56.0253 34.7561 53.489 36.9356C50.8392 39.2132 48.3953 42.0037 46.4072 44.8817C44.4633 47.6956 43.7237 51.3366 42.5496 54.5099C41.1826 58.2036 39.8267 62.1519 39.3117 66.0679C38.3524 73.365 40.5058 81.8942 43.2441 88.6471C45.9527 95.3262 50.3422 100.899 55.5797 105.789C58.1327 108.174 60.9188 110.339 64.0404 111.933C66.7106 113.298 70.1925 115.75 73.0987 114.036C74.2756 113.342 75.2309 112.535 76.5912 112.223C78.0784 111.882 79.5351 112.021 80.7354 110.931C81.7557 110.004 82.2438 108.886 83.5833 108.327C85.1717 107.663 87.0502 107.542 88.7509 107.548C92.5701 107.561 96.3915 108.516 100.037 109.576C103.377 110.548 106.172 112.013 109.721 111.125C112.358 110.466 116.587 108.712 117.156 105.689C117.664 102.987 115.703 99.4938 114.716 97.076C113.351 93.7347 112.115 90.4477 111.258 86.9349C110.579 84.1515 109.512 79.6984 111.43 77.1542C113.314 74.6546 117.671 74.6846 120.378 75.3133C122.152 75.7253 123.783 76.5551 125.558 76.9733C127.366 77.3995 129.237 77.6135 131.081 77.8226C137.473 78.5454 146.567 76.911 146.227 68.743C145.924 61.4631 141.912 54.1656 144.262 46.8768C145.219 43.906 147.175 40.4701 150.431 39.6858C153.015 39.0638 156.506 39.7159 158.785 41.0669C160.613 42.1514 162.425 44.4224 159.272 45.1474ZM30.9094 77.6639C24.4664 78.9207 20.2051 85.7125 19.0243 91.7351C18.4889 94.4641 18.3001 97.7144 19.335 100.355C20.5278 103.399 23.8996 104.67 26.8749 105.308C30.2759 106.038 33.2896 105.753 35.9859 103.395C37.1711 102.358 38.1751 101.15 39.027 99.8306C39.8979 98.4809 41.1092 97.4977 40.2334 95.9893C38.0624 92.2519 36.21 88.5804 34.7803 84.4689C34.1424 82.6343 33.5752 80.8416 33.1516 78.9521C32.8157 77.4517 32.653 76.5361 30.9094 77.6639ZM87.3406 118.432C86.0939 119.633 84.6616 120.59 83.0524 121.235C81.2871 121.943 80.7513 121.603 80.8388 123.645C80.9356 125.9 80.952 127.704 79.9241 129.802C79.4431 130.785 77.666 132.11 78.0015 133.215C78.4834 134.801 83.4189 136.404 84.8587 136.959C88.3035 138.286 92.3225 138.313 95.5741 136.438C99.3508 134.26 99.6851 130.312 98.2624 126.491C98.1108 126.083 97.5586 125.394 97.6943 124.949C97.9437 124.134 98.9697 124.251 99.5586 124.563C100.837 125.239 101.371 127.296 101.647 128.58C102.382 132.01 101.031 135.724 98.4645 138.087C97.1599 139.287 95.5285 140.09 93.8645 140.668C92.9202 140.997 91.9291 141.256 90.9317 141.356C90.1258 141.437 89.1081 141.183 88.3384 141.413C86.9821 141.817 86.9215 143.49 86.5824 144.713C85.9768 146.898 85.7239 149.265 85.6443 151.526C85.5157 155.183 85.9511 159.843 88.055 162.943C92.9635 170.178 102.457 172.689 109.869 176.412C113.809 178.391 117.462 180.877 120.97 183.535C121.317 183.798 121.835 184.312 122.251 184.517C123.658 185.209 122.43 184.957 123.33 184.5C124.023 184.148 124.616 183.384 125.332 182.985C126.982 182.067 128.834 181.571 130.512 180.704C134.412 178.687 137.863 176.184 141.325 173.512C144.873 170.774 148.466 168.275 151.702 165.158C153.066 163.845 154.603 162.761 155.987 161.504C157.381 160.237 155.597 159.712 154.416 158.779C150.397 155.605 146.429 152.331 142.137 149.526C140.706 148.59 139.443 147.328 137.95 146.501C136.39 145.637 135.465 146.411 134.236 147.509C132.893 148.71 131.614 149.887 130.119 150.913C128.146 152.27 125.851 152.923 123.867 154.215C125.141 155.548 128.247 155.994 128.698 158.014C129.155 160.061 126.106 161.658 124.682 162.449C122.166 163.845 119.391 164.693 116.588 165.298C114.255 165.802 110.797 165.044 108.928 166.804C108.395 165.677 107.896 165.088 108.773 164.009C109.649 162.933 111.211 162.748 112.447 162.334C115.786 161.215 119.075 159.724 122.307 158.326C121.878 157.323 120.806 156.636 119.989 155.982C118.822 155.049 117.842 154.015 116.892 152.855C115.081 150.641 113.456 148.28 111.731 146.001C110.983 145.013 110.3 144.026 108.934 144.574C107.727 145.057 106.55 146.31 105.391 146.958C102.769 148.426 100.475 149.835 97.5891 150.768C96.4264 151.145 91.6647 152.216 92.9313 149.306C93.3066 148.443 94.5612 148.087 95.334 147.71C96.762 147.013 98.1855 146.302 99.5613 145.505C102.388 143.869 104.88 141.756 107.524 139.853C110.441 137.754 113.408 135.717 116.147 133.384C113.422 131.579 110.399 130.257 107.581 128.606C104.732 126.937 101.863 125.429 98.9171 123.947C96.5714 122.766 94.1872 121.508 92.0484 119.982C91.1983 119.375 88.273 116.855 87.3406 118.432ZM173.023 59.7248C172.665 59.815 172.31 59.9176 171.958 60.0316C174.347 63.6842 171.71 68.2058 172.457 72.1577C174.663 70.8535 174.951 65.7805 178.3 66.7182C181.907 67.7288 180.112 72.1678 181.204 74.7067C182.909 73.2169 184.898 74.6095 185.602 76.377C186.363 78.2921 185.307 80.06 185.662 81.9552C186.029 83.9163 187.125 82.6294 187.733 81.4729C188.507 79.9986 189.183 78.0056 188.898 76.319C188.551 74.2682 187.174 72.361 186.321 70.4981C185.473 68.647 184.67 66.758 183.444 65.1156C181.12 62.006 177.085 59.212 173.023 59.7248ZM196.125 103.524C194.566 99.6313 192.258 96.0667 190.783 92.1432C190.352 90.9959 190.111 89.167 188.971 88.4601C188.221 87.9955 187.224 88.2744 186.398 88.0247C185.574 87.7758 184.705 87.1825 184.114 86.5702C183.033 85.4504 182.683 83.9137 181.408 82.9384C179.762 81.6798 178.491 81.1971 177.708 79.094C177.094 77.4424 177.092 77.2001 175.245 77.5688C173.229 77.9711 171.591 77.4782 170.2 75.903C167.844 73.2359 167.584 69.4786 168.74 66.2593C169.28 64.7536 170.221 63.002 169.44 61.426C168.714 59.9613 166.951 58.91 165.834 57.7429C163.01 54.7929 160.8 51.3406 158.153 48.2451C157.519 47.5046 156.871 46.7659 156.382 45.9171C156.072 45.3777 155.889 44.4502 155.17 44.2977C153.932 44.0351 152.204 46.1752 151.582 46.9547C147.024 52.6594 150.285 60.4291 150.84 66.8601C151.122 70.1351 151.758 74.0613 150.305 77.1453C148.937 80.0512 145.473 81.5016 142.553 82.3107C138.616 83.4022 134.387 83.354 130.38 82.6913C128.282 82.3443 126.267 81.7519 124.281 81.0012C122.248 80.2329 120.134 78.9115 118.063 80.3054C115.389 82.1051 116.215 85.7156 116.802 88.3469C117.762 92.6454 119.437 96.6547 120.919 100.784C122.163 104.252 123.171 108.603 120.554 111.707C117.941 114.806 113.607 116.746 109.574 116.585C101.211 116.252 93.5776 110.017 85.032 112.567C86.6377 113.231 88.3349 113.621 89.9038 114.381C91.7978 115.298 93.5506 116.517 95.3893 117.537C98.9185 119.495 102.46 121.424 105.909 123.522C109.026 125.417 111.972 127.493 114.947 129.593C118.653 132.21 120.606 129.312 122.983 126.485C128.174 120.315 133.115 113.781 137.832 107.242C141.932 101.557 145.738 95.6219 148.703 89.2714C149.764 86.999 151.55 83.1444 154.655 83.5927C157.411 83.9906 159.019 87.316 160.443 89.3514C161.438 88.6392 162.29 87.6865 163.632 88.0786C164.746 88.4031 165.516 89.5454 166.008 90.5198C166.347 91.1896 166.578 93.4464 167.145 93.786C167.547 94.0278 169.088 93.5083 169.774 93.667C172.124 94.2099 172.875 97.2303 172.851 99.3262C172.818 102.216 171.611 105.107 170.621 107.782C168.404 113.78 164.604 118.467 160.417 123.206C156.166 128.016 151.716 132.375 146.922 136.643C145.739 137.696 144.568 138.762 143.414 139.848C142.468 140.738 140.97 141.664 140.23 142.71C138.86 144.645 142.525 145.523 143.889 146.231C149.757 149.278 155.164 153.292 160.332 157.383C165.661 161.604 171.02 165.84 176.141 170.312C181.15 174.686 185.882 179.349 191.157 183.417C196.577 187.596 202.256 191.454 207.825 195.431C213.4 199.411 218.824 203.599 224.392 207.585C229.834 211.48 235.675 214.819 241.399 218.277C244.393 220.087 247.403 221.87 250.411 223.656C252.843 225.1 255.483 227.344 258.366 227.527C260.965 227.691 263.429 228.648 264.982 225.823C266.16 223.678 265.672 220.728 264.64 218.645C263.381 216.102 261.41 213.764 259.827 211.411C258.006 208.706 256.316 205.922 254.519 203.202C252.796 200.594 250.881 198.187 248.959 195.73C247.01 193.238 245.531 190.43 243.794 187.792C240.082 182.152 236.265 176.615 232.746 170.849C224.674 157.625 217.445 143.974 210.537 130.118C209.929 128.897 195.728 103.741 196.125 103.524ZM184.761 184.824C189.099 199.819 186.597 215.066 185.707 230.321C185.258 238.033 185.189 245.794 184.99 253.517C184.893 257.272 184.9 261.029 185.055 264.782C185.134 266.669 185.272 268.551 185.406 270.435C185.525 272.101 185.078 273.944 185.288 275.551C185.558 277.61 189.646 278.014 188.39 280.658C187.547 282.43 184.597 282.701 183.016 283.449C183.719 284.262 184.818 285.48 185.99 285.557C187.046 285.626 187.862 284.71 188.808 284.364C189.649 284.056 190.805 283.758 191.335 284.739C191.891 285.766 190.727 286.908 190.267 287.704C191.832 288.006 192.914 287.072 194.326 287.158C195.811 287.248 195.878 288.709 196.854 289.555C197.97 290.522 199.918 290.73 201.294 291.137C202.895 291.609 204.504 292.197 205.961 293.018C208.567 294.486 210.806 297.26 211.769 300.099C212.767 303.042 211.208 305.588 208.887 307.394C208.022 308.067 206.782 308.848 205.635 308.486C204.324 308.071 204.119 307.004 202.521 307.083C201.086 307.155 199.724 307.728 198.282 307.801C196.162 307.909 194.044 307.523 191.921 307.604C183.356 307.933 174.79 308.007 166.24 307.183C164.027 306.97 161.859 306.796 159.678 306.726C157.982 306.672 157.84 305.407 157.553 303.819C156.859 299.984 158.393 296.209 157.634 292.483C157.684 292.728 156.483 292.089 156.339 291.967C155.457 291.225 155.163 290.171 154.901 289.076C154.201 286.159 154.208 283.188 154.424 280.213C154.916 273.462 156.172 266.773 156.069 259.986C156.017 256.565 156.121 253.152 156.122 249.733C156.122 246.592 156.407 243.492 156.433 240.372C156.491 233.533 157.211 226.771 157.412 219.939C155.989 221.324 155.233 223.255 154.329 224.983C153.217 227.107 151.977 229.21 150.618 231.187C147.813 235.271 144.05 238.594 140.152 241.606C132.713 247.355 124.63 251.807 115.516 254.245C105.649 256.884 95.67 258.666 85.498 259.667C83.1443 259.899 80.7646 260.024 78.406 259.795C76.8614 259.645 74.3507 258.397 72.883 259.03C71.215 259.75 70.8795 261.481 68.6924 260.995C67.8578 260.81 67.2534 260.253 66.5227 259.877C65.448 259.324 65.4051 259.706 64.379 259.776C63.2349 259.855 62.5492 259.283 61.5518 260.204C60.7052 260.986 60.7875 261.535 61.5607 262.267C62.6478 263.296 64.3878 263.468 65.4758 264.543C66.5346 265.588 66.3449 266.873 64.7097 266.888C63.0642 266.904 61.6018 265.733 59.9939 265.58C60.3365 270.337 61.768 275.651 60.1809 280.319C59.4444 282.483 57.8648 283.878 55.5089 283.863C51.5664 283.838 48.1084 280.211 45.7339 277.386C44.4214 275.825 43.3573 274.07 42.0902 272.47C40.7945 270.834 39.405 269.189 38.6632 267.211C37.874 265.106 38.1044 262.994 38.5456 260.833C39.0915 258.158 39.5991 255.457 40.2591 252.808C41.5389 247.671 44.1132 242.982 45.413 237.861C45.9046 235.923 45.8984 233.649 47.1393 231.988C48.4528 230.229 50.4965 230.116 52.5235 230.229C55.0324 230.368 57.5394 230.645 60.035 230.929C61.6111 231.108 65.0642 232.245 66.3467 231.276C66.7884 230.943 66.7893 230.069 67.3056 229.767C67.8034 229.477 68.6071 229.685 69.1513 229.726C71.8459 229.926 74.5638 230.168 77.2636 230.247C87.2991 230.541 97.8888 228.977 106.849 224.315C111.006 222.151 114.174 218.745 117.516 215.529C120.802 212.366 123.666 208.961 124.55 204.369C125.357 200.177 125.052 195.163 123.711 191.105C122.405 187.152 117.77 184.758 114.396 182.809C109.718 180.106 104.751 177.866 99.7111 175.926C98.9109 175.618 97.9384 175.226 97.0586 175.383C95.9795 175.576 95.2549 176.511 94.2734 176.924C93.1068 177.414 91.6757 177.417 90.4445 177.703C89.2509 177.981 88.0873 178.363 86.8716 178.546C83.0426 179.124 77.662 178.663 74.4975 176.217C69.3251 172.22 72.4502 166.562 74.112 161.696C72.3551 161.637 70.8923 162.048 69.2154 161.296C67.5448 160.547 66.2384 159.221 65.4767 157.559C64.0912 154.536 64.8914 151.063 65.3003 147.911C65.4851 146.486 65.696 145.071 66.2397 143.733C66.6611 142.696 67.3525 141.708 67.608 140.612C67.8892 139.404 67.5245 139.333 66.5174 138.756C64.9643 137.866 63.8467 136.842 62.8962 135.279C61.0346 132.218 60.9886 128.878 62.5138 125.658C63.1314 124.355 64.6045 122.563 64.4369 121.042C64.2928 119.732 62.8109 118.712 61.9382 117.855C59.2433 115.207 56.3781 112.763 53.3896 110.454C51.993 109.374 50.4545 108.394 49.1853 107.168C48.2551 106.27 47.3104 104.315 46.0385 103.843C44.7653 103.37 43.9174 104.792 43.0305 105.554C41.6481 106.742 40.3232 108.109 38.8166 109.138C36.1145 110.985 32.7644 110.64 29.7126 110.05C26.5252 109.433 23.5689 108.348 20.851 106.557C19.7714 105.845 18.5101 104.4 17.1808 104.284C15.7608 104.161 14.2179 105.572 13.2028 106.42C10.5534 108.633 9.75809 112.069 8.21476 115.042C6.4915 118.362 5.7594 121.807 6.22846 125.539C6.65021 128.896 7.94332 131.433 9.86684 134.145C10.2647 134.706 11.1962 135.765 10.5154 136.386C9.68249 137.145 7.97603 135.623 7.41679 135.131C1.86195 130.245 -1.29501 122.884 0.508271 115.515C1.476 111.558 3.36947 107.897 5.56841 104.493C6.50343 103.045 7.41546 101.597 9.04146 100.858C10.8925 100.018 12.9898 100.118 14.9668 99.916C13.5994 93.2219 13.1715 85.9376 17.3735 80.1033C20.5981 75.6263 27.202 71.709 32.4354 75.3394C32.221 70.4044 31.5177 65.7178 32.8311 60.8583C33.4195 58.681 34.2259 56.5621 35.2171 54.5351C36.1879 52.5493 37.5288 50.8649 38.313 48.7977C41.4076 40.643 47.3453 33.3587 53.6871 27.5059C60.0978 21.5897 66.3883 14.3723 74.4635 10.671C82.8879 6.80905 91.4675 3.33861 100.602 1.58387C110.083 -0.237578 119.827 -0.611451 129.378 1.11305C137.751 2.6249 145.499 7.70812 151.834 13.1883C159.063 19.4415 163.73 26.9802 167.422 35.7128C168.233 37.631 169.015 39.5656 170.01 41.3989C171.113 43.433 172.531 45.3247 173.342 47.5073C174.066 49.4538 174.188 51.5656 172.899 53.3048C171.993 54.5276 170.133 54.8035 169.341 55.922C168.941 56.4861 168.981 57.0228 169.86 57.1908C170.768 57.3641 171.201 56.3512 171.854 55.945C173.479 54.9335 175.772 55.7955 177.415 56.3698C181.311 57.7319 184.361 60.1784 186.692 63.5692C188.924 66.8146 190.406 70.5016 191.879 74.1307C192.808 76.4203 193.693 78.6948 194.205 81.1206C194.397 82.033 194.666 84.507 193.223 83.423C192.639 82.9835 191.803 86.3186 191.96 86.8496C192.509 88.6966 194.465 90.4283 195.616 91.9239C198.322 95.4394 200.135 99.3775 202.044 103.354C206.179 111.964 210.784 120.322 215.208 128.783C224.217 146.014 234.063 162.582 244.39 179.052C249.507 187.212 254.782 195.232 260.251 203.16C262.665 206.658 265.086 210.159 267.447 213.693C269.453 216.696 271.433 220.04 270.917 223.788C270.444 227.22 268.405 229.976 265.108 231.099C263.342 231.7 261.244 232.394 259.353 232.209C257.286 232.007 255.461 230.623 253.738 229.585C245.817 224.812 237.896 220.043 229.971 215.279C221.107 209.95 213.001 203.624 204.545 197.699C200.242 194.685 195.805 191.968 191.322 189.24C190.312 188.625 185.732 184.223 184.761 184.824Z" fill="black"/>
<path fill-rule="evenodd" clip-rule="evenodd" d="M108.016 199.993C105.851 203.181 103.574 206.176 100.527 208.595C97.3163 211.143 93.9591 213.207 90.3747 215.184C84.0533 218.67 75.5797 221.758 68.2375 220.177C66.1496 219.728 62.8091 217.901 64.6243 215.293C65.5368 213.982 67.4939 214.324 68.8795 214.396C71.1116 214.512 73.0634 214.639 75.2022 213.889C79.1319 212.508 83.0886 211.206 86.9259 209.581C90.6426 208.007 93.9021 205.848 97.3119 203.728C100.51 201.739 102.949 199.358 105.759 196.953C106.528 196.295 107.851 195.143 108.579 196.423C109.105 197.349 108.304 199.088 108.016 199.993Z" fill="black"/>
<path fill-rule="evenodd" clip-rule="evenodd" d="M195.497 46.8919C195.255 48.2725 194.601 51.0196 192.658 50.6443C190.18 50.166 191.4 45.3145 191.363 43.6677C191.198 36.4917 188.858 29.5916 185.394 23.3699C183.671 20.2768 181.549 17.4164 179.984 14.2348C179.68 13.6166 178.757 12.0834 179.427 11.4127C180.232 10.6073 181.776 11.8227 182.344 12.3975C184.537 14.6201 186.285 17.9521 187.978 20.5674C190.239 24.0589 192.237 27.7468 193.671 31.6619C195.402 36.3909 196.375 41.8759 195.497 46.8919Z" fill="black"/>
<path fill-rule="evenodd" clip-rule="evenodd" d="M200.133 23.944C200.364 25.1884 201.497 28.5744 199.477 28.8746C197.188 29.215 196.476 23.5735 195.841 22.0788C195.505 21.2908 193.719 17.8206 194.65 17.0652C196.589 15.4925 199.673 22.9427 200.133 23.944Z" fill="black"/>
<path fill-rule="evenodd" clip-rule="evenodd" d="M92.3733 191.862C90.2 193.843 87.677 193.726 84.9339 193.538C83.5409 193.442 80.3149 192.617 82.5568 190.889C83.7279 189.987 92.9158 189.366 92.3733 191.862Z" fill="black"/>
<path fill-rule="evenodd" clip-rule="evenodd" d="M261.716 228.118C261.871 227.81 263.175 226.336 263.456 226.932C263.721 227.494 262.061 228.101 261.716 228.118Z" fill="black"/>
<path fill-rule="evenodd" clip-rule="evenodd" d="M88.8596 118.653C88.5922 119.204 87.4759 118.723 87.0913 118.806C87.6138 117.687 88.235 117.927 88.8596 118.653Z" fill="black"/>
<path fill-rule="evenodd" clip-rule="evenodd" d="M172.856 60.124C172.74 60.5661 172.624 61.0082 172.508 61.4503C172.33 61.1192 172.151 60.788 171.972 60.4565C172.267 60.3459 172.562 60.235 172.856 60.124Z" fill="black"/>
<path fill-rule="evenodd" clip-rule="evenodd" d="M174.991 143.65C177.78 143.931 180.578 144.074 183.379 144.16C185.742 144.232 186.713 143.785 187.015 141.329C187.373 138.416 187.495 135.478 187.852 132.564C188.015 131.24 189.299 128.595 187.752 127.886C186.456 127.293 184.434 128.143 183.077 128.243C181.564 128.355 179.282 127.894 177.945 128.79C176.516 129.749 176.827 133.105 176.584 134.68C176.119 137.683 175.56 140.666 174.991 143.65ZM173.66 129.504C171.132 129.695 168.596 129.846 166.075 130.115C164.953 130.236 162.683 130.791 161.737 129.974C159.517 128.058 167.813 127.386 168.754 127.235C170.34 126.98 173.055 127.318 174.072 125.821C175.077 124.34 174.823 121.851 175.083 120.132C175.474 117.545 175.922 114.961 176.183 112.356C176.271 111.481 176.146 108.589 177.07 108.16C179.195 107.172 178.527 117.349 178.492 118.113C178.432 119.427 178.367 120.746 178.184 122.049C178.081 122.783 177.718 123.776 177.941 124.513C178.582 126.628 182.221 125.409 183.879 125.24C185.737 125.05 188.605 125.77 189.22 123.478C189.993 120.597 189.881 117.326 190.167 114.362C190.246 113.542 190.453 107.421 191.964 107.896C193.65 108.426 192.992 113.541 192.977 114.858C192.96 116.344 192.965 117.831 192.864 119.315C192.774 120.648 192.398 122.281 192.677 123.602C193.164 125.917 195.909 124.686 196.706 126.527C197.463 128.278 193.336 126.905 192.566 127.507C191.415 128.405 191.692 132.156 191.527 133.47C191.166 136.355 190.474 139.351 190.248 142.228C190.071 144.499 191.896 144.197 193.754 144.033C195.347 143.892 197.097 143.513 198.694 143.726C199.977 143.896 201.77 145.078 199.902 145.865C196.982 147.095 191.035 144.582 189.568 148.318C189.291 149.023 188.003 157.196 186.385 153.162C185.709 151.475 187.365 148.829 185.599 147.537C184.986 147.089 184.074 147.168 183.364 147.118C181.615 146.996 179.854 146.955 178.101 146.918C176.354 146.882 174.783 146.53 174.108 148.444C173.583 149.936 173.641 151.605 173.221 153.131C172.906 154.276 171.871 156.278 170.798 154.406C170.094 153.177 170.633 151.029 170.772 149.692C170.842 149.023 171.241 147.638 170.733 147.075C170.188 146.472 168.729 146.799 168.039 146.853C166.049 147.011 162.341 147.969 160.817 146.163C159.543 144.653 162.193 144.624 163.235 144.522C164.308 144.417 165.382 144.319 166.455 144.207C167.635 144.082 169.199 144.248 170.31 143.878C172.176 143.257 172.043 140.719 172.166 139.073C172.406 135.858 173.129 132.682 173.66 129.504Z" fill="black"/>
<path fill-rule="evenodd" clip-rule="evenodd" d="M206.455 136.371C206.304 138.228 206.103 140.309 205.504 142.073C205.05 143.407 204.135 143.812 203.822 142.114C203.624 141.038 204.94 134.973 206.455 136.371Z" fill="black"/>
<path fill-rule="evenodd" clip-rule="evenodd" d="M88.6068 124.148C87.8623 123.614 84.3366 120.802 86.8848 120.691C88.1859 120.634 90.9892 122.775 91.0696 123.962C91.09 124.262 90.4489 124.417 90.4839 124.707C90.5502 125.259 91.3676 125.52 91.6311 125.959C92.2116 126.928 91.9706 128.84 91.2208 129.761C89.5108 131.86 87.6121 128.306 88.9357 127.609C88.6408 127.764 84.6823 125.752 84.5338 125.298C83.7195 122.808 88.4065 125.154 88.6068 124.148Z" fill="black"/>
<path fill-rule="evenodd" clip-rule="evenodd" d="M94.8208 133.947C93.9167 133.976 92.1006 133.913 91.4233 133.268C90.1642 132.067 92.62 131.908 93.3384 131.349C94.3455 130.566 94.5431 128.019 96.124 129.595C97.6921 131.158 96.3132 132.977 94.8208 133.947Z" fill="black"/>
<path fill-rule="evenodd" clip-rule="evenodd" d="M81.7862 127.333C83.4211 127.093 87.0581 130.618 85.2933 130.852C84.1253 131.007 82.0413 128.275 81.7862 127.333Z" fill="black"/>
</svg>
