<?xml version="1.0"?>
<svg xmlns="http://www.w3.org/2000/svg" xmlns:xlink="http://www.w3.org/1999/xlink" xmlns:svgjs="http://svgjs.com/svgjs" version="1.1" width="512" height="512" x="0" y="0" viewBox="0 0 512 512.001" style="enable-background:new 0 0 512 512" xml:space="preserve" class=""><g><path xmlns="http://www.w3.org/2000/svg" d="m151.46875 214.675781c4.34375-52.078125 38.375-95.839843 85.074219-114.289062-12.8125-5.472657-26.742188-8.386719-41.042969-8.386719-57.621094 0-104.5 46.878906-104.5 104.5 0 15.90625 3.527344 31.210938 10.128906 45.042969 14.175782-12.671875 31.355469-22.046875 50.339844-26.867188zm0 0" fill="#005786" data-original="#000000" style="" class=""/><path xmlns="http://www.w3.org/2000/svg" d="m406 211c-5.355469 0-10.664062.398438-15.90625 1.199219-6.777344-51.398438-50.875-91.199219-104.09375-91.199219-57.898438 0-105 47.101562-105 105 0 5.054688.355469 10.0625 1.0625 15.003906-.355469-.003906-.707031-.003906-1.0625-.003906-49.625 0-90 40.371094-90 90 0 49.625 40.375 89.996094 90 89.996094h225c57.894531 0 104.996094-47.101563 104.996094-104.996094 0-57.898438-47.101563-105-104.996094-105zm0 0" fill="#005786" data-original="#000000" style="" class=""/><path xmlns="http://www.w3.org/2000/svg" d="m186.53125 452.496094c-7.457031-3.609375-16.425781-.488282-20.035156 6.96875l-15 31c-3.609375 7.457031-.488282 16.425781 6.96875 20.035156 2.105468 1.019531 4.332031 1.5 6.523437 1.5 5.570313 0 10.921875-3.117188 13.511719-8.46875l15-31c3.609375-7.457031.488281-16.429688-6.96875-20.035156zm0 0" fill="#005786" data-original="#000000" style="" class=""/><path xmlns="http://www.w3.org/2000/svg" d="m262.53125 452.496094c-7.457031-3.609375-16.425781-.488282-20.035156 6.96875l-15 31c-3.609375 7.457031-.488282 16.425781 6.96875 20.035156 2.105468 1.019531 4.332031 1.5 6.523437 1.5 5.570313 0 10.921875-3.117188 13.511719-8.46875l15-31c3.609375-7.457031.488281-16.429688-6.96875-20.035156zm0 0" fill="#005786" data-original="#000000" style="" class=""/><path xmlns="http://www.w3.org/2000/svg" d="m338.53125 452.496094c-7.457031-3.609375-16.425781-.488282-20.035156 6.96875l-15 31c-3.605469 7.457031-.488282 16.425781 6.96875 20.035156 2.105468 1.019531 4.332031 1.5 6.523437 1.5 5.570313 0 10.921875-3.117188 13.511719-8.46875l15-31c3.609375-7.457031.488281-16.429688-6.96875-20.035156zm0 0" fill="#005786" data-original="#000000" style="" class=""/><path xmlns="http://www.w3.org/2000/svg" d="m414.53125 452.496094c-7.457031-3.609375-16.429688-.488282-20.035156 6.96875l-15 31c-3.609375 7.457031-.488282 16.425781 6.96875 20.035156 2.105468 1.019531 4.332031 1.5 6.523437 1.5 5.570313 0 10.921875-3.117188 13.511719-8.46875l15-31c3.609375-7.457031.488281-16.429688-6.96875-20.035156zm0 0" fill="#005786" data-original="#000000" style="" class=""/><path xmlns="http://www.w3.org/2000/svg" d="m60 196c0-8.285156-6.714844-15-15-15h-30c-8.285156 0-15 6.714844-15 15 0 8.28125 6.714844 15 15 15h30c8.285156 0 15-6.71875 15-15zm0 0" fill="#005786" data-original="#000000" style="" class=""/><path xmlns="http://www.w3.org/2000/svg" d="m195 0c-8.285156 0-15 6.714844-15 15v31c0 8.285156 6.714844 15 15 15s15-6.714844 15-15v-31c0-8.285156-6.714844-15-15-15zm0 0" fill="#005786" data-original="#000000" style="" class=""/><path xmlns="http://www.w3.org/2000/svg" d="m117.308594 32.066406c-4.144532-7.175781-13.316406-9.632812-20.492188-5.492187-7.171875 4.144531-9.632812 13.316406-5.488281 20.492187l15.5 26.847656c2.777344 4.8125 7.820313 7.5 13.003906 7.5 2.542969 0 5.121094-.648437 7.484375-2.011718 7.175782-4.140625 9.632813-13.316406 5.492188-20.488282zm0 0" fill="#005786" data-original="#000000" style="" class=""/><path xmlns="http://www.w3.org/2000/svg" d="m30.566406 119.171875 26.847656 15.5c2.359376 1.363281 4.941407 2.011719 7.484376 2.011719 5.183593 0 10.226562-2.6875 13.003906-7.5 4.144531-7.175782 1.683594-16.347656-5.488282-20.492188l-26.847656-15.5c-7.175781-4.144531-16.347656-1.683594-20.488281 5.492188-4.144531 7.171875-1.6875 16.347656 5.488281 20.488281zm0 0" fill="#005786" data-original="#000000" style="" class=""/><path xmlns="http://www.w3.org/2000/svg" d="m57.914062 259.191406-26.847656 15.5c-7.175781 4.140625-9.632812 13.316406-5.488281 20.488282 2.777344 4.816406 7.816406 7.503906 13.003906 7.503906 2.542969 0 5.121094-.648438 7.484375-2.011719l26.847656-15.5c7.171876-4.140625 9.632813-13.316406 5.488282-20.492187-4.140625-7.171876-13.316406-9.632813-20.488282-5.488282zm0 0" fill="#005786" data-original="#000000" style="" class=""/><path xmlns="http://www.w3.org/2000/svg" d="m293.316406 26.074219c-7.175781-4.140625-16.347656-1.683594-20.492187 5.492187l-15.5 26.847656c-4.140625 7.171876-1.683594 16.347657 5.492187 20.488282 2.363282 1.363281 4.941406 2.011718 7.484375 2.011718 5.183594 0 10.226563-2.691406 13.003907-7.5l15.5-26.847656c4.144531-7.175781 1.6875-16.347656-5.488282-20.492187zm0 0" fill="#005786" data-original="#000000" style="" class=""/></g></svg>
