<?xml version="1.0"?>
<svg xmlns="http://www.w3.org/2000/svg" xmlns:xlink="http://www.w3.org/1999/xlink" xmlns:svgjs="http://svgjs.com/svgjs" version="1.1" width="512" height="512" x="0" y="0" viewBox="0 0 464 464" style="enable-background:new 0 0 512 512" xml:space="preserve" class=""><g><path xmlns="http://www.w3.org/2000/svg" d="m73.9375 241.375-11.3125-11.3125-14.625 14.625v-20.6875h-16v20.6875l-14.625-14.625-11.3125 11.3125 14.625 14.625h-20.6875v16h20.6875l-14.625 14.625 11.3125 11.3125 14.625-14.625v20.6875h16v-20.6875l14.625 14.625 11.3125-11.3125-14.625-14.625h20.6875v-16h-20.6875zm-17.9375 16v13.25l-9.375 9.375h-13.25l-9.375-9.375v-13.25l9.375-9.375h13.25zm0 0" fill="#70cdff" data-original="#000000" style=""/><path xmlns="http://www.w3.org/2000/svg" d="m185.9375 345.375-11.3125-11.3125-14.625 14.625v-20.6875h-16v20.6875l-14.625-14.625-11.3125 11.3125 14.625 14.625h-20.6875v16h20.6875l-14.625 14.625 11.3125 11.3125 14.625-14.625v20.6875h16v-20.6875l14.625 14.625 11.3125-11.3125-14.625-14.625h20.6875v-16h-20.6875zm-17.9375 16v13.25l-9.375 9.375h-13.25l-9.375-9.375v-13.25l9.375-9.375h13.25zm0 0" fill="#70cdff" data-original="#000000" style=""/><path xmlns="http://www.w3.org/2000/svg" d="m73.9375 401.375-11.3125-11.3125-14.625 14.625v-20.6875h-16v20.6875l-14.625-14.625-11.3125 11.3125 14.625 14.625h-20.6875v16h20.6875l-14.625 14.625 11.3125 11.3125 14.625-14.625v20.6875h16v-20.6875l14.625 14.625 11.3125-11.3125-14.625-14.625h20.6875v-16h-20.6875zm-17.9375 16v13.25l-9.375 9.375h-13.25l-9.375-9.375v-13.25l9.375-9.375h13.25zm0 0" fill="#70cdff" data-original="#000000" style=""/><path xmlns="http://www.w3.org/2000/svg" d="m464 264c0-22.054688-17.945312-40-40-40s-40 17.945312-40 40h-16c0-27.960938 20.625-51.136719 47.441406-55.273438.351563-2.886718.558594-5.796874.558594-8.726562 0-39.703125-32.296875-72-72-72-24.726562 0-47.296875 12.640625-60.488281 33.207031 12.566406 11.695313 20.488281 28.320313 20.488281 46.792969h-16c0-26.472656-21.527344-48-48-48s-48 21.527344-48 48c0 2.207031.199219 4.558594.632812 7.398438l1.207032 7.914062-7.910156 1.199219c-19.34375 2.953125-33.929688 19.929687-33.929688 39.488281 0 22.054688 17.945312 40 40 40h232c22.054688 0 40-17.945312 40-40zm0 0" fill="#70cdff" data-original="#000000" style=""/><path xmlns="http://www.w3.org/2000/svg" d="m40 176h144.65625c11.085938-19.097656 31.710938-32 55.34375-32 11.0625 0 21.480469 2.824219 30.566406 7.785156 9.417969-14.34375 22.53125-25.496094 37.832032-32.257812-5.503907-12.167969-16.773438-20.941406-30.328126-23.015625l-7.910156-1.199219 1.207032-7.914062c.433593-2.824219.632812-5.183594.632812-7.398438 0-26.472656-21.527344-48-48-48s-48 21.527344-48 48h-16c0-18.480469 7.921875-35.105469 20.488281-46.792969-13.191406-20.566406-35.761719-33.207031-60.488281-33.207031-39.703125 0-72 32.296875-72 72 0 2.921875.207031 5.832031.558594 8.726562 26.816406 4.144532 47.441406 27.320313 47.441406 55.273438h-16c0-22.054688-17.945312-40-40-40s-40 17.945312-40 40 17.945312 40 40 40zm0 0" fill="#70cdff" data-original="#000000" style=""/><path xmlns="http://www.w3.org/2000/svg" d="m440 345.585938-18.214844 27.335937c-3.785156 5.679687-5.785156 12.277344-5.785156 19.078125 0 13.230469 10.769531 24 24 24s24-10.769531 24-24c0-6.808594-2-13.40625-5.785156-19.097656zm0 0" fill="#70cdff" data-original="#000000" style=""/><path xmlns="http://www.w3.org/2000/svg" d="m376 393.585938-18.214844 27.335937c-3.785156 5.679687-5.785156 12.277344-5.785156 19.078125 0 13.230469 10.769531 24 24 24s24-10.769531 24-24c0-6.808594-2-13.40625-5.785156-19.097656zm0 0" fill="#70cdff" data-original="#000000" style=""/><path xmlns="http://www.w3.org/2000/svg" d="m312 329.585938-18.214844 27.335937c-3.785156 5.679687-5.785156 12.277344-5.785156 19.078125 0 13.230469 10.769531 24 24 24s24-10.769531 24-24c0-6.808594-2-13.40625-5.785156-19.097656zm0 0" fill="#70cdff" data-original="#000000" style=""/><path xmlns="http://www.w3.org/2000/svg" d="m232 393.585938-18.214844 27.335937c-3.785156 5.679687-5.785156 12.277344-5.785156 19.078125 0 13.230469 10.769531 24 24 24s24-10.769531 24-24c0-6.808594-2-13.40625-5.785156-19.097656zm0 0" fill="#70cdff" data-original="#000000" style=""/></g></svg>
